<svg width="24" height="24" viewBox="0 0 24 24" fill="none" xmlns="http://www.w3.org/2000/svg">
<path d="M1.35977 17.3174C1.624 19.7872 3.61034 21.7735 6.07885 22.0487C7.91236 22.253 9.79492 22.4286 11.7143 22.4286C13.6337 22.4286 15.5162 22.253 17.3497 22.0487C19.8182 21.7735 21.8046 19.7872 22.0687 17.3174C22.2638 15.4943 22.4286 13.6225 22.4286 11.7143C22.4286 9.80601 22.2638 7.93425 22.0687 6.11109C21.8046 3.64141 19.8182 1.65505 17.3497 1.3799C15.5162 1.17553 13.6337 1 11.7143 1C9.79492 1 7.91236 1.17553 6.07885 1.3799C3.61034 1.65505 1.624 3.64141 1.35977 6.11109C1.16471 7.93425 1 9.80601 1 11.7143C1 13.6225 1.16472 15.4943 1.35977 17.3174Z" stroke="black" stroke-width="2" stroke-linecap="round" stroke-linejoin="round"/>
</svg>
