<svg xmlns="http://www.w3.org/2000/svg" fill="none" viewBox="0 0 96 96" id="Apple--Streamline-Svg-Logos.svg"><desc>Apple Streamline Icon: https://streamlinehq.com</desc><path fill="#ffffff" d="M73.6538 50.9392c0.1321 14.2252 12.4793 18.959 12.6161 19.0194 -0.1044 0.3339 -1.9729 6.7461 -6.5051 13.3695 -3.9179 5.7263 -7.9841 11.4316 -14.3897 11.5497 -6.2941 0.116 -8.3179 -3.7324 -15.5139 -3.7324 -7.1937 0 -9.4424 3.6143 -15.4004 3.8484 -6.183 0.234 -10.8912 -6.1922 -14.8417 -11.8975C11.5469 71.426 5.378 50.1187 13.6612 35.7359c4.115 -7.1426 11.4687 -11.6655 19.4504 -11.7815 6.0716 -0.1158 11.8024 4.0847 15.5139 4.0847 3.7093 0 10.6734 -5.0515 17.9946 -4.3096 3.0648 0.1275 11.668 1.238 17.1923 9.3242 -0.4451 0.2759 -10.2653 5.9928 -10.1586 17.8855Zm-11.829 -34.9307C65.1074 12.0351 67.3168 6.50369 66.714 1c-4.7315 0.19017 -10.4531 3.153 -13.847 7.12425 -3.0415 3.51675 -5.7052 9.14545 -4.9865 14.54025 5.2739 0.408 10.6616 -2.68 13.9443 -6.656Z" stroke-width="1"></path></svg>