<svg width="14" height="14" viewBox="0 0 14 14" fill="none" xmlns="http://www.w3.org/2000/svg">
<path fill-rule="evenodd" clip-rule="evenodd" d="M6.75 0C5.63377 0 4.54771 0.102042 3.5167 0.216963C1.78318 0.410188 0.391268 1.80033 0.205349 3.53808C0.095581 4.56406 0 5.64225 0 6.75C0 7.85775 0.095581 8.93594 0.20535 9.9619C0.391269 11.6997 1.78318 13.0898 3.5167 13.283C4.54771 13.398 5.63377 13.5 6.75 13.5C7.86623 13.5 8.95229 13.398 9.9833 13.283C11.7168 13.0898 13.1087 11.6997 13.2947 9.9619C13.4044 8.93594 13.5 7.85775 13.5 6.75C13.5 5.64225 13.4044 4.56406 13.2947 3.53808C13.1087 1.80033 11.7168 0.410189 9.9833 0.216963C8.95229 0.102042 7.86623 0 6.75 0Z" fill="#EADFFF"/>
<path fill-rule="evenodd" clip-rule="evenodd" d="M10.4269 13.2042C10.4578 13.0404 10.3772 12.8258 10.2877 12.6601C9.18608 10.6228 7.48335 8.51459 5.44018 7.12376C4.64832 6.58472 3.62784 6.64319 2.87252 7.1688C1.78958 7.9224 0.993601 8.51371 0.160156 9.53282C0.174542 9.67625 0.189412 9.81872 0.204551 9.96022C0.39047 11.698 1.78238 13.0881 3.5159 13.2813C4.54691 13.3963 5.63297 13.4983 6.7492 13.4983C7.86543 13.4983 8.95149 13.3963 9.9825 13.2813C10.1334 13.2645 10.2817 13.2386 10.4269 13.2042Z" fill="#9260F4"/>
<path d="M8.78551 6.49678C9.92572 6.49678 10.5671 5.8554 10.5671 4.71518C10.5671 3.57496 9.92572 2.93359 8.78551 2.93359C7.64529 2.93359 7.00391 3.57496 7.00391 4.71518C7.00391 5.8554 7.64529 6.49678 8.78551 6.49678Z" fill="#9260F4"/>
</svg>
