<svg width="14" height="14" viewBox="0 0 14 14" fill="none" xmlns="http://www.w3.org/2000/svg">
<g clip-path="url(#clip0_2747_2240)">
<path fill-rule="evenodd" clip-rule="evenodd" d="M7 1.98406C6.494 1.98406 5.583 2.01006 4.503 2.08906V0.914062C4.503 0.71515 4.42398 0.524385 4.28333 0.383732C4.14268 0.24308 3.95191 0.164063 3.753 0.164062C3.55409 0.164063 3.36332 0.24308 3.22267 0.383732C3.08202 0.524385 3.003 0.71515 3.003 0.914062V2.23606C2.30914 2.36619 1.67712 2.72032 1.20386 3.24415C0.730606 3.76799 0.442244 4.4326 0.383 5.13606C0.303492 6.05837 0.259126 6.98338 0.25 7.90906C0.25 8.40506 0.281 9.48906 0.383 10.6811C0.447009 11.4336 0.772679 12.1398 1.3034 12.6771C1.83412 13.2144 2.53634 13.5488 3.288 13.6221C4.878 13.7851 6.313 13.8331 7 13.8331C7.687 13.8331 9.122 13.7851 10.712 13.6231C11.4638 13.5498 12.1662 13.2153 12.6969 12.6778C13.2276 12.1403 13.5532 11.4337 13.617 10.6811C13.6965 9.75909 13.7409 8.83442 13.75 7.90906C13.75 7.41306 13.719 6.32806 13.617 5.13506C13.5576 4.43044 13.2683 3.76485 12.7937 3.2407C12.319 2.71654 11.6853 2.36286 10.99 2.23406V0.914062C10.99 0.71515 10.911 0.524385 10.7703 0.383732C10.6297 0.24308 10.4389 0.164063 10.24 0.164062C10.0411 0.164063 9.85032 0.24308 9.70967 0.383732C9.56902 0.524385 9.49 0.71515 9.49 0.914062V2.08806C8.6614 2.02549 7.83093 1.9908 7 1.98406Z" fill="#B0B9C2"/>
<path fill-rule="evenodd" clip-rule="evenodd" d="M2.875 6.21289C2.875 5.86789 3.155 5.58789 3.5 5.58789H4C4.16576 5.58789 4.32473 5.65374 4.44194 5.77095C4.55915 5.88816 4.625 6.04713 4.625 6.21289C4.625 6.37865 4.55915 6.53762 4.44194 6.65483C4.32473 6.77204 4.16576 6.83789 4 6.83789H3.5C3.33424 6.83789 3.17527 6.77204 3.05806 6.65483C2.94085 6.53762 2.875 6.37865 2.875 6.21289ZM2.875 9.21289C2.875 8.86789 3.155 8.58789 3.5 8.58789H4C4.16576 8.58789 4.32473 8.65374 4.44194 8.77095C4.55915 8.88816 4.625 9.04713 4.625 9.21289C4.625 9.37865 4.55915 9.53762 4.44194 9.65483C4.32473 9.77204 4.16576 9.83789 4 9.83789H3.5C3.33424 9.83789 3.17527 9.77204 3.05806 9.65483C2.94085 9.53762 2.875 9.37865 2.875 9.21289ZM6.75 5.58889C6.58424 5.58889 6.42527 5.65474 6.30806 5.77195C6.19085 5.88916 6.125 6.04813 6.125 6.21389C6.125 6.37965 6.19085 6.53862 6.30806 6.65583C6.42527 6.77304 6.58424 6.83889 6.75 6.83889H7.25C7.41576 6.83889 7.57473 6.77304 7.69194 6.65583C7.80915 6.53862 7.875 6.37965 7.875 6.21389C7.875 6.04813 7.80915 5.88916 7.69194 5.77195C7.57473 5.65474 7.41576 5.58889 7.25 5.58889H6.75ZM9.375 6.21389C9.375 5.86889 9.655 5.58889 10 5.58889H10.5C10.6658 5.58889 10.8247 5.65474 10.9419 5.77195C11.0592 5.88916 11.125 6.04813 11.125 6.21389C11.125 6.37965 11.0592 6.53862 10.9419 6.65583C10.8247 6.77304 10.6658 6.83889 10.5 6.83889H10C9.83424 6.83889 9.67527 6.77304 9.55806 6.65583C9.44085 6.53862 9.375 6.37965 9.375 6.21389ZM6.75 8.58889C6.58424 8.58889 6.42527 8.65474 6.30806 8.77195C6.19085 8.88916 6.125 9.04813 6.125 9.21389C6.125 9.37965 6.19085 9.53862 6.30806 9.65583C6.42527 9.77304 6.58424 9.83889 6.75 9.83889H7.25C7.41576 9.83889 7.57473 9.77304 7.69194 9.65583C7.80915 9.53862 7.875 9.37965 7.875 9.21389C7.875 9.04813 7.80915 8.88916 7.69194 8.77195C7.57473 8.65474 7.41576 8.58889 7.25 8.58889H6.75Z" fill="#F3F7FE"/>
</g>
<defs>
<clipPath id="clip0_2747_2240">
<rect width="14" height="14" fill="white"/>
</clipPath>
</defs>
</svg>
