<svg width="14" height="14" viewBox="0 0 14 14" fill="none" xmlns="http://www.w3.org/2000/svg">
<g clip-path="url(#clip0_2747_2268)">
<path fill-rule="evenodd" clip-rule="evenodd" d="M6.60932 0.25H7.39332C7.68664 0.2506 7.97301 0.339421 8.21519 0.504918C8.45738 0.670416 8.64418 0.904937 8.75132 1.178L9.11032 2.09L10.2003 2.719L11.1663 2.572C11.4569 2.52825 11.7539 2.57306 12.0186 2.7006C12.2833 2.82815 12.5035 3.03249 12.6503 3.287L13.0413 3.963C13.1886 4.21741 13.2557 4.51036 13.2337 4.80351C13.2118 5.09666 13.1018 5.37636 12.9183 5.606L12.3083 6.369V7.631L12.9143 8.394C13.0973 8.62389 13.2069 8.90353 13.2289 9.19656C13.2508 9.48958 13.1841 9.78242 13.0373 10.037L12.6473 10.713C12.5004 10.9674 12.2802 11.1717 12.0155 11.2992C11.7508 11.4267 11.4539 11.4716 11.1633 11.428L10.1963 11.281L9.10532 11.911L8.74832 12.821C8.64134 13.0943 8.4546 13.329 8.21241 13.4947C7.97021 13.6604 7.68376 13.7493 7.39032 13.75H6.60732C6.31387 13.7493 6.02742 13.6604 5.78522 13.4947C5.54303 13.329 5.3563 13.0943 5.24932 12.821L4.89232 11.911L3.80132 11.281L2.83432 11.428C2.54386 11.4718 2.24693 11.4272 1.98222 11.2998C1.71752 11.1725 1.49732 10.9683 1.35032 10.714L0.960316 10.037C0.813026 9.78259 0.745966 9.48964 0.767912 9.19649C0.789858 8.90334 0.899788 8.62364 1.08332 8.394L1.69332 7.631V6.369L1.08332 5.606C0.899886 5.37634 0.789939 5.09672 0.767819 4.80363C0.745699 4.51054 0.812434 4.21759 0.959316 3.963L1.34932 3.287C1.49624 3.03232 1.71654 2.82785 1.98146 2.7003C2.24638 2.57275 2.5436 2.52803 2.83432 2.572L3.79832 2.719L4.89232 2.085L5.25132 1.178C5.35822 0.904779 5.54497 0.670105 5.7872 0.504572C6.02944 0.339039 6.31592 0.250326 6.60932 0.25ZM8.99632 7C8.99632 8.277 8.27732 8.996 7.00032 8.996C5.72332 8.996 5.00432 8.277 5.00432 7C5.00432 5.723 5.72332 5.004 7.00032 5.004C8.27732 5.004 8.99632 5.723 8.99632 7Z" fill="white"/>
</g>
<defs>
<clipPath id="clip0_2747_2268">
<rect width="14" height="14" fill="white"/>
</clipPath>
</defs>
</svg>
