<svg width="14" height="14" viewBox="0 0 14 14" fill="none" xmlns="http://www.w3.org/2000/svg">
<g clip-path="url(#clip0_2747_2229)">
<path fill-rule="evenodd" clip-rule="evenodd" d="M7.90694 1.26427C7.64605 1.0662 7.32749 0.958984 6.99994 0.958984C6.67238 0.958984 6.35383 1.0662 6.09294 1.26427L5.43294 1.76527C3.49372 3.2381 1.83243 5.04466 0.526938 7.10027L0.315938 7.43327C0.219947 7.58446 0.166319 7.75865 0.160656 7.93765C0.154994 8.11665 0.197505 8.29388 0.283748 8.45084C0.369991 8.60779 0.496801 8.7387 0.65093 8.8299C0.805059 8.9211 0.98085 8.96923 1.15994 8.96927H1.85094C1.81094 9.88927 1.86094 10.8103 2.00094 11.7213C2.14094 12.6273 2.92094 13.2953 3.83694 13.2953H10.1629C11.0799 13.2953 11.8589 12.6273 11.9979 11.7223C12.1379 10.8103 12.1879 9.88827 12.1479 8.96927H12.8399C13.019 8.96923 13.1948 8.9211 13.3489 8.8299C13.5031 8.7387 13.6299 8.60779 13.7161 8.45084C13.8024 8.29388 13.8449 8.11665 13.8392 7.93765C13.8336 7.75865 13.7799 7.58446 13.6839 7.43327L13.4729 7.10027C12.1674 5.04466 10.5062 3.2381 8.56694 1.76527L7.90694 1.26427Z" fill="#B0B9C2"/>
<path fill-rule="evenodd" clip-rule="evenodd" d="M8.25 13.296V10C8.25 9.66848 8.1183 9.35054 7.88388 9.11612C7.64946 8.8817 7.33152 8.75 7 8.75C6.66848 8.75 6.35054 8.8817 6.11612 9.11612C5.8817 9.35054 5.75 9.66848 5.75 10V13.296H8.25Z" fill="#F3F7FE"/>
</g>
<defs>
<clipPath id="clip0_2747_2229">
<rect width="14" height="14" fill="white"/>
</clipPath>
</defs>
</svg>
