<svg width="14" height="14" viewBox="0 0 14 14" fill="none" xmlns="http://www.w3.org/2000/svg">
<g clip-path="url(#clip0_2747_2290)">
<path d="M0.96 10.268C1.03941 10.9715 1.35481 11.6273 1.85476 12.1285C2.35472 12.6297 3.00973 12.9468 3.713 13.028C4.783 13.148 5.88 13.25 7 13.25C8.12 13.25 9.218 13.148 10.287 13.028C10.9903 12.9468 11.6453 12.6297 12.1452 12.1285C12.6452 11.6273 12.9606 10.9715 13.04 10.268C13.154 9.205 13.25 8.113 13.25 7C13.25 5.887 13.154 4.795 13.04 3.731C12.9606 3.02753 12.6452 2.37171 12.1452 1.87049C11.6453 1.36926 10.9903 1.0522 10.287 0.971C9.217 0.853 8.12 0.75 7 0.75C5.88 0.75 4.782 0.852 3.713 0.972C3.00973 1.0532 2.35472 1.37026 1.85476 1.87149C1.35481 2.37271 1.03941 3.02853 0.96 3.732C0.846 4.794 0.75 5.886 0.75 7C0.75 8.114 0.846 9.205 0.96 10.268Z" fill="white"/>
<path d="M0.802734 5.5H13.1987C13.1584 4.9093 13.1057 4.3195 13.0407 3.731C12.9613 3.02753 12.6459 2.37171 12.146 1.87049C11.646 1.36926 10.991 1.0522 10.2877 0.971C9.21773 0.853 8.12073 0.75 7.00073 0.75C5.88073 0.75 4.78273 0.852 3.71273 0.972C3.00965 1.05341 2.35486 1.37057 1.85511 1.87177C1.35536 2.37298 1.0401 3.02868 0.960734 3.732C0.897734 4.311 0.840734 4.901 0.802734 5.5Z" fill="#FEF8F3"/>
<path d="M0.96 10.268C1.03941 10.9715 1.35481 11.6273 1.85476 12.1285C2.35472 12.6297 3.00973 12.9468 3.713 13.028C4.783 13.148 5.88 13.25 7 13.25C8.12 13.25 9.218 13.148 10.287 13.028C10.9903 12.9468 11.6453 12.6297 12.1452 12.1285C12.6452 11.6273 12.9606 10.9715 13.04 10.268C13.154 9.205 13.25 8.113 13.25 7C13.25 5.887 13.154 4.795 13.04 3.731C12.9606 3.02753 12.6452 2.37171 12.1452 1.87049C11.6453 1.36926 10.9903 1.0522 10.287 0.971C9.217 0.853 8.12 0.75 7 0.75C5.88 0.75 4.782 0.852 3.713 0.972C3.00973 1.0532 2.35472 1.37026 1.85476 1.87149C1.35481 2.37271 1.03941 3.02853 0.96 3.732C0.846 4.794 0.75 5.886 0.75 7C0.75 8.114 0.846 9.205 0.96 10.268Z" fill="white" stroke="white" stroke-linecap="round" stroke-linejoin="round"/>
<path d="M4.98242 5.5V13.156Z" fill="black"/>
<path d="M4.98242 5.5V13.156" stroke="black" stroke-linecap="round" stroke-linejoin="round"/>
<path d="M0.839844 9H13.1628Z" fill="black"/>
<path d="M0.839844 9H13.1628" stroke="black" stroke-linecap="round" stroke-linejoin="round"/>
<path d="M13.1987 5.5H0.802734Z" fill="black"/>
<path d="M13.1987 5.5H0.802734" stroke="black" stroke-linecap="round" stroke-linejoin="round"/>
</g>
<defs>
<clipPath id="clip0_2747_2290">
<rect width="14" height="14" fill="white"/>
</clipPath>
</defs>
</svg>
