<svg width="14" height="14" viewBox="0 0 14 14" fill="none" xmlns="http://www.w3.org/2000/svg">
<g clip-path="url(#clip0_2927_5613)">
<path fill-rule="evenodd" clip-rule="evenodd" d="M2.00977 6.0119C2.00977 4.59528 2.40509 3.62976 3.01743 3.01743C3.62976 2.4051 4.59528 2.00977 6.01189 2.00977C7.4285 2.00977 8.39403 2.4051 9.00636 3.01743C9.61869 3.62976 10.014 4.59528 10.014 6.0119C10.014 7.42851 9.61869 8.39403 9.00636 9.00636C8.39403 9.61869 7.4285 10.0141 6.01189 10.0141C4.59528 10.0141 3.62976 9.61869 3.01743 9.00636C2.40509 8.39403 2.00977 7.42851 2.00977 6.0119ZM6.01189 0.00976562C4.22714 0.00976562 2.6916 0.514821 1.60321 1.60322C0.514821 2.69161 0.00976562 4.22715 0.00976562 6.0119C0.00976562 7.79665 0.514821 9.33219 1.60321 10.4206C2.6916 11.509 4.22714 12.0141 6.01189 12.0141C7.40439 12.0141 8.64518 11.7066 9.64025 11.0545L12.2776 13.6921C12.6682 14.0826 13.3013 14.0826 13.6919 13.6921C14.0824 13.3016 14.0824 12.6684 13.6919 12.2779L11.0545 9.64029C11.7066 8.64521 12.014 7.40441 12.014 6.0119C12.014 4.22715 11.509 2.69161 10.4206 1.60322C9.33218 0.514821 7.79664 0.00976562 6.01189 0.00976562Z" fill="white"/>
</g>
<defs>
<clipPath id="clip0_2927_5613">
<rect width="14" height="14" fill="white"/>
</clipPath>
</defs>
</svg>
