<svg width="24" height="24" viewBox="0 0 24 24" fill="none" xmlns="http://www.w3.org/2000/svg">
<path d="M1.58151 18.0878C1.86599 20.5312 3.92896 22.4711 6.47997 22.5894C8.2432 22.6711 10.0444 22.7137 11.9993 22.7137C13.9542 22.7137 15.7553 22.6711 17.5186 22.5894C20.0696 22.4711 22.1326 20.5312 22.417 18.0878C22.8121 14.6944 22.8121 11.8045 22.417 8.41092C22.1326 5.96761 20.0696 4.02768 17.5186 3.90941C15.7554 3.82765 13.9542 3.78516 11.9993 3.78516C10.0444 3.78516 8.2432 3.82765 6.47997 3.90941C3.92896 4.02768 1.86599 5.96761 1.58151 8.41092C1.18637 11.8045 1.18637 14.6944 1.58151 18.0878Z" stroke="black" stroke-width="1.5" stroke-linecap="round" stroke-linejoin="round"/>
<path d="M7.28906 1.28516V5.99944" stroke="black" stroke-width="1.5" stroke-linecap="round" stroke-linejoin="round"/>
<path d="M16.7109 1.28516V5.99944" stroke="black" stroke-width="1.5" stroke-linecap="round" stroke-linejoin="round"/>
<path d="M8.19531 15.1529L10.9616 18.0056C12.2632 14.2664 13.3473 12.6256 15.8025 10.3984" stroke="black" stroke-width="1.5" stroke-linecap="round" stroke-linejoin="round"/>
</svg>
