<svg width="15" height="13" viewBox="0 0 15 13" fill="none" xmlns="http://www.w3.org/2000/svg">
<path d="M4.34712 2.8542L4.96648 1.64566C5.1101 1.36542 5.3771 1.16691 5.68913 1.12445C6.90852 0.958517 8.09155 0.958517 9.31094 1.12445C9.62296 1.16691 9.88996 1.36542 10.0336 1.64566L10.653 2.85421C11.0073 2.88156 11.3586 2.91068 11.7069 2.93953C11.7568 2.94367 11.8066 2.9478 11.8564 2.95192C12.8125 3.03104 13.5994 3.74282 13.7413 4.66103C13.8764 5.53504 14 6.43587 14 7.35627C14 8.27667 13.8764 9.1775 13.7413 10.0515C13.5994 10.9697 12.8125 11.6815 11.8564 11.7606C11.8066 11.7647 11.7568 11.7689 11.7068 11.773C10.3482 11.8856 8.94118 12.0022 7.5 12.0022C6.05882 12.0022 4.65186 11.8856 3.29318 11.773C3.24326 11.7689 3.19341 11.7647 3.14363 11.7606C2.18748 11.6815 1.40063 10.9697 1.25872 10.0515C1.12363 9.1775 1 8.27668 1 7.35627C1 6.43587 1.12363 5.53504 1.25872 4.66103C1.40063 3.74282 2.18748 3.03104 3.14363 2.95192C3.1934 2.9478 3.24324 2.94367 3.29314 2.93953C3.64137 2.91068 3.99278 2.88155 4.34712 2.8542Z" stroke="black" stroke-linecap="round" stroke-linejoin="round"/>
<path d="M7.5 9.40234C8.94 9.40234 9.75 8.59234 9.75 7.15234C9.75 5.71234 8.94 4.90234 7.5 4.90234C6.06 4.90234 5.25 5.71234 5.25 7.15234C5.25 8.59234 6.06 9.40234 7.5 9.40234Z" stroke="black" stroke-linecap="round" stroke-linejoin="round"/>
</svg>
