<svg width="14" height="14" viewBox="0 0 14 14" fill="none" xmlns="http://www.w3.org/2000/svg">
<path d="M8.77213 4.66097C8.83141 5.21507 9.27707 5.66073 9.8309 5.72246C10.2423 5.76831 10.6646 5.80769 11.0952 5.80769C11.5259 5.80769 11.9482 5.76831 12.3596 5.72246C12.9134 5.66073 13.3591 5.21507 13.4184 4.66097C13.4621 4.25193 13.4991 3.83198 13.4991 3.40385C13.4991 2.97571 13.4621 2.55576 13.4184 2.14672C13.3591 1.59262 12.9134 1.14697 12.3596 1.08523C11.9482 1.03938 11.5259 1 11.0952 1C10.6646 1 10.2423 1.03938 9.8309 1.08523C9.27707 1.14697 8.83141 1.59262 8.77213 2.14672C8.72837 2.55576 8.69141 2.97571 8.69141 3.40385C8.69141 3.83198 8.72837 4.25193 8.77213 4.66097Z" stroke="#999AAF" stroke-linecap="round" stroke-linejoin="round"/>
<path d="M1.08072 4.66097C1.14 5.21507 1.58566 5.66073 2.13948 5.72246C2.55085 5.76831 2.97322 5.80769 3.40385 5.80769C3.83448 5.80769 4.25685 5.76831 4.66821 5.72246C5.22204 5.66073 5.66769 5.21507 5.72698 4.66097C5.77074 4.25193 5.80769 3.83198 5.80769 3.40385C5.80769 2.97571 5.77074 2.55576 5.72698 2.14672C5.66769 1.59262 5.22204 1.14697 4.66821 1.08523C4.25685 1.03938 3.83448 1 3.40385 1C2.97322 1 2.55085 1.03938 2.13948 1.08523C1.58566 1.14697 1.14 1.59262 1.08072 2.14672C1.03695 2.55576 1 2.97571 1 3.40385C1 3.83198 1.03695 4.25193 1.08072 4.66097Z" stroke="#999AAF" stroke-linecap="round" stroke-linejoin="round"/>
<path d="M1.08072 12.3524C1.14 12.9065 1.58566 13.3521 2.13948 13.4139C2.55085 13.4597 2.97322 13.4991 3.40385 13.4991C3.83448 13.4991 4.25685 13.4597 4.66821 13.4139C5.22204 13.3521 5.66769 12.9065 5.72698 12.3524C5.77074 11.9434 5.80769 11.5234 5.80769 11.0953C5.80769 10.6671 5.77074 10.2472 5.72698 9.83813C5.66769 9.28404 5.22204 8.83838 4.66821 8.77665C4.25685 8.73079 3.83448 8.69141 3.40385 8.69141C2.97322 8.69141 2.55085 8.73079 2.13948 8.77665C1.58566 8.83838 1.14 9.28404 1.08072 9.83813C1.03695 10.2472 1 10.6671 1 11.0953C1 11.5234 1.03695 11.9434 1.08072 12.3524Z" stroke="#999AAF" stroke-linecap="round" stroke-linejoin="round"/>
<path d="M8.77213 12.3524C8.83141 12.9065 9.27707 13.3521 9.8309 13.4139C10.2423 13.4597 10.6646 13.4991 11.0952 13.4991C11.5259 13.4991 11.9482 13.4597 12.3596 13.4139C12.9134 13.3521 13.3591 12.9065 13.4184 12.3524C13.4621 11.9434 13.4991 11.5234 13.4991 11.0953C13.4991 10.6671 13.4621 10.2472 13.4184 9.83813C13.3591 9.28404 12.9134 8.83838 12.3596 8.77665C11.9482 8.73079 11.5259 8.69141 11.0952 8.69141C10.6646 8.69141 10.2423 8.73079 9.8309 8.77665C9.27707 8.83838 8.83141 9.28404 8.77213 9.83813C8.72837 10.2472 8.69141 10.6671 8.69141 11.0953C8.69141 11.5234 8.72837 11.9434 8.77213 12.3524Z" stroke="#999AAF" stroke-linecap="round" stroke-linejoin="round"/>
</svg>
