<svg width="60" height="65" viewBox="0 0 60 65" fill="none" xmlns="http://www.w3.org/2000/svg">
<path fill-rule="evenodd" clip-rule="evenodd" d="M30 1.5635e-08C23.16 1.5635e-08 17.63 0.205 11.905 0.6C8.97232 0.7992 6.21206 2.05786 4.13861 4.14143C2.06516 6.225 0.819951 8.99135 0.63503 11.925C0.20884 18.775 -0.00292973 25.6367 3.06092e-05 32.5C3.06092e-05 39.55 0.220031 46.43 0.63503 53.075C0.819951 56.0086 2.06516 58.775 4.13861 60.8586C6.21206 62.9421 8.97232 64.2008 11.905 64.4C17.63 64.795 23.155 65 30 65C36.84 65 42.37 64.795 48.095 64.4C51.0277 64.2008 53.788 62.9421 55.8614 60.8586C57.9349 58.775 59.1801 56.0086 59.365 53.075C59.9694 43.4042 60.1462 33.7114 59.895 24.025C59.8379 21.5632 59.0283 19.1779 57.575 17.19C53.055 11.035 49.395 7.135 43.415 2.52C41.3985 0.974884 38.9401 0.116275 36.4 0.07C34.267 0.0233127 32.1336 -2.20505e-05 30 1.5635e-08Z" fill="#B2DFDB"/>
<path fill-rule="evenodd" clip-rule="evenodd" d="M25.0993 19.131C25.431 18.8763 25.7082 18.5576 25.9145 18.1939C26.1208 17.8301 26.2519 17.4286 26.3002 17.0132C26.3485 16.5979 26.313 16.177 26.1956 15.7756C26.0783 15.3742 25.8816 15.0005 25.6172 14.6765C25.3528 14.3525 25.0261 14.0849 24.6563 13.8895C24.2866 13.6941 23.8814 13.5749 23.4648 13.5389C23.0481 13.503 22.6285 13.551 22.2308 13.6802C21.8331 13.8094 21.4653 14.0171 21.1493 14.291C18.9843 16.061 17.2843 17.711 15.8343 19.751C15.1432 20.7311 14.5249 21.7605 13.9843 22.831L12.5993 21.551C11.9862 21.0278 11.1946 20.7617 10.39 20.8083C9.58534 20.855 8.82982 21.2107 8.28125 21.8012C7.73269 22.3917 7.43349 23.1714 7.44617 23.9773C7.45885 24.7832 7.78243 25.553 8.3493 26.126L12.9443 30.406C13.3184 30.7541 13.7722 31.0051 14.2659 31.1371C14.7596 31.2691 15.2782 31.278 15.7761 31.163C16.2741 31.048 16.7362 30.8127 17.122 30.4776C17.5079 30.1425 17.8057 29.7179 17.9893 29.241C19.0243 26.556 19.9043 24.806 20.9243 23.371C21.9343 21.951 23.1743 20.701 25.0993 19.131ZM25.0993 39.306C25.431 39.0513 25.7082 38.7326 25.9145 38.3689C26.1208 38.0051 26.2519 37.6036 26.3002 37.1882C26.3485 36.7729 26.313 36.352 26.1956 35.9506C26.0783 35.5492 25.8816 35.1755 25.6172 34.8515C25.3528 34.5275 25.0261 34.2599 24.6563 34.0645C24.2866 33.8691 23.8814 33.7499 23.4648 33.7139C23.0481 33.678 22.6285 33.726 22.2308 33.8552C21.8331 33.9844 21.4653 34.1921 21.1493 34.466C18.9843 36.236 17.2843 37.886 15.8343 39.931C15.1434 40.9095 14.5251 41.9372 13.9843 43.006L12.6043 41.726C12.3079 41.4264 11.9539 41.1898 11.5637 41.0306C11.1735 40.8713 10.7551 40.7926 10.3336 40.7992C9.91223 40.8059 9.49651 40.8977 9.1115 41.0691C8.72648 41.2406 8.38013 41.4882 8.09328 41.797C7.80643 42.1057 7.585 42.4694 7.44232 42.866C7.29964 43.2625 7.23866 43.6839 7.26305 44.1046C7.28743 44.5254 7.39668 44.9369 7.58421 45.3143C7.77175 45.6918 8.0337 46.0274 8.3543 46.301L12.9493 50.581C13.3234 50.9291 13.7772 51.1801 14.2709 51.3121C14.7646 51.4441 15.2832 51.453 15.7811 51.338C16.2791 51.223 16.7412 50.9877 17.127 50.6526C17.5129 50.3175 17.8107 49.8929 17.9943 49.416C19.0293 46.731 19.9093 44.986 20.9293 43.551C21.9393 42.126 23.1793 40.876 25.1043 39.301L25.0993 39.306ZM32.2393 24.916C32.2393 23.191 33.6393 21.791 35.3643 21.791H47.8643C48.6931 21.791 49.488 22.1202 50.074 22.7063C50.6601 23.2923 50.9893 24.0872 50.9893 24.916C50.9893 25.7448 50.6601 26.5396 50.074 27.1257C49.488 27.7117 48.6931 28.041 47.8643 28.041H35.3643C34.5355 28.041 33.7406 27.7117 33.1546 27.1257C32.5685 26.5396 32.2393 25.7448 32.2393 24.916ZM35.3643 43.066C34.5355 43.066 33.7406 43.3952 33.1546 43.9813C32.5685 44.5673 32.2393 45.3622 32.2393 46.191C32.2393 47.0198 32.5685 47.8146 33.1546 48.4007C33.7406 48.9867 34.5355 49.316 35.3643 49.316H47.8643C48.6931 49.316 49.488 48.9867 50.074 48.4007C50.6601 47.8146 50.9893 47.0198 50.9893 46.191C50.9893 45.3622 50.6601 44.5673 50.074 43.9813C49.488 43.3952 48.6931 43.066 47.8643 43.066H35.3643Z" fill="#80CBC4"/>
</svg>
