<svg width="45" height="45" viewBox="0 0 45 45" fill="none" xmlns="http://www.w3.org/2000/svg">
<path d="M31.271 14.3694C26.8162 14.3694 23.205 17.9807 23.205 22.4354C23.205 26.8902 26.8162 30.5014 31.271 30.5014C32.092 30.5014 32.7188 31.4884 32.1171 32.0468C29.7784 34.2163 26.6466 35.5427 23.205 35.5427C15.966 35.5427 10.0977 29.6744 10.0977 22.4354C10.0977 15.1965 15.966 9.32812 23.205 9.32812C26.6466 9.32812 29.7784 10.6546 32.1171 12.8241C32.7188 13.3824 32.092 14.3694 31.271 14.3694Z" stroke="black" stroke-width="2.5" stroke-linecap="round" stroke-linejoin="round"/>
<path d="M22.5 43C35.62 43 43 35.62 43 22.5C43 9.38 35.62 2 22.5 2C9.38 2 2 9.38 2 22.5C2 35.62 9.38 43 22.5 43Z" stroke="black" stroke-width="2.5" stroke-linecap="round" stroke-linejoin="round"/>
</svg>
