<svg xmlns="http://www.w3.org/2000/svg" viewBox="0 0 24 24" fill="#000000" aria-hidden="true" id="Chevron-Up-Down--Streamline-Heroicons.svg"><desc>Chevron Up Down Streamline Icon: https://streamlinehq.com</desc><path fill-rule="evenodd" d="M11.47 4.72a0.75 0.75 0 0 1 1.06 0l3.75 3.75a0.75 0.75 0 0 1 -1.06 1.06L12 6.31 8.78 9.53a0.75 0.75 0 0 1 -1.06 -1.06l3.75 -3.75Zm-3.75 9.75a0.75 0.75 0 0 1 1.06 0L12 17.69l3.22 -3.22a0.75 0.75 0 1 1 1.06 1.06l-3.75 3.75a0.75 0.75 0 0 1 -1.06 0l-3.75 -3.75a0.75 0.75 0 0 1 0 -1.06Z" clip-rule="evenodd" stroke-width="1"></path></svg>