<svg width="14" height="14" viewBox="0 0 14 14" fill="none" xmlns="http://www.w3.org/2000/svg">
<path d="M4.1938 11.5484C4.29494 12.4608 5.02543 13.191 5.93739 13.2959C6.84891 13.4008 7.78905 13.5 8.75 13.5C9.71095 13.5 10.6511 13.4008 11.5626 13.2959C12.4746 13.191 13.2051 12.4608 13.3062 11.5484C13.4067 10.6415 13.5 9.70608 13.5 8.75001C13.5 7.79395 13.4067 6.85855 13.3062 5.95156C13.2051 5.03917 12.4746 4.30895 11.5626 4.20407C10.6511 4.09924 9.71095 4 8.75 4C7.78905 4 6.84891 4.09924 5.93739 4.20407C5.02543 4.30895 4.29494 5.03917 4.1938 5.95155C4.09326 6.85854 4 7.79394 4 8.75001C4 9.70608 4.09326 10.6415 4.1938 11.5484Z" stroke="black" stroke-linecap="round" stroke-linejoin="round"/>
<path d="M1.78353 9.74672C1.46215 9.43461 1.24556 9.0154 1.1938 8.54847C1.09326 7.64148 1 6.70608 1 5.75001C1 4.79395 1.09326 3.85854 1.1938 2.95155C1.29494 2.03917 2.02543 1.30895 2.93739 1.20407C3.84891 1.09924 4.78905 1 5.75 1C6.71095 1 7.65109 1.09924 8.56261 1.20407C8.97705 1.25173 9.354 1.42854 9.65145 1.6929" stroke="black" stroke-linecap="round" stroke-linejoin="round"/>
<path d="M5.93642 13.2961C5.02445 13.1912 4.29397 12.461 4.19283 11.5486C4.14629 11.1288 4.1013 10.7029 4.06641 10.2716C4.8188 9.31589 5.70075 8.58203 6.60239 8.58203C8.43087 8.58203 10.1784 11.6001 10.9284 13.3664C10.2167 13.4413 9.48904 13.5002 8.74902 13.5002C7.78807 13.5002 6.84793 13.401 5.93642 13.2961Z" stroke="black" stroke-linecap="round" stroke-linejoin="round"/>
<path d="M10.5 8.33203C11.22 8.33203 11.625 7.92703 11.625 7.20703C11.625 6.48703 11.22 6.08203 10.5 6.08203C9.78 6.08203 9.375 6.48703 9.375 7.20703C9.375 7.92703 9.78 8.33203 10.5 8.33203Z" stroke="black" stroke-linecap="round" stroke-linejoin="round"/>
</svg>
