<svg width="24" height="24" viewBox="0 0 24 24" fill="none" xmlns="http://www.w3.org/2000/svg">
<path d="M9 14.5H13M9 9.5H17M5 6H2.5M5 12H2.5M5 18H2.5M4 10C4 6.229 4 4.343 5.172 3.172C6.344 2.001 8.229 2 12 2H13.5C17.271 2 19.157 2 20.328 3.172C21.499 4.344 21.5 6.229 21.5 10V14C21.5 17.771 21.5 19.657 20.328 20.828C19.156 21.999 17.271 22 13.5 22H12C8.229 22 6.343 22 5.172 20.828C4.001 19.656 4 17.771 4 14V10Z" stroke="#B0B9C2" stroke-width="1.6" stroke-linecap="round" stroke-linejoin="round"/>
</svg>
