<svg width="14" height="14" viewBox="0 0 14 14" fill="none" xmlns="http://www.w3.org/2000/svg">
<g clip-path="url(#clip0_2755_2299)">
<path fill-rule="evenodd" clip-rule="evenodd" d="M11.844 4.44711C11.817 3.53881 11.7756 2.65881 11.7205 1.76701C11.7123 1.63371 11.6869 1.50491 11.6465 1.38281H12.46C12.665 1.38281 12.8524 1.49861 12.944 1.68191L12.9853 1.76431C13.3373 2.46851 13.4259 3.27531 13.2349 4.03911C13.175 4.27891 12.9596 4.44711 12.7124 4.44711H11.844ZM11.8679 8.53271C11.8765 8.03611 11.8809 7.52741 11.8809 7.00061C11.8809 6.47381 11.8765 5.96511 11.8679 5.46851H12.7124C12.9596 5.46851 13.175 5.63671 13.2349 5.87641C13.4259 6.64021 13.3373 7.44711 12.9852 8.15121L12.944 8.23361C12.8523 8.41691 12.665 8.53271 12.46 8.53271H11.8679Z" fill="white"/>
<path fill-rule="evenodd" clip-rule="evenodd" d="M0.667969 7.00063C0.667969 8.88573 0.723669 10.5388 0.828269 12.2341C0.873869 12.9719 1.44517 13.5732 2.18527 13.6473C5.02687 13.9317 7.52127 13.9317 10.363 13.6473C11.1031 13.5732 11.6744 12.9719 11.7199 12.2341C11.8245 10.5388 11.8802 8.88573 11.8802 7.00063C11.8802 5.11553 11.8245 3.46242 11.7199 1.76702C11.6744 1.02933 11.1031 0.428025 10.363 0.353925C7.52127 0.069525 5.02687 0.069525 2.18527 0.353925C1.44517 0.428025 0.873869 1.02933 0.828269 1.76702C0.723669 3.46242 0.667969 5.11543 0.667969 7.00063Z" fill="white"/>
<path fill-rule="evenodd" clip-rule="evenodd" d="M4.80656 3.10938C4.24246 3.10938 3.78516 3.56668 3.78516 4.13078V4.78357C3.78516 5.34767 4.24246 5.80497 4.80656 5.80497H7.74236C8.30646 5.80497 8.76376 5.34767 8.76376 4.78357V4.13078C8.76376 3.56668 8.30646 3.10938 7.74236 3.10938H4.80656Z" fill="black"/>
</g>
<defs>
<clipPath id="clip0_2755_2299">
<rect width="14" height="14" fill="white"/>
</clipPath>
</defs>
</svg>
