<svg width="11" height="14" viewBox="0 0 11 14" fill="none" xmlns="http://www.w3.org/2000/svg">
<path fill-rule="evenodd" clip-rule="evenodd" d="M4.12531 1.24643C3.6921 1.24637 3.26448 1.3442 2.87439 1.53261C2.4843 1.72101 2.14183 1.99512 1.87257 2.33446C1.6033 2.6738 1.41421 3.0696 1.31941 3.49227C1.22461 3.91495 1.22655 4.35358 1.3251 4.7754C1.36263 4.93692 1.33446 5.10673 1.24678 5.24747C1.20336 5.31716 1.14665 5.37762 1.07987 5.42539C1.01308 5.47316 0.937546 5.50732 0.857565 5.5259C0.696036 5.56343 0.526214 5.53525 0.385457 5.44758C0.2447 5.35991 0.144539 5.21992 0.107008 5.0584C-0.0335375 4.45347 -0.0356644 3.82461 0.100786 3.21874C0.237237 2.61287 0.508743 2.04563 0.895049 1.55933C1.28136 1.07303 1.77249 0.680232 2.33182 0.410232C2.89114 0.140231 3.50422 0 4.12531 0C4.74641 0 5.35949 0.140231 5.91881 0.410232C6.47814 0.680232 6.96927 1.07303 7.35558 1.55933C7.74189 2.04563 8.01339 2.61287 8.14984 3.21874C8.28629 3.82461 8.28417 4.45347 8.14362 5.0584C8.12504 5.13838 8.09088 5.21391 8.04311 5.28068C7.99533 5.34746 7.93487 5.40417 7.86517 5.44758C7.72441 5.53525 7.55459 5.56343 7.39306 5.5259C7.23153 5.48837 7.09153 5.38822 7.00385 5.24747C6.91617 5.10673 6.888 4.93692 6.92553 4.7754C7.02425 4.35351 7.02633 3.91477 6.93161 3.49197C6.83689 3.06916 6.64782 2.67323 6.37854 2.33377C6.10926 1.99431 5.76673 1.72011 5.37655 1.53164C4.98637 1.34318 4.55863 1.24634 4.12531 1.24643Z" fill="#EAB64F"/>
<path d="M5.40457 7.37106V4.12109C5.40457 3.78957 5.27286 3.47163 5.03843 3.23721C4.80399 3.00279 4.48602 2.87109 4.15447 2.87109C3.82293 2.87109 3.50496 3.00279 3.27052 3.23721C3.03609 3.47163 2.90438 3.78957 2.90438 4.12109V8.87105L2.19732 9.16805C0.756215 9.77405 0.537199 11.725 1.8063 12.636L2.47935 13.12C3.15945 13.6079 3.97548 13.8703 4.81252 13.87H8.14478C8.70082 13.87 9.25086 13.645 9.50588 13.15C9.86791 12.452 10.0899 11.577 10.0899 10.937C10.0899 9.18705 9.01784 7.11706 5.40457 7.37106Z" fill="#FFDD9A"/>
</svg>
