<svg width="16" height="16" viewBox="0 0 16 16" fill="none" xmlns="http://www.w3.org/2000/svg">
<path fill-rule="evenodd" clip-rule="evenodd" d="M7.90053 11.3142L14.129 5.57147C15.1642 4.61692 15.0842 2.92717 13.9523 1.84364C12.8472 0.785613 11.1616 0.712909 10.1875 1.68124L4.12891 7.70345C4.12891 7.70345 5.471 8.22344 6.41419 9.12638C7.35737 10.0293 7.90053 11.3142 7.90053 11.3142Z" stroke="black" stroke-linecap="round" stroke-linejoin="round"/>
<path d="M3.83956 12.3361L7.89664 11.3191C7.89664 11.3191 7.35469 10.0338 6.41236 9.13002C5.47003 8.22625 4.12843 7.70508 4.12843 7.70508L3.06266 11.5729C2.94278 12.008 3.3912 12.4484 3.83956 12.3361Z" stroke="black" stroke-linecap="round" stroke-linejoin="round"/>
<path d="M14.7258 14.9991C10.0883 14.6826 5.49289 14.6826 0.855469 14.9991" stroke="black" stroke-linecap="round" stroke-linejoin="round"/>
</svg>
