<svg width="14" height="14" viewBox="0 0 14 14" fill="none" xmlns="http://www.w3.org/2000/svg">
<path d="M1.255 10.9322C1.38808 12.1327 2.34924 13.0935 3.54919 13.2315C4.74855 13.3694 5.98557 13.5 7.24998 13.5C8.51439 13.5 9.75141 13.3694 10.9508 13.2315C12.1507 13.0935 13.1119 12.1327 13.245 10.9322C13.3773 9.73877 13.5 8.50798 13.5 7.25C13.5 5.99202 13.3773 4.76123 13.245 3.56783C13.1119 2.36732 12.1507 1.40651 10.9508 1.26852C9.75141 1.13058 8.51439 1 7.24998 1C5.98557 1 4.74855 1.13058 3.54919 1.26852C2.34924 1.40651 1.38808 2.36732 1.255 3.56783C1.12271 4.76123 1 5.99202 1 7.25C1 8.50798 1.12271 9.73877 1.255 10.9322Z" stroke="black" stroke-linecap="round" stroke-linejoin="round"/>
<path d="M3.55036 13.2301C2.35041 13.0921 1.38925 12.1313 1.25617 10.9308C1.19494 10.3784 1.13575 9.81797 1.08984 9.25056C2.07982 7.99296 3.2403 7.02734 4.42668 7.02734C6.83256 7.02734 9.13194 10.9984 10.1189 13.3226C9.18234 13.4212 8.22486 13.4986 7.25115 13.4986C5.98674 13.4986 4.74972 13.368 3.55036 13.2301Z" stroke="black" stroke-linecap="round" stroke-linejoin="round"/>
<path d="M9.55447 6.6988C10.5018 6.6988 11.0347 6.16591 11.0347 5.21854C11.0347 4.27118 10.5018 3.73828 9.55447 3.73828C8.60711 3.73828 8.07422 4.27118 8.07422 5.21854C8.07422 6.16591 8.60711 6.6988 9.55447 6.6988Z" stroke="black" stroke-linecap="round" stroke-linejoin="round"/>
</svg>
