<svg width="14" height="14" viewBox="0 0 14 14" fill="none" xmlns="http://www.w3.org/2000/svg">
<g clip-path="url(#clip0_1159_4)">
<path fill-rule="evenodd" clip-rule="evenodd" d="M7.585 0C8.805 0 10.125 0.108 11.32 0.243C12.37 0.362 13.193 1.193 13.307 2.241C13.437 3.428 13.545 4.748 13.545 5.96C13.545 6.936 13.475 7.982 13.38 8.97L13.989 11.769C14.0069 11.8516 14.0035 11.9375 13.9792 12.0185C13.9549 12.0994 13.9104 12.1729 13.85 12.2321C13.7896 12.2912 13.7151 12.3341 13.6336 12.3566C13.5521 12.3792 13.4662 12.3807 13.384 12.361L10.77 11.739C9.729 11.844 8.62 11.92 7.585 11.92C6.366 11.92 5.045 11.815 3.849 11.68C3.33997 11.6227 2.86566 11.3937 2.50427 11.0306C2.14288 10.6676 1.91599 10.1923 1.861 9.683C1.732 8.494 1.625 7.173 1.625 5.96C1.625 4.748 1.732 3.428 1.861 2.242C1.91587 1.73264 2.14255 1.25716 2.50371 0.893814C2.86487 0.530473 3.33898 0.300938 3.848 0.243C5.044 0.108 6.366 0 7.585 0Z" fill="#A1887F"/>
<path fill-rule="evenodd" clip-rule="evenodd" d="M4.82685 4.67969C5.72585 4.67969 6.69885 4.75969 7.57485 4.85869C7.9774 4.90428 8.35242 5.0856 8.63815 5.37279C8.92389 5.65998 9.1033 6.03592 9.14685 6.43869C9.24185 7.30869 9.32085 8.27969 9.32085 9.17369C9.32085 10.0667 9.24085 11.0397 9.14685 11.9107C9.10348 12.3135 8.92412 12.6896 8.63835 12.9768C8.35258 13.264 7.97747 13.4453 7.57485 13.4907C6.69785 13.5897 5.72485 13.6667 4.82685 13.6667C4.30385 13.6667 3.75685 13.6407 3.21885 13.5997L0.573852 13.9947C0.496919 14.0062 0.418366 13.9996 0.344441 13.9754C0.270515 13.9512 0.203256 13.91 0.14801 13.8553C0.0927652 13.8005 0.0510582 13.7336 0.026206 13.6599C0.00135378 13.5862 -0.00595814 13.5077 0.00485165 13.4307L0.393852 10.6707C0.3559 10.1726 0.335887 9.67325 0.333852 9.17369C0.333852 8.27969 0.412852 7.30869 0.507852 6.43869C0.551791 6.03616 0.731357 5.66056 1.01704 5.3736C1.30272 5.08665 1.67752 4.90541 2.07985 4.85969C2.95585 4.75969 3.92785 4.67969 4.82685 4.67969Z" fill="#E7E0DD"/>
</g>
<defs>
<clipPath id="clip0_1159_4">
<rect width="14" height="14" fill="white"/>
</clipPath>
</defs>
</svg>
