<svg viewBox="0 0 48 48" xmlns="http://www.w3.org/2000/svg" id="Japan--Streamline-Emoji.svg"><desc>Japan Streamline Emoji: https://streamlinehq.com</desc><path d="M45.952 8.5814H39.3455C34.1297 8.5953 28.9465 7.7585 24 6.1039C19.0715 4.4485 13.9059 3.6081 8.7068 3.616H2.048C1.4417 3.616 1.0027 3.9819 1.0027 4.4418V31.6205C1.0829 32.126 1.5377 32.4853 2.048 32.4463H8.7068C13.9055 32.4435 19.0702 33.2837 24 34.9342C28.9347 36.5939 34.1078 37.4343 39.3141 37.4221H45.952C46.4639 37.4664 46.9219 37.1046 46.9973 36.5963V9.3654C46.8983 8.8766 46.4489 8.5396 45.952 8.5814Z" fill="#ffffff" stroke="#45413c" stroke-linecap="round" stroke-linejoin="round" stroke-width="1"></path><path d="M16.0495 23.375C18.5604 30.3907 26.7814 32.3953 30.8472 26.9829C32.7341 24.471 33.1788 20.9182 32.0134 17.6622C29.5025 10.6465 21.2815 8.6419 17.2158 14.0543C15.3289 16.5662 14.8842 20.119 16.0495 23.375Z" fill="#e04122" stroke="#45413c" stroke-linecap="round" stroke-linejoin="round" stroke-width="1"></path><path d="M11.9787 43.3387C11.9787 44.5457 21.9964 45.3001 30.0107 44.6966C33.7301 44.4165 36.0213 43.8989 36.0213 43.3387C36.0213 42.1316 26.0036 41.3772 17.9893 41.9808C14.2699 42.2609 11.9787 42.7785 11.9787 43.3387Z" fill="#45413c" opacity=".15" stroke-width="1"></path></svg>