<svg viewBox="0 0 48 48" xmlns="http://www.w3.org/2000/svg" id="South-Korea--Streamline-Emoji.svg"><desc>South Korea Streamline Emoji: https://streamlinehq.com</desc><path d="M45.952 8.5814H39.3455C34.1297 8.5953 28.9465 7.7585 24 6.1039C19.0715 4.4485 13.9059 3.6081 8.7068 3.616H2.048C1.4417 3.616 1.0027 3.9819 1.0027 4.4418V31.6205C1.0829 32.126 1.5377 32.4853 2.048 32.4463H8.7068C13.9055 32.4435 19.0702 33.2837 24 34.9342C28.9347 36.5939 34.1078 37.4343 39.3141 37.4221H45.952C46.4639 37.4664 46.9219 37.1046 46.9973 36.5963V9.3654C46.8983 8.8766 46.4489 8.5396 45.952 8.5814Z" fill="#ffffff" stroke="#45413c" stroke-linecap="round" stroke-linejoin="round" stroke-width="1"></path><path d="M15.4116 22.3685C17.1299 29.9001 24.9305 33.0743 29.4527 28.0821C31.554 25.7624 32.3549 22.1764 31.553 18.6776C29.8347 11.146 22.0341 7.9718 17.5118 12.9641C15.4106 15.2837 14.6097 18.8698 15.4116 22.3685Z" fill="#ff6242" stroke="#45413c" stroke-linecap="round" stroke-linejoin="round" stroke-width="1"></path><path d="M31.7355 22.9547C31.237 21.3911 30.0332 20.1524 28.4845 19.6096C24.5749 18.3657 23.0174 24.46 18.6897 23.1429C17.0618 22.6704 15.7451 21.4695 15.1251 19.8919C15.2192 25.2858 18.9197 29.9793 23.4878 30.4393C27.6482 30.847 31.0874 27.596 31.7355 22.9547Z" fill="#009fd9" stroke="#45413c" stroke-linecap="round" stroke-linejoin="round" stroke-width="1"></path><path d="M8.1214 11.3097L11.9055 6.1771" fill="none" stroke="#45413c" stroke-linejoin="round" stroke-width="1"></path><path d="M9.543 12.3655L13.3376 7.2329" fill="none" stroke="#45413c" stroke-linejoin="round" stroke-width="1"></path><path d="M10.9752 13.4213L14.7697 8.2887" fill="none" stroke="#45413c" stroke-linejoin="round" stroke-width="1"></path><path d="M11.111 22.7456L13.3794 28.704" fill="none" stroke="#45413c" stroke-linejoin="round" stroke-width="1"></path><path d="M9.449 23.3728L10.3793 25.8189" fill="none" stroke="#45413c" stroke-linejoin="round" stroke-width="1"></path><path d="M10.7974 26.8956L11.7173 29.3417" fill="none" stroke="#45413c" stroke-linejoin="round" stroke-width="1"></path><path d="M7.7973 24.0105L10.0657 29.9689" fill="none" stroke="#45413c" stroke-linejoin="round" stroke-width="1"></path><path d="M37.5475 10.902L38.457 13.4526" fill="none" stroke="#45413c" stroke-linejoin="round" stroke-width="1"></path><path d="M38.7706 14.3516L39.6905 16.9127" fill="none" stroke="#45413c" stroke-linejoin="round" stroke-width="1"></path><path d="M35.875 11.4978L38.0179 17.5085" fill="none" stroke="#45413c" stroke-linejoin="round" stroke-width="1"></path><path d="M34.2025 12.0937L35.1119 14.6443" fill="none" stroke="#45413c" stroke-linejoin="round" stroke-width="1"></path><path d="M35.436 15.5537L36.3454 18.1043" fill="none" stroke="#45413c" stroke-linejoin="round" stroke-width="1"></path><path d="M31.8609 31.4428L33.5753 29.3521" fill="none" stroke="#45413c" stroke-linejoin="round" stroke-width="1"></path><path d="M34.192 28.6099L35.9064 26.5088" fill="none" stroke="#45413c" stroke-linejoin="round" stroke-width="1"></path><path d="M33.2303 32.5718L34.9551 30.4706" fill="none" stroke="#45413c" stroke-linejoin="round" stroke-width="1"></path><path d="M34.5997 33.7007L36.3245 31.5996" fill="none" stroke="#45413c" stroke-linejoin="round" stroke-width="1"></path><path d="M35.5614 29.7389L37.2757 27.6378" fill="none" stroke="#45413c" stroke-linejoin="round" stroke-width="1"></path><path d="M36.9308 30.8574L38.6556 28.7667" fill="none" stroke="#45413c" stroke-linejoin="round" stroke-width="1"></path><path d="M11.9787 43.3387C11.9787 44.5457 21.9964 45.3001 30.0107 44.6966C33.7301 44.4165 36.0213 43.8989 36.0213 43.3387C36.0213 42.1316 26.0036 41.3772 17.9893 41.9808C14.2699 42.2609 11.9787 42.7785 11.9787 43.3387Z" fill="#45413c" opacity=".15" stroke-width="1"></path></svg>