<svg width="45" height="45" viewBox="0 0 45 45" fill="none" xmlns="http://www.w3.org/2000/svg">
<path d="M41.6983 19.9274C43.4339 21.2033 43.4339 23.7968 41.6983 25.0727C38.8266 27.1835 37.3656 30.7245 37.9041 34.2477C38.2303 36.3841 36.3841 38.2303 34.2477 37.9041C30.7245 37.3656 27.1835 38.8266 25.0727 41.6983C23.7968 43.4339 21.2033 43.4339 19.9274 41.6983C17.8166 38.8266 14.2756 37.3656 10.7525 37.9041C8.61605 38.2303 6.76966 36.3841 7.09608 34.2477C7.63433 30.7245 6.17359 27.1835 3.30187 25.0727C1.56604 23.7968 1.56604 21.2033 3.30187 19.9274C6.17359 17.8166 7.63433 14.2756 7.09608 10.7525C6.76966 8.61605 8.61605 6.76966 10.7525 7.09608C14.2756 7.63433 17.8166 6.17359 19.9274 3.30187C21.2033 1.56604 23.7968 1.56604 25.0727 3.30187C27.1835 6.17359 30.7245 7.63433 34.2477 7.09608C36.3841 6.76966 38.2303 8.61605 37.9041 10.7525C37.3656 14.2756 38.8266 17.8166 41.6983 19.9274Z" stroke="black" stroke-width="2.5" stroke-linecap="round" stroke-linejoin="round"/>
<path d="M22.4979 30.8864C27.8665 30.8864 30.8864 27.8665 30.8864 22.4979C30.8864 17.1292 27.8665 14.1094 22.4979 14.1094C17.1292 14.1094 14.1094 17.1292 14.1094 22.4979C14.1094 27.8665 17.1292 30.8864 22.4979 30.8864Z" stroke="black" stroke-width="2.5" stroke-linecap="round" stroke-linejoin="round"/>
</svg>
