<svg width="24" height="24" viewBox="0 0 24 24" fill="none" xmlns="http://www.w3.org/2000/svg">
<g clip-path="url(#clip0_2767_2224)">
<path fill-rule="evenodd" clip-rule="evenodd" d="M23.6296 3.36399C23.8668 3.59713 24 3.91329 24 4.24294C24 4.57259 23.8668 4.88875 23.6296 5.12189L9.40658 19.0992C9.27734 19.2263 9.1239 19.3271 8.95501 19.3958C8.78612 19.4646 8.60509 19.5 8.42228 19.5C8.23947 19.5 8.05845 19.4646 7.88956 19.3958C7.72067 19.3271 7.56722 19.2263 7.43798 19.0992L0.370765 12.1547C0.253218 12.0392 0.159975 11.9021 0.0963586 11.7511C0.0327427 11.6002 1.23856e-09 11.4385 0 11.2751C-1.23856e-09 11.1118 0.0327427 10.95 0.0963586 10.7991C0.159975 10.6482 0.253218 10.5111 0.370765 10.3956C0.488312 10.2801 0.62786 10.1884 0.781442 10.1259C0.935025 10.0634 1.09963 10.0312 1.26587 10.0312C1.43211 10.0312 1.59671 10.0634 1.7503 10.1259C1.90388 10.1884 2.04343 10.2801 2.16097 10.3956L8.42355 16.5494L21.8394 3.36399C22.0766 3.13093 22.3984 3 22.7338 3C23.0693 3 23.3923 3.13093 23.6296 3.36399Z" fill="black"/>
</g>
<defs>
<clipPath id="clip0_2767_2224">
<rect width="24" height="24" fill="white"/>
</clipPath>
</defs>
</svg>
