<svg width="14" height="14" viewBox="0 0 14 14" fill="none" xmlns="http://www.w3.org/2000/svg">
<path d="M1.44559 10.5185C1.59211 11.9592 2.69358 13.1179 4.06241 13.2784C5.07913 13.3976 6.12304 13.5 7.18737 13.5C8.25169 13.5 9.29561 13.3976 10.3123 13.2784C11.6812 13.1179 12.7826 11.9592 12.9291 10.5185C13.0373 9.45502 13.1286 8.36315 13.1286 7.25C13.1286 6.13684 13.0373 5.04498 12.9291 3.98147C12.7826 2.54082 11.6812 1.38211 10.3123 1.22161C9.29561 1.10239 8.25169 1 7.18737 1C6.12304 1 5.07913 1.10239 4.06241 1.22161C2.69358 1.38211 1.59211 2.54082 1.44559 3.98147C1.33743 5.04498 1.24609 6.13684 1.24609 7.25C1.24609 8.36315 1.33743 9.45502 1.44559 10.5185Z" stroke="black" stroke-linecap="round" stroke-linejoin="round" stroke-dasharray="1 2.7"/>
</svg>
