<svg width="24" height="24" viewBox="0 0 24 24" fill="none" xmlns="http://www.w3.org/2000/svg">
<g clip-path="url(#clip0_2765_2236)">
<path d="M1.64493 17.6026C1.90916 20.0724 3.8955 22.0587 6.364 22.3338C8.19752 22.5382 10.0801 22.7137 11.9994 22.7137C13.9188 22.7137 15.8014 22.5382 17.6348 22.3338C20.1034 22.0587 22.0897 20.0724 22.3539 17.6026C22.549 15.7795 22.7137 13.9077 22.7137 11.9994C22.7137 10.0912 22.549 8.21941 22.3539 6.39625C22.0897 3.92656 20.1034 1.9402 17.6348 1.66506C15.8014 1.46069 13.9188 1.28516 11.9994 1.28516C10.0801 1.28516 8.19752 1.46069 6.364 1.66506C3.8955 1.9402 1.90916 3.92656 1.64493 6.39625C1.44987 8.21941 1.28516 10.0912 1.28516 11.9994C1.28516 13.9077 1.44987 15.7795 1.64493 17.6026Z" stroke="black" stroke-width="1.5" stroke-linecap="round" stroke-linejoin="round"/>
</g>
<defs>
<clipPath id="clip0_2765_2236">
<rect width="24" height="24" fill="white"/>
</clipPath>
</defs>
</svg>
