<svg width="23" height="24" viewBox="0 0 23 24" fill="none" xmlns="http://www.w3.org/2000/svg">
<g clip-path="url(#clip0_2663_14459)">
<path d="M8.85438 4.13281C7.4251 4.20138 6.02538 4.36253 4.66017 4.5271C3.89068 4.62179 3.17436 4.98477 2.62722 5.55725C2.08009 6.12973 1.73418 6.87818 1.64553 7.68138C1.44838 9.52938 1.25781 11.4408 1.25781 13.3951C1.25781 15.3511 1.44838 17.2625 1.64553 19.1122C1.82296 20.758 3.08303 22.0728 4.66017 22.2631C6.44103 22.4774 8.28103 22.6917 10.1637 22.6917C12.0481 22.6917 13.8881 22.4774 15.669 22.2631C16.4377 22.1682 17.1532 21.8056 17.7 21.2338C18.2467 20.662 18.5927 19.9146 18.682 19.1122C18.838 17.7563 18.9541 16.3956 19.0302 15.0322" stroke="#B0B9C2" stroke-width="1.5" stroke-linecap="round" stroke-linejoin="round"/>
<path d="M16.6048 2.23461L10.5509 9.40033L9.72286 13.4718C9.58814 14.1266 10.2436 14.7472 10.8564 14.5449L14.7369 13.2729L20.9896 6.40718C22.0295 5.26718 21.8471 3.35918 20.5904 2.19861C19.3631 1.06718 17.579 1.0809 16.6048 2.2329V2.23461Z" stroke="#B0B9C2" stroke-width="1.5" stroke-linecap="round" stroke-linejoin="round"/>
</g>
<defs>
<clipPath id="clip0_2663_14459">
<rect width="23" height="24" fill="white"/>
</clipPath>
</defs>
</svg>
