<svg width="73" height="73" viewBox="0 0 73 73" fill="none" xmlns="http://www.w3.org/2000/svg">
<mask id="path-1-outside-1_1177_20" maskUnits="userSpaceOnUse" x="16" y="25" width="41" height="31" fill="black">
<rect fill="white" x="16" y="25" width="41" height="31"/>
<path d="M17.5312 28.0234C17.5052 27.9453 17.4922 27.8281 17.4922 27.6719C17.4922 27.2031 17.7266 26.9167 18.1953 26.8125C19.6536 26.4479 21.1641 26.2656 22.7266 26.2656C25.2786 26.2656 27.4271 26.8385 29.1719 27.9844C30.9167 29.1042 31.7891 30.862 31.7891 33.2578C31.7891 34.7422 31.4115 36.0052 30.6562 37.0469C29.9271 38.0625 28.8203 38.974 27.3359 39.7812C28.7161 40.4062 29.862 41.3568 30.7734 42.6328C31.7109 43.8828 32.1797 45.3672 32.1797 47.0859C32.1797 49.5339 31.2422 51.3698 29.3672 52.5938C27.4922 53.7917 25.2135 54.3906 22.5312 54.3906C20.8906 54.3906 19.3151 54.2083 17.8047 53.8438C17.3359 53.7396 17.1016 53.4531 17.1016 52.9844C17.1016 52.8281 17.1146 52.7109 17.1406 52.6328L17.4531 51.5391C17.5573 51.0964 17.8307 50.875 18.2734 50.875C18.4297 50.875 18.5599 50.888 18.6641 50.9141C19.888 51.2005 21.1771 51.3438 22.5312 51.3438C26.724 51.3438 28.8203 49.7682 28.8203 46.6172C28.8203 45.0547 28.2604 43.7917 27.1406 42.8281C26.0208 41.8385 24.5755 41.3438 22.8047 41.3438H20.8125C20.1615 41.3438 19.8359 41.0182 19.8359 40.3672V39.3125C19.8359 38.6615 20.1615 38.3359 20.8125 38.3359H22.8047C24.5495 38.3359 25.9167 37.9193 26.9062 37.0859C27.9219 36.2526 28.4297 35.0417 28.4297 33.4531C28.4297 31.9688 27.9479 30.9141 26.9844 30.2891C26.0208 29.638 24.6016 29.3125 22.7266 29.3125C21.5026 29.3125 20.2786 29.4557 19.0547 29.7422C18.9505 29.7682 18.8203 29.7812 18.6641 29.7812C18.2214 29.7812 17.9479 29.5599 17.8438 29.1172L17.5312 28.0234ZM46.75 26.2656C48.599 26.2656 50.2005 26.8385 51.5547 27.9844C52.9349 29.1042 53.9896 30.7318 54.7188 32.8672C55.4479 34.9766 55.8125 37.4635 55.8125 40.3281C55.8125 43.1927 55.4479 45.6927 54.7188 47.8281C53.9896 49.9375 52.9349 51.5651 51.5547 52.7109C50.2005 53.8307 48.599 54.3906 46.75 54.3906C44.901 54.3906 43.2865 53.8307 41.9062 52.7109C40.526 51.5651 39.4714 49.9375 38.7422 47.8281C38.013 45.6927 37.6484 43.1927 37.6484 40.3281C37.6484 37.4635 38.013 34.9766 38.7422 32.8672C39.4714 30.7318 40.526 29.1042 41.9062 27.9844C43.2865 26.8385 44.901 26.2656 46.75 26.2656ZM46.75 29.2344C44.9792 29.2344 43.5729 30.237 42.5312 32.2422C41.4896 34.2214 40.9688 36.9167 40.9688 40.3281C40.9688 41.3958 41.0339 42.5156 41.1641 43.6875L51.4766 33.375C50.9818 32.0469 50.3307 31.0312 49.5234 30.3281C48.7161 29.599 47.7917 29.2344 46.75 29.2344ZM46.75 51.3828C48.5208 51.3828 49.9141 50.3932 50.9297 48.4141C51.9714 46.4349 52.4922 43.7396 52.4922 40.3281C52.4922 39.2344 52.4271 38.1016 52.2969 36.9297L42.0234 47.2031C42.5182 48.5573 43.1693 49.599 43.9766 50.3281C44.7839 51.0312 45.7083 51.3828 46.75 51.3828Z"/>
</mask>
<path d="M17.5312 28.0234C17.5052 27.9453 17.4922 27.8281 17.4922 27.6719C17.4922 27.2031 17.7266 26.9167 18.1953 26.8125C19.6536 26.4479 21.1641 26.2656 22.7266 26.2656C25.2786 26.2656 27.4271 26.8385 29.1719 27.9844C30.9167 29.1042 31.7891 30.862 31.7891 33.2578C31.7891 34.7422 31.4115 36.0052 30.6562 37.0469C29.9271 38.0625 28.8203 38.974 27.3359 39.7812C28.7161 40.4062 29.862 41.3568 30.7734 42.6328C31.7109 43.8828 32.1797 45.3672 32.1797 47.0859C32.1797 49.5339 31.2422 51.3698 29.3672 52.5938C27.4922 53.7917 25.2135 54.3906 22.5312 54.3906C20.8906 54.3906 19.3151 54.2083 17.8047 53.8438C17.3359 53.7396 17.1016 53.4531 17.1016 52.9844C17.1016 52.8281 17.1146 52.7109 17.1406 52.6328L17.4531 51.5391C17.5573 51.0964 17.8307 50.875 18.2734 50.875C18.4297 50.875 18.5599 50.888 18.6641 50.9141C19.888 51.2005 21.1771 51.3438 22.5312 51.3438C26.724 51.3438 28.8203 49.7682 28.8203 46.6172C28.8203 45.0547 28.2604 43.7917 27.1406 42.8281C26.0208 41.8385 24.5755 41.3438 22.8047 41.3438H20.8125C20.1615 41.3438 19.8359 41.0182 19.8359 40.3672V39.3125C19.8359 38.6615 20.1615 38.3359 20.8125 38.3359H22.8047C24.5495 38.3359 25.9167 37.9193 26.9062 37.0859C27.9219 36.2526 28.4297 35.0417 28.4297 33.4531C28.4297 31.9688 27.9479 30.9141 26.9844 30.2891C26.0208 29.638 24.6016 29.3125 22.7266 29.3125C21.5026 29.3125 20.2786 29.4557 19.0547 29.7422C18.9505 29.7682 18.8203 29.7812 18.6641 29.7812C18.2214 29.7812 17.9479 29.5599 17.8438 29.1172L17.5312 28.0234ZM46.75 26.2656C48.599 26.2656 50.2005 26.8385 51.5547 27.9844C52.9349 29.1042 53.9896 30.7318 54.7188 32.8672C55.4479 34.9766 55.8125 37.4635 55.8125 40.3281C55.8125 43.1927 55.4479 45.6927 54.7188 47.8281C53.9896 49.9375 52.9349 51.5651 51.5547 52.7109C50.2005 53.8307 48.599 54.3906 46.75 54.3906C44.901 54.3906 43.2865 53.8307 41.9062 52.7109C40.526 51.5651 39.4714 49.9375 38.7422 47.8281C38.013 45.6927 37.6484 43.1927 37.6484 40.3281C37.6484 37.4635 38.013 34.9766 38.7422 32.8672C39.4714 30.7318 40.526 29.1042 41.9062 27.9844C43.2865 26.8385 44.901 26.2656 46.75 26.2656ZM46.75 29.2344C44.9792 29.2344 43.5729 30.237 42.5312 32.2422C41.4896 34.2214 40.9688 36.9167 40.9688 40.3281C40.9688 41.3958 41.0339 42.5156 41.1641 43.6875L51.4766 33.375C50.9818 32.0469 50.3307 31.0312 49.5234 30.3281C48.7161 29.599 47.7917 29.2344 46.75 29.2344ZM46.75 51.3828C48.5208 51.3828 49.9141 50.3932 50.9297 48.4141C51.9714 46.4349 52.4922 43.7396 52.4922 40.3281C52.4922 39.2344 52.4271 38.1016 52.2969 36.9297L42.0234 47.2031C42.5182 48.5573 43.1693 49.599 43.9766 50.3281C44.7839 51.0312 45.7083 51.3828 46.75 51.3828Z" fill="white"/>
<path d="M17.5312 28.0234L18.4928 27.7487L18.4868 27.7278L18.4799 27.7072L17.5312 28.0234ZM18.1953 26.8125L18.4122 27.7887L18.4251 27.7858L18.4378 27.7826L18.1953 26.8125ZM29.1719 27.9844L28.6229 28.8203L28.6318 28.826L29.1719 27.9844ZM30.6562 37.0469L29.8466 36.4599L29.8439 36.4637L30.6562 37.0469ZM27.3359 39.7812L26.8582 38.9028L25.0924 39.8631L26.9234 40.6922L27.3359 39.7812ZM30.7734 42.6328L29.9597 43.2141L29.9665 43.2235L29.9734 43.2328L30.7734 42.6328ZM29.3672 52.5938L29.9056 53.4365L29.9138 53.4311L29.3672 52.5938ZM17.8047 53.8438L18.0393 52.8717L18.0305 52.8695L18.0216 52.8676L17.8047 53.8438ZM17.1406 52.6328L18.0893 52.949L18.0962 52.9284L18.1021 52.9075L17.1406 52.6328ZM17.4531 51.5391L18.4146 51.8138L18.4211 51.7911L18.4265 51.7681L17.4531 51.5391ZM18.6641 50.9141L18.4215 51.8842L18.4288 51.886L18.4362 51.8878L18.6641 50.9141ZM27.1406 42.8281L26.4784 43.5775L26.4884 43.5861L27.1406 42.8281ZM26.9062 37.0859L26.2719 36.3128L26.2621 36.321L26.9062 37.0859ZM26.9844 30.2891L26.4245 31.1177L26.4323 31.1229L26.4402 31.128L26.9844 30.2891ZM19.0547 29.7422L18.8268 28.7685L18.8195 28.7702L18.8122 28.772L19.0547 29.7422ZM17.8438 29.1172L18.8172 28.8881L18.8118 28.8652L18.8053 28.8425L17.8438 29.1172ZM18.4799 27.7072C18.4889 27.7341 18.4931 27.7533 18.4947 27.7614C18.4964 27.7699 18.4965 27.7721 18.4958 27.7665C18.4952 27.7611 18.4943 27.7506 18.4935 27.7342C18.4927 27.7179 18.4922 27.6972 18.4922 27.6719H16.4922C16.4922 27.8573 16.5044 28.1052 16.5826 28.3397L18.4799 27.7072ZM18.4922 27.6719C18.4922 27.6371 18.4966 27.6334 18.4912 27.6509C18.485 27.6709 18.4702 27.7041 18.4419 27.7387C18.4138 27.7731 18.3863 27.7918 18.3733 27.799C18.3626 27.8049 18.3714 27.7978 18.4122 27.7887L17.9784 25.8363C17.5908 25.9225 17.1906 26.1098 16.894 26.4722C16.5953 26.8374 16.4922 27.2695 16.4922 27.6719H18.4922ZM18.4378 27.7826C19.8138 27.4387 21.2426 27.2656 22.7266 27.2656V25.2656C21.0855 25.2656 19.4935 25.4572 17.9528 25.8424L18.4378 27.7826ZM22.7266 27.2656C25.1273 27.2656 27.0743 27.8032 28.6229 28.8202L29.7208 27.1485C27.7799 25.8739 25.43 25.2656 22.7266 25.2656V27.2656ZM28.6318 28.826C30.0414 29.7306 30.7891 31.1405 30.7891 33.2578H32.7891C32.7891 30.5835 31.792 28.4777 29.712 27.1428L28.6318 28.826ZM30.7891 33.2578C30.7891 34.5649 30.4597 35.6143 29.8466 36.4599L31.4659 37.6338C32.3632 36.3962 32.7891 34.9194 32.7891 33.2578H30.7891ZM29.8439 36.4637C29.2278 37.3218 28.2544 38.1434 26.8582 38.9028L27.8137 40.6597C29.3863 39.8045 30.6263 38.8032 31.4686 37.6301L29.8439 36.4637ZM26.9234 40.6922C28.1374 41.2419 29.1469 42.0761 29.9597 43.2141L31.5872 42.0516C30.5771 40.6374 29.2949 39.5706 27.7484 38.8703L26.9234 40.6922ZM29.9734 43.2328C30.7681 44.2923 31.1797 45.5607 31.1797 47.0859H33.1797C33.1797 45.1737 32.6538 43.4733 31.5734 42.0328L29.9734 43.2328ZM31.1797 47.0859C31.1797 49.2334 30.3828 50.7366 28.8206 51.7564L29.9138 53.4311C32.1016 52.003 33.1797 49.8343 33.1797 47.0859H31.1797ZM28.8288 51.7511C27.145 52.8268 25.0623 53.3906 22.5312 53.3906V55.3906C25.3648 55.3906 27.8394 54.7565 29.9056 53.4364L28.8288 51.7511ZM22.5312 53.3906C20.9653 53.3906 19.4687 53.2167 18.0393 52.8717L17.57 54.8158C19.1615 55.2 20.816 55.3906 22.5312 55.3906V53.3906ZM18.0216 52.8676C17.9808 52.8585 17.972 52.8513 17.9827 52.8573C17.9957 52.8645 18.0232 52.8832 18.0513 52.9175C18.0796 52.9522 18.0944 52.9853 18.1006 53.0054C18.106 53.0228 18.1016 53.0192 18.1016 52.9844H16.1016C16.1016 53.3867 16.2046 53.8189 16.5034 54.184C16.8 54.5465 17.2001 54.7338 17.5878 54.8199L18.0216 52.8676ZM18.1016 52.9844C18.1016 52.959 18.1021 52.9384 18.1029 52.9221C18.1037 52.9057 18.1046 52.8951 18.1052 52.8897C18.1058 52.8841 18.1058 52.8863 18.1041 52.8948C18.1025 52.903 18.0983 52.9221 18.0893 52.949L16.1919 52.3166C16.1138 52.551 16.1016 52.7989 16.1016 52.9844H18.1016ZM18.1021 52.9075L18.4146 51.8138L16.4916 51.2643L16.1791 52.3581L18.1021 52.9075ZM18.4265 51.7681C18.4348 51.7332 18.4403 51.7288 18.4323 51.7428C18.4231 51.759 18.4022 51.7886 18.3655 51.8183C18.3286 51.8481 18.2925 51.8645 18.2685 51.8719C18.2468 51.8786 18.2453 51.875 18.2734 51.875V49.875C17.8835 49.875 17.4638 49.975 17.1071 50.2638C16.7533 50.5502 16.5676 50.9365 16.4797 51.31L18.4265 51.7681ZM18.2734 51.875C18.3245 51.875 18.3623 51.8772 18.3888 51.8798C18.4157 51.8825 18.4253 51.8851 18.4215 51.8842L18.9066 49.9439C18.6961 49.8913 18.478 49.875 18.2734 49.875V51.875ZM18.4362 51.8878C19.7403 52.193 21.1062 52.3438 22.5312 52.3438V50.3438C21.2479 50.3438 20.0357 50.2081 18.8919 49.9404L18.4362 51.8878ZM22.5312 52.3438C24.7241 52.3438 26.5511 51.9368 27.8488 50.9615C29.2003 49.9458 29.8203 48.4359 29.8203 46.6172H27.8203C27.8203 47.9495 27.3922 48.8029 26.6473 49.3627C25.8486 49.9629 24.5311 50.3438 22.5312 50.3438V52.3438ZM29.8203 46.6172C29.8203 44.7826 29.1475 43.2358 27.7929 42.0701L26.4884 43.5861C27.3733 44.3476 27.8203 45.3268 27.8203 46.6172H29.8203ZM27.8028 42.0788C26.4675 40.8987 24.7718 40.3438 22.8047 40.3438V42.3438C24.3792 42.3438 25.5742 42.7784 26.4784 43.5775L27.8028 42.0788ZM22.8047 40.3438H20.8125V42.3438H22.8047V40.3438ZM20.8125 40.3438C20.7724 40.3438 20.7438 40.3412 20.725 40.3385C20.7064 40.3359 20.6994 40.3333 20.7015 40.334C20.7039 40.3348 20.7152 40.3389 20.7319 40.3489C20.749 40.3592 20.7683 40.3736 20.7872 40.3925C20.8061 40.4114 20.8205 40.4307 20.8308 40.4478C20.8408 40.4645 20.8449 40.4758 20.8457 40.4782C20.8463 40.4803 20.8438 40.4733 20.8411 40.4546C20.8385 40.4359 20.8359 40.4073 20.8359 40.3672H18.8359C18.8359 40.8469 18.9565 41.3903 19.373 41.8067C19.7894 42.2232 20.3328 42.3438 20.8125 42.3438V40.3438ZM20.8359 40.3672V39.3125H18.8359V40.3672H20.8359ZM20.8359 39.3125C20.8359 39.2724 20.8385 39.2438 20.8411 39.225C20.8438 39.2064 20.8463 39.1994 20.8457 39.2015C20.8449 39.2039 20.8408 39.2152 20.8308 39.2319C20.8205 39.249 20.8061 39.2683 20.7872 39.2872C20.7683 39.3061 20.749 39.3205 20.7319 39.3308C20.7152 39.3408 20.7039 39.3449 20.7015 39.3457C20.6994 39.3463 20.7064 39.3438 20.725 39.3411C20.7438 39.3385 20.7724 39.3359 20.8125 39.3359V37.3359C20.3328 37.3359 19.7894 37.4565 19.373 37.873C18.9565 38.2894 18.8359 38.8328 18.8359 39.3125H20.8359ZM20.8125 39.3359H22.8047V37.3359H20.8125V39.3359ZM22.8047 39.3359C24.7027 39.3359 26.3261 38.8818 27.5504 37.8508L26.2621 36.321C25.5072 36.9567 24.3963 37.3359 22.8047 37.3359V39.3359ZM27.5406 37.859C28.8363 36.7959 29.4297 35.272 29.4297 33.4531H27.4297C27.4297 34.8113 27.0075 35.7094 26.2719 36.3129L27.5406 37.859ZM29.4297 33.4531C29.4297 31.7415 28.8588 30.3129 27.5286 29.4501L26.4402 31.128C27.0371 31.5152 27.4297 32.196 27.4297 33.4531H29.4297ZM27.5442 29.4605C26.3423 28.6484 24.6896 28.3125 22.7266 28.3125V30.3125C24.5135 30.3125 25.6993 30.6277 26.4245 31.1177L27.5442 29.4605ZM22.7266 28.3125C21.4238 28.3125 20.1234 28.465 18.8268 28.7685L19.2826 30.7159C20.4339 30.4464 21.5814 30.3125 22.7266 30.3125V28.3125ZM18.8122 28.772C18.8159 28.7711 18.8063 28.7738 18.7794 28.7764C18.753 28.7791 18.7151 28.7812 18.6641 28.7812V30.7812C18.8686 30.7812 19.0868 30.7649 19.2972 30.7123L18.8122 28.772ZM18.6641 28.7812C18.6359 28.7812 18.6375 28.7777 18.6591 28.7843C18.6831 28.7918 18.7192 28.8081 18.7562 28.838C18.7928 28.8676 18.8137 28.8973 18.8229 28.9134C18.8309 28.9274 18.8254 28.923 18.8172 28.8881L16.8703 29.3462C16.9582 29.7197 17.1439 30.1061 17.4978 30.3925C17.8545 30.6812 18.2742 30.7812 18.6641 30.7812V28.7812ZM18.8053 28.8425L18.4928 27.7487L16.5697 28.2982L16.8822 29.3919L18.8053 28.8425ZM51.5547 27.9844L50.9087 28.7478L50.9166 28.7544L50.9246 28.7609L51.5547 27.9844ZM54.7188 32.8672L53.7724 33.1903L53.7736 33.1939L54.7188 32.8672ZM54.7188 47.8281L55.6639 48.1548L55.6651 48.1513L54.7188 47.8281ZM51.5547 52.7109L52.192 53.4816L52.1934 53.4803L51.5547 52.7109ZM41.9062 52.7109L41.2675 53.4804L41.2762 53.4875L41.9062 52.7109ZM38.7422 47.8281L37.7958 48.1513L37.7971 48.1548L38.7422 47.8281ZM38.7422 32.8672L39.6873 33.1939L39.6885 33.1903L38.7422 32.8672ZM41.9062 27.9844L42.5363 28.761L42.545 28.7538L41.9062 27.9844ZM42.5312 32.2422L43.4162 32.7079L43.4187 32.7032L42.5312 32.2422ZM41.1641 43.6875L40.1702 43.7979L40.3999 45.8658L41.8712 44.3946L41.1641 43.6875ZM51.4766 33.375L52.1837 34.0821L52.6379 33.6279L52.4136 33.0259L51.4766 33.375ZM49.5234 30.3281L48.8532 31.0702L48.8598 31.0763L48.8667 31.0822L49.5234 30.3281ZM50.9297 48.4141L50.0447 47.9483L50.04 47.9575L50.9297 48.4141ZM52.2969 36.9297L53.2908 36.8193L53.061 34.7514L51.5898 36.2226L52.2969 36.9297ZM42.0234 47.2031L41.3163 46.496L40.8652 46.9471L41.0842 47.5463L42.0234 47.2031ZM43.9766 50.3281L43.3063 51.0702L43.313 51.0763L43.3198 51.0822L43.9766 50.3281ZM46.75 27.2656C48.3733 27.2656 49.7433 27.7616 50.9087 28.7478L52.2006 27.221C50.6578 25.9155 48.8246 25.2656 46.75 25.2656V27.2656ZM50.9246 28.7609C52.1243 29.7342 53.0877 31.1853 53.7724 33.1903L55.6651 32.544C54.8914 30.2783 53.7455 28.4741 52.1847 27.2078L50.9246 28.7609ZM53.7736 33.1939C54.4578 35.1732 54.8125 37.5448 54.8125 40.3281H56.8125C56.8125 37.3823 56.438 34.7799 55.6639 32.5405L53.7736 33.1939ZM54.8125 40.3281C54.8125 43.111 54.4579 45.4973 53.7724 47.505L55.6651 48.1513C56.4379 45.8881 56.8125 43.2744 56.8125 40.3281H54.8125ZM53.7736 47.5014C53.0897 49.4799 52.1249 50.9379 50.9159 51.9415L52.1934 53.4803C53.7449 52.1923 54.8895 50.3951 55.6639 48.1548L53.7736 47.5014ZM50.9174 51.9403C49.7524 52.9037 48.3795 53.3906 46.75 53.3906V55.3906C48.8184 55.3906 50.6486 54.7578 52.192 53.4816L50.9174 51.9403ZM46.75 53.3906C45.1205 53.3906 43.7307 52.9034 42.5363 51.9344L41.2762 53.4875C42.8422 54.758 44.6816 55.3906 46.75 55.3906V53.3906ZM42.545 51.9415C41.3361 50.9379 40.3712 49.4799 39.6873 47.5014L37.7971 48.1548C38.5715 50.3951 39.716 52.1923 41.2675 53.4803L42.545 51.9415ZM39.6885 47.505C39.003 45.4973 38.6484 43.111 38.6484 40.3281H36.6484C36.6484 43.2744 37.023 45.8881 37.7958 48.1513L39.6885 47.505ZM38.6484 40.3281C38.6484 37.5448 39.0031 35.1732 39.6873 33.1939L37.7971 32.5405C37.0229 34.7799 36.6484 37.3823 36.6484 40.3281H38.6484ZM39.6885 33.1903C40.3732 31.1853 41.3366 29.7342 42.5363 28.7609L41.2762 27.2078C39.7154 28.4741 38.5695 30.2783 37.7958 32.544L39.6885 33.1903ZM42.545 28.7538C43.7398 27.7619 45.1265 27.2656 46.75 27.2656V25.2656C44.6755 25.2656 42.8331 25.9152 41.2675 27.215L42.545 28.7538ZM46.75 28.2344C44.4983 28.2344 42.8015 29.5527 41.6438 31.7812L43.4187 32.7032C44.3443 30.9213 45.46 30.2344 46.75 30.2344V28.2344ZM41.6463 31.7764C40.4997 33.9551 39.9688 36.8322 39.9688 40.3281H41.9688C41.9688 37.0011 42.4795 34.4876 43.4162 32.7079L41.6463 31.7764ZM39.9688 40.3281C39.9688 41.4363 40.0363 42.5931 40.1702 43.7979L42.1579 43.5771C42.0314 42.4381 41.9688 41.3554 41.9688 40.3281H39.9688ZM41.8712 44.3946L52.1837 34.0821L50.7695 32.6679L40.457 42.9804L41.8712 44.3946ZM52.4136 33.0259C51.8788 31.5903 51.1474 30.4164 50.1802 29.574L48.8667 31.0822C49.5141 31.6461 50.0847 32.5034 50.5395 33.7241L52.4136 33.0259ZM50.1937 29.586C49.2116 28.6989 48.0511 28.2344 46.75 28.2344V30.2344C47.5322 30.2344 48.2207 30.499 48.8532 31.0702L50.1937 29.586ZM46.75 52.3828C48.9978 52.3828 50.6847 51.0818 51.8194 48.8706L50.04 47.9575C49.1434 49.7047 48.0438 50.3828 46.75 50.3828V52.3828ZM51.8146 48.8798C52.9613 46.7011 53.4922 43.824 53.4922 40.3281H51.4922C51.4922 43.6551 50.9814 46.1687 50.0448 47.9483L51.8146 48.8798ZM53.4922 40.3281C53.4922 39.1948 53.4247 38.025 53.2908 36.8193L51.303 37.0401C51.4294 38.1781 51.4922 39.274 51.4922 40.3281H53.4922ZM51.5898 36.2226L41.3163 46.496L42.7305 47.9102L53.004 37.6368L51.5898 36.2226ZM41.0842 47.5463C41.6173 49.0055 42.3453 50.2023 43.3063 51.0702L44.6468 49.586C43.9932 48.9956 43.4191 48.1091 42.9627 46.8599L41.0842 47.5463ZM43.3198 51.0822C44.3036 51.9391 45.4597 52.3828 46.75 52.3828V50.3828C45.957 50.3828 45.2641 50.1234 44.6333 49.574L43.3198 51.0822Z" fill="white" mask="url(#path-1-outside-1_1177_20)"/>
<path d="M4.07708 55.0027C4.95568 62.6602 11.3266 68.7398 19.205 69.1106C24.6503 69.367 30.2128 69.5 36.2501 69.5C42.2873 69.5 47.8499 69.367 53.295 69.1106C61.1737 68.7398 67.5445 62.6602 68.4229 55.0027C69.0148 49.846 69.5 44.5592 69.5 39.1736C69.5 33.788 69.0148 28.5012 68.4229 23.3445C67.5445 15.6871 61.1737 9.60729 53.295 9.23659C47.8499 8.98039 42.2873 8.84723 36.2501 8.84723C30.2128 8.84723 24.6503 8.98039 19.205 9.23659C11.3267 9.60729 4.95568 15.6871 4.07708 23.3445C3.48542 28.5012 3 33.788 3 39.1736C3 44.5592 3.48542 49.846 4.07708 55.0027Z" stroke="white" stroke-width="6" stroke-linecap="round" stroke-linejoin="round"/>
<path d="M20.7168 3V16.2998" stroke="white" stroke-width="6" stroke-linecap="round" stroke-linejoin="round"/>
<path d="M50.649 3V16.2998" stroke="white" stroke-width="6" stroke-linecap="round" stroke-linejoin="round"/>
</svg>
