<svg width="68" height="68" viewBox="0 0 68 68" fill="none" xmlns="http://www.w3.org/2000/svg">
<path fill-rule="evenodd" clip-rule="evenodd" d="M33.7495 7.29185C28.0105 7.29185 22.7184 7.41665 17.5358 7.6569C8.88925 8.0578 1.85456 14.6343 0.88113 22.9945C-0.29371 33.0845 -0.29371 41.7074 0.88113 51.7975C1.85456 60.1575 8.88925 66.734 17.5358 67.135C22.7184 67.375 28.0105 67.5 33.7495 67.5C39.4885 67.5 44.7806 67.375 49.963 67.135C58.61 66.734 65.6445 60.1575 66.618 51.7975C67.7925 41.7074 67.7925 33.0845 66.618 22.9945C65.6445 14.6343 58.61 8.0578 49.9635 7.6569C44.7806 7.41665 39.4885 7.29185 33.7495 7.29185Z" fill="#9FA8DA"/>
<path fill-rule="evenodd" clip-rule="evenodd" d="M23.7598 3.75C23.7598 1.67893 22.0809 0 20.0098 0C17.9387 0 16.2598 1.67893 16.2598 3.75V15C16.2598 17.071 17.9387 18.75 20.0098 18.75C22.0809 18.75 23.7598 17.071 23.7598 15V3.75ZM51.24 3.75C51.24 1.67893 49.5615 0 47.4903 0C45.4192 0 43.7403 1.67893 43.7403 3.75V15C43.7403 17.071 45.4192 18.75 47.4903 18.75C49.5615 18.75 51.24 17.071 51.24 15V3.75Z" fill="#9FA8DA"/>
<mask id="path-3-outside-1_1144_19" maskUnits="userSpaceOnUse" x="16" y="23" width="37" height="28" fill="black">
<rect fill="white" x="16" y="23" width="37" height="28"/>
<path d="M18.2773 26.2705C18.2546 26.2021 18.2432 26.0996 18.2432 25.9629C18.2432 25.5527 18.4482 25.3021 18.8584 25.2109C20.1344 24.8919 21.4561 24.7324 22.8232 24.7324C25.0563 24.7324 26.9362 25.2337 28.4629 26.2363C29.9896 27.2161 30.7529 28.7542 30.7529 30.8506C30.7529 32.1494 30.4225 33.2546 29.7617 34.166C29.1237 35.0547 28.1553 35.8522 26.8564 36.5586C28.0641 37.1055 29.0667 37.9372 29.8643 39.0537C30.6846 40.1475 31.0947 41.4463 31.0947 42.9502C31.0947 45.0921 30.2744 46.6986 28.6338 47.7695C26.9932 48.8177 24.9993 49.3418 22.6523 49.3418C21.2168 49.3418 19.8382 49.1823 18.5166 48.8633C18.1064 48.7721 17.9014 48.5215 17.9014 48.1113C17.9014 47.9746 17.9128 47.8721 17.9355 47.8037L18.209 46.8467C18.3001 46.4593 18.5394 46.2656 18.9268 46.2656C19.0635 46.2656 19.1774 46.277 19.2686 46.2998C20.3395 46.5505 21.4674 46.6758 22.6523 46.6758C26.321 46.6758 28.1553 45.2972 28.1553 42.54C28.1553 41.1729 27.6654 40.0677 26.6855 39.2246C25.7057 38.3587 24.4411 37.9258 22.8916 37.9258H21.1484C20.5788 37.9258 20.2939 37.641 20.2939 37.0713V36.1484C20.2939 35.5788 20.5788 35.2939 21.1484 35.2939H22.8916C24.4183 35.2939 25.6146 34.9294 26.4805 34.2002C27.3691 33.471 27.8135 32.4115 27.8135 31.0215C27.8135 29.7227 27.3919 28.7998 26.5488 28.2529C25.7057 27.6833 24.4639 27.3984 22.8232 27.3984C21.7523 27.3984 20.6813 27.5238 19.6104 27.7744C19.5192 27.7972 19.4053 27.8086 19.2686 27.8086C18.8812 27.8086 18.6419 27.6149 18.5508 27.2275L18.2773 26.2705ZM43.8438 24.7324C45.4616 24.7324 46.863 25.2337 48.0479 26.2363C49.2555 27.2161 50.1784 28.6403 50.8164 30.5088C51.4544 32.3545 51.7734 34.5306 51.7734 37.0371C51.7734 39.5436 51.4544 41.7311 50.8164 43.5996C50.1784 45.4453 49.2555 46.8695 48.0479 47.8721C46.863 48.8519 45.4616 49.3418 43.8438 49.3418C42.2259 49.3418 40.8132 48.8519 39.6055 47.8721C38.3978 46.8695 37.4749 45.4453 36.8369 43.5996C36.1989 41.7311 35.8799 39.5436 35.8799 37.0371C35.8799 34.5306 36.1989 32.3545 36.8369 30.5088C37.4749 28.6403 38.3978 27.2161 39.6055 26.2363C40.8132 25.2337 42.2259 24.7324 43.8438 24.7324ZM43.8438 27.3301C42.2943 27.3301 41.0638 28.2074 40.1523 29.9619C39.2409 31.6937 38.7852 34.0521 38.7852 37.0371C38.7852 37.9714 38.8421 38.9512 38.9561 39.9766L47.9795 30.9531C47.5465 29.791 46.9769 28.9023 46.2705 28.2871C45.5641 27.6491 44.7552 27.3301 43.8438 27.3301ZM43.8438 46.71C45.3932 46.71 46.6123 45.8441 47.501 44.1123C48.4124 42.3805 48.8682 40.0221 48.8682 37.0371C48.8682 36.0801 48.8112 35.0889 48.6973 34.0635L39.708 43.0527C40.141 44.2376 40.7106 45.1491 41.417 45.7871C42.1234 46.4023 42.9323 46.71 43.8438 46.71Z"/>
</mask>
<path d="M18.2773 26.2705C18.2546 26.2021 18.2432 26.0996 18.2432 25.9629C18.2432 25.5527 18.4482 25.3021 18.8584 25.2109C20.1344 24.8919 21.4561 24.7324 22.8232 24.7324C25.0563 24.7324 26.9362 25.2337 28.4629 26.2363C29.9896 27.2161 30.7529 28.7542 30.7529 30.8506C30.7529 32.1494 30.4225 33.2546 29.7617 34.166C29.1237 35.0547 28.1553 35.8522 26.8564 36.5586C28.0641 37.1055 29.0667 37.9372 29.8643 39.0537C30.6846 40.1475 31.0947 41.4463 31.0947 42.9502C31.0947 45.0921 30.2744 46.6986 28.6338 47.7695C26.9932 48.8177 24.9993 49.3418 22.6523 49.3418C21.2168 49.3418 19.8382 49.1823 18.5166 48.8633C18.1064 48.7721 17.9014 48.5215 17.9014 48.1113C17.9014 47.9746 17.9128 47.8721 17.9355 47.8037L18.209 46.8467C18.3001 46.4593 18.5394 46.2656 18.9268 46.2656C19.0635 46.2656 19.1774 46.277 19.2686 46.2998C20.3395 46.5505 21.4674 46.6758 22.6523 46.6758C26.321 46.6758 28.1553 45.2972 28.1553 42.54C28.1553 41.1729 27.6654 40.0677 26.6855 39.2246C25.7057 38.3587 24.4411 37.9258 22.8916 37.9258H21.1484C20.5788 37.9258 20.2939 37.641 20.2939 37.0713V36.1484C20.2939 35.5788 20.5788 35.2939 21.1484 35.2939H22.8916C24.4183 35.2939 25.6146 34.9294 26.4805 34.2002C27.3691 33.471 27.8135 32.4115 27.8135 31.0215C27.8135 29.7227 27.3919 28.7998 26.5488 28.2529C25.7057 27.6833 24.4639 27.3984 22.8232 27.3984C21.7523 27.3984 20.6813 27.5238 19.6104 27.7744C19.5192 27.7972 19.4053 27.8086 19.2686 27.8086C18.8812 27.8086 18.6419 27.6149 18.5508 27.2275L18.2773 26.2705ZM43.8438 24.7324C45.4616 24.7324 46.863 25.2337 48.0479 26.2363C49.2555 27.2161 50.1784 28.6403 50.8164 30.5088C51.4544 32.3545 51.7734 34.5306 51.7734 37.0371C51.7734 39.5436 51.4544 41.7311 50.8164 43.5996C50.1784 45.4453 49.2555 46.8695 48.0479 47.8721C46.863 48.8519 45.4616 49.3418 43.8438 49.3418C42.2259 49.3418 40.8132 48.8519 39.6055 47.8721C38.3978 46.8695 37.4749 45.4453 36.8369 43.5996C36.1989 41.7311 35.8799 39.5436 35.8799 37.0371C35.8799 34.5306 36.1989 32.3545 36.8369 30.5088C37.4749 28.6403 38.3978 27.2161 39.6055 26.2363C40.8132 25.2337 42.2259 24.7324 43.8438 24.7324ZM43.8438 27.3301C42.2943 27.3301 41.0638 28.2074 40.1523 29.9619C39.2409 31.6937 38.7852 34.0521 38.7852 37.0371C38.7852 37.9714 38.8421 38.9512 38.9561 39.9766L47.9795 30.9531C47.5465 29.791 46.9769 28.9023 46.2705 28.2871C45.5641 27.6491 44.7552 27.3301 43.8438 27.3301ZM43.8438 46.71C45.3932 46.71 46.6123 45.8441 47.501 44.1123C48.4124 42.3805 48.8682 40.0221 48.8682 37.0371C48.8682 36.0801 48.8112 35.0889 48.6973 34.0635L39.708 43.0527C40.141 44.2376 40.7106 45.1491 41.417 45.7871C42.1234 46.4023 42.9323 46.71 43.8438 46.71Z" fill="white"/>
<path d="M18.2773 26.2705L19.2389 25.9958L19.2329 25.9749L19.226 25.9543L18.2773 26.2705ZM18.8584 25.2109L19.0753 26.1871L19.0882 26.1843L19.1009 26.1811L18.8584 25.2109ZM28.4629 26.2363L27.9139 27.0722L27.9228 27.0779L28.4629 26.2363ZM29.7617 34.166L28.9521 33.579L28.9494 33.5828L29.7617 34.166ZM26.8564 36.5586L26.3787 35.6801L24.6129 36.6404L26.4439 37.4695L26.8564 36.5586ZM29.8643 39.0537L29.0505 39.6349L29.0573 39.6444L29.0643 39.6537L29.8643 39.0537ZM28.6338 47.7695L29.1722 48.6123L29.1804 48.6069L28.6338 47.7695ZM18.5166 48.8633L18.7512 47.8912L18.7424 47.8891L18.7335 47.8871L18.5166 48.8633ZM17.9355 47.8037L18.8842 48.1199L18.8911 48.0993L18.8971 48.0784L17.9355 47.8037ZM18.209 46.8467L19.1705 47.1214L19.177 47.0987L19.1824 47.0757L18.209 46.8467ZM19.2686 46.2998L19.026 47.2699L19.0333 47.2718L19.0407 47.2735L19.2686 46.2998ZM26.6855 39.2246L26.0233 39.974L26.0333 39.9826L26.6855 39.2246ZM26.4805 34.2002L25.8461 33.4271L25.8363 33.4353L26.4805 34.2002ZM26.5488 28.2529L25.989 29.0815L25.9968 29.0868L26.0046 29.0919L26.5488 28.2529ZM19.6104 27.7744L19.3825 26.8007L19.3751 26.8024L19.3678 26.8043L19.6104 27.7744ZM18.5508 27.2275L19.5242 26.9985L19.5188 26.9755L19.5123 26.9528L18.5508 27.2275ZM19.226 25.9543C19.231 25.9693 19.2347 25.9822 19.2373 25.9923C19.24 26.0025 19.2418 26.0107 19.243 26.0167C19.2453 26.0283 19.2458 26.0338 19.2456 26.0319C19.2454 26.0302 19.2447 26.0236 19.2442 26.0115C19.2436 25.9994 19.2432 25.9834 19.2432 25.9629H17.2432C17.2432 26.1288 17.2538 26.362 17.3287 26.5867L19.226 25.9543ZM19.2432 25.9629C19.2432 25.9428 19.2458 25.9523 19.2367 25.9816C19.2268 26.0134 19.2066 26.057 19.1709 26.1005C19.0941 26.1944 19.0235 26.1986 19.0753 26.1871L18.6415 24.2348C18.2831 24.3144 17.9049 24.4895 17.623 24.834C17.3389 25.1813 17.2432 25.5898 17.2432 25.9629H19.2432ZM19.1009 26.1811C20.2946 25.8827 21.5346 25.7324 22.8232 25.7324V23.7324C21.3775 23.7324 19.9743 23.9012 18.6159 24.2408L19.1009 26.1811ZM22.8232 25.7324C24.905 25.7324 26.5834 26.1984 27.914 27.0722L29.0118 25.4005C27.289 24.2691 25.2076 23.7324 22.8232 23.7324V25.7324ZM27.9228 27.0779C29.1143 27.8426 29.7529 29.0327 29.7529 30.8506H31.7529C31.7529 28.4758 30.8649 26.5897 29.003 25.3947L27.9228 27.0779ZM29.7529 30.8506C29.7529 31.9722 29.4708 32.8636 28.9521 33.579L30.5713 34.753C31.3742 33.6455 31.7529 32.3267 31.7529 30.8506H29.7529ZM28.9494 33.5828C28.4245 34.314 27.5893 35.0217 26.3787 35.6801L27.3342 37.4371C28.7212 36.6827 29.8229 35.7954 30.574 34.7492L28.9494 33.5828ZM26.4439 37.4695C27.4854 37.9412 28.3516 38.6565 29.0505 39.6349L30.678 38.4725C29.7818 37.2179 28.6428 36.2698 27.269 35.6476L26.4439 37.4695ZM29.0643 39.6537C29.7417 40.5569 30.0947 41.6398 30.0947 42.9502H32.0947C32.0947 41.2528 31.6275 39.738 30.6643 38.4537L29.0643 39.6537ZM30.0947 42.9502C30.0947 44.7917 29.415 46.0654 28.0872 46.9322L29.1804 48.6069C31.1338 47.3318 32.0947 45.3925 32.0947 42.9502H30.0947ZM28.0954 46.9268C26.6459 47.8529 24.8481 48.3418 22.6523 48.3418V50.3418C25.1506 50.3418 27.3404 49.7825 29.1722 48.6122L28.0954 46.9268ZM22.6523 48.3418C21.2914 48.3418 19.9919 48.1907 18.7512 47.8912L18.282 49.8354C19.6846 50.1739 21.1422 50.3418 22.6523 50.3418V48.3418ZM18.7335 47.8871C18.6817 47.8756 18.7523 47.8798 18.8291 47.9737C18.8648 48.0173 18.885 48.0608 18.8949 48.0926C18.904 48.1219 18.9014 48.1315 18.9014 48.1113H16.9014C16.9014 48.4844 16.9971 48.8929 17.2812 49.2402C17.5631 49.5847 17.9414 49.7598 18.2997 49.8395L18.7335 47.8871ZM18.9014 48.1113C18.9014 48.0908 18.9018 48.0748 18.9024 48.0628C18.903 48.0506 18.9036 48.0441 18.9038 48.0423C18.904 48.0404 18.9035 48.0459 18.9012 48.0575C18.9 48.0635 18.8982 48.0717 18.8955 48.0819C18.8929 48.0921 18.8892 48.1049 18.8842 48.1199L16.9869 47.4875C16.912 47.7122 16.9014 47.9454 16.9014 48.1113H18.9014ZM18.8971 48.0784L19.1705 47.1214L17.2475 46.572L16.974 47.529L18.8971 48.0784ZM19.1824 47.0757C19.1922 47.0342 19.1834 47.1092 19.086 47.1881C18.9856 47.2694 18.9016 47.2656 18.9268 47.2656V45.2656C18.5645 45.2656 18.1672 45.3587 17.8276 45.6336C17.4909 45.9062 17.3169 46.2718 17.2356 46.6176L19.1824 47.0757ZM18.9268 47.2656C18.968 47.2656 18.9969 47.2674 19.0152 47.2692C19.034 47.2711 19.0363 47.2725 19.026 47.2699L19.5111 45.3297C19.3136 45.2803 19.1117 45.2656 18.9268 45.2656V47.2656ZM19.0407 47.2735C20.1918 47.5429 21.3966 47.6758 22.6523 47.6758V45.6758C21.5383 45.6758 20.4872 45.558 19.4964 45.3261L19.0407 47.2735ZM22.6523 47.6758C24.5831 47.6758 26.2137 47.3181 27.3803 46.4412C28.6008 45.524 29.1553 44.1618 29.1553 42.54H27.1553C27.1553 43.6754 26.7926 44.3811 26.1787 44.8424C25.5111 45.3442 24.3902 45.6758 22.6523 45.6758V47.6758ZM29.1553 42.54C29.1553 40.9007 28.5525 39.5118 27.3378 38.4666L26.0333 39.9826C26.7782 40.6236 27.1553 41.445 27.1553 42.54H29.1553ZM27.3477 38.4753C26.1524 37.4189 24.6374 36.9258 22.8916 36.9258V38.9258C24.2448 38.9258 25.2591 39.2985 26.0233 39.9739L27.3477 38.4753ZM22.8916 36.9258H21.1484V38.9258H22.8916V36.9258ZM21.1484 36.9258C21.0864 36.9258 21.0728 36.9177 21.0908 36.9237C21.1137 36.9313 21.1637 36.9541 21.2147 37.0051C21.2656 37.056 21.2884 37.106 21.296 37.1289C21.3021 37.147 21.2939 37.1334 21.2939 37.0713H19.2939C19.2939 37.5103 19.4044 38.0232 19.8005 38.4193C20.1966 38.8154 20.7095 38.9258 21.1484 38.9258V36.9258ZM21.2939 37.0713V36.1484H19.2939V37.0713H21.2939ZM21.2939 36.1484C21.2939 36.0864 21.3021 36.0728 21.296 36.0908C21.2884 36.1137 21.2656 36.1637 21.2147 36.2147C21.1637 36.2656 21.1137 36.2884 21.0908 36.296C21.0728 36.3021 21.0864 36.2939 21.1484 36.2939V34.2939C20.7095 34.2939 20.1966 34.4044 19.8005 34.8005C19.4044 35.1966 19.2939 35.7095 19.2939 36.1484H21.2939ZM21.1484 36.2939H22.8916V34.2939H21.1484V36.2939ZM22.8916 36.2939C24.5715 36.2939 26.024 35.8919 27.1246 34.9651L25.8363 33.4353C25.2051 33.9668 24.2651 34.2939 22.8916 34.2939V36.2939ZM27.1148 34.9733C28.2836 34.0143 28.8135 32.6418 28.8135 31.0215H26.8135C26.8135 32.1811 26.4547 32.9278 25.8462 33.4271L27.1148 34.9733ZM28.8135 31.0215C28.8135 29.4954 28.3028 28.1987 27.093 27.414L26.0046 29.0919C26.4811 29.4009 26.8135 29.9499 26.8135 31.0215H28.8135ZM27.1087 27.4243C26.0272 26.6936 24.5519 26.3984 22.8232 26.3984V28.3984C24.3758 28.3984 25.3842 28.6729 25.989 29.0815L27.1087 27.4243ZM22.8232 26.3984C21.6735 26.3984 20.5261 26.5331 19.3825 26.8007L19.8382 28.7481C20.8365 28.5145 21.8311 28.3984 22.8232 28.3984V26.3984ZM19.3678 26.8043C19.3781 26.8017 19.3758 26.8031 19.357 26.805C19.3387 26.8068 19.3098 26.8086 19.2686 26.8086V28.8086C19.4535 28.8086 19.6554 28.7939 19.8529 28.7446L19.3678 26.8043ZM19.2686 26.8086C19.2434 26.8086 19.3274 26.8048 19.4278 26.8861C19.5252 26.965 19.534 27.04 19.5242 26.9985L17.5774 27.4566C17.6587 27.8024 17.8327 28.168 18.1694 28.4406C18.509 28.7155 18.9063 28.8086 19.2686 28.8086V26.8086ZM19.5123 26.9528L19.2389 25.9958L17.3158 26.5452L17.5893 27.5023L19.5123 26.9528ZM48.0479 26.2363L47.4019 26.9997L47.4098 27.0064L47.4178 27.0129L48.0479 26.2363ZM50.8164 30.5088L49.87 30.8319L49.8713 30.8355L50.8164 30.5088ZM50.8164 43.5996L51.7615 43.9263L51.7628 43.9228L50.8164 43.5996ZM48.0479 47.8721L48.6851 48.6427L48.6866 48.6415L48.0479 47.8721ZM39.6055 47.8721L38.9667 48.6415L38.9754 48.6486L39.6055 47.8721ZM36.8369 43.5996L35.8906 43.9228L35.8918 43.9263L36.8369 43.5996ZM36.8369 30.5088L37.782 30.8355L37.7833 30.8319L36.8369 30.5088ZM39.6055 26.2363L40.2355 27.0129L40.2442 27.0057L39.6055 26.2363ZM40.1523 29.9619L41.0373 30.4277L41.0397 30.4229L40.1523 29.9619ZM38.9561 39.9766L37.9622 40.087L38.1919 42.1549L39.6632 40.6837L38.9561 39.9766ZM47.9795 30.9531L48.6866 31.6602L49.1408 31.206L48.9166 30.604L47.9795 30.9531ZM46.2705 28.2871L45.6002 29.0292L45.6069 29.0353L45.6137 29.0412L46.2705 28.2871ZM47.501 44.1123L46.616 43.6465L46.6113 43.6558L47.501 44.1123ZM48.6973 34.0635L49.6911 33.953L49.4614 31.8851L47.9902 33.3564L48.6973 34.0635ZM39.708 43.0527L39.0009 42.3456L38.5498 42.7967L38.7687 43.3959L39.708 43.0527ZM41.417 45.7871L40.7467 46.5292L40.7534 46.5353L40.7602 46.5412L41.417 45.7871ZM43.8438 25.7324C45.236 25.7324 46.4057 26.1568 47.4019 26.9997L48.6938 25.4729C47.3202 24.3107 45.6872 23.7324 43.8438 23.7324V25.7324ZM47.4178 27.0129C48.4449 27.8462 49.2766 29.0938 49.8701 30.8319L51.7628 30.1856C51.0802 28.1868 50.0661 26.5861 48.6779 25.4598L47.4178 27.0129ZM49.8713 30.8355C50.4643 32.5511 50.7734 34.6119 50.7734 37.0371H52.7734C52.7734 34.4493 52.4445 32.1579 51.7615 30.1821L49.8713 30.8355ZM50.7734 37.0371C50.7734 39.4619 50.4645 41.5357 49.8701 43.2765L51.7628 43.9228C52.4444 41.9265 52.7734 39.6253 52.7734 37.0371H50.7734ZM49.8713 43.2729C49.2785 44.9877 48.4455 46.2423 47.4091 47.1027L48.6866 48.6415C50.0656 47.4967 51.0783 45.9029 51.7615 43.9263L49.8713 43.2729ZM47.4106 47.1014C46.4148 47.9248 45.2421 48.3418 43.8438 48.3418V50.3418C45.6811 50.3418 47.3111 49.7789 48.6851 48.6427L47.4106 47.1014ZM43.8438 48.3418C42.4453 48.3418 41.2574 47.9246 40.2355 47.0955L38.9754 48.6486C40.3689 49.7792 42.0065 50.3418 43.8438 50.3418V48.3418ZM40.2442 47.1027C39.2078 46.2423 38.3748 44.9877 37.782 43.2729L35.8918 43.9263C36.575 45.9029 37.5877 47.4967 38.9667 48.6415L40.2442 47.1027ZM37.7833 43.2765C37.1889 41.5357 36.8799 39.4619 36.8799 37.0371H34.8799C34.8799 39.6253 35.2089 41.9265 35.8906 43.9228L37.7833 43.2765ZM36.8799 37.0371C36.8799 34.6119 37.189 32.5511 37.782 30.8355L35.8918 30.1821C35.2088 32.1579 34.8799 34.4493 34.8799 37.0371H36.8799ZM37.7833 30.8319C38.3768 29.0938 39.2084 27.8462 40.2355 27.0129L38.9754 25.4598C37.5872 26.5861 36.5731 28.1868 35.8906 30.1856L37.7833 30.8319ZM40.2442 27.0057C41.2665 26.1571 42.4514 25.7324 43.8438 25.7324V23.7324C42.0004 23.7324 40.3598 24.3104 38.9667 25.4669L40.2442 27.0057ZM43.8438 26.3301C41.8134 26.3301 40.2924 27.523 39.2649 29.5009L41.0397 30.4229C41.8352 28.8917 42.7751 28.3301 43.8438 28.3301V26.3301ZM39.2674 29.4962C38.251 31.4275 37.7852 33.9676 37.7852 37.0371H39.7852C39.7852 34.1365 40.2308 31.9599 41.0373 30.4277L39.2674 29.4962ZM37.7852 37.0371C37.7852 38.0118 37.8446 39.0287 37.9622 40.087L39.9499 39.8661C39.8397 38.8737 39.7852 37.9309 39.7852 37.0371H37.7852ZM39.6632 40.6837L48.6866 31.6602L47.2724 30.246L38.2489 39.2695L39.6632 40.6837ZM48.9166 30.604C48.4436 29.3345 47.7936 28.2875 46.9273 27.533L45.6137 29.0412C46.1602 29.5172 46.6495 30.2476 47.0424 31.3022L48.9166 30.604ZM46.9408 27.545C46.0596 26.7491 45.0147 26.3301 43.8438 26.3301V28.3301C44.4958 28.3301 45.0687 28.5491 45.6002 29.0292L46.9408 27.545ZM43.8438 47.71C45.8702 47.71 47.383 46.5326 48.3907 44.5689L46.6113 43.6558C45.8417 45.1555 44.9162 45.71 43.8438 45.71V47.71ZM48.3859 44.5781C49.4024 42.6468 49.8682 40.1066 49.8682 37.0371H47.8682C47.8682 39.9377 47.4225 42.1143 46.6161 43.6466L48.3859 44.5781ZM49.8682 37.0371C49.8682 36.0405 49.8088 35.0123 49.6911 33.953L47.7034 34.1739C47.8136 35.1654 47.8682 36.1197 47.8682 37.0371H49.8682ZM47.9902 33.3564L39.0009 42.3456L40.4151 43.7598L49.4044 34.7706L47.9902 33.3564ZM38.7687 43.3959C39.2401 44.6859 39.8867 45.7524 40.7467 46.5292L42.0873 45.045C41.5345 44.5458 41.0418 43.7894 40.6473 42.7095L38.7687 43.3959ZM40.7602 46.5412C41.6431 47.3102 42.6836 47.71 43.8438 47.71V45.71C43.181 45.71 42.6036 45.4945 42.0738 45.033L40.7602 46.5412Z" fill="white" mask="url(#path-3-outside-1_1144_19)"/>
</svg>
