<svg width="95" height="100" viewBox="0 0 95 100" fill="none" xmlns="http://www.w3.org/2000/svg">
<mask id="path-1-inside-1_2929_5612" fill="white">
<path d="M57.4365 41.8438C57.9248 41.8438 58.3154 42.0065 58.6084 42.332C58.9339 42.625 59.0967 43.0156 59.0967 43.5039V45.9453C59.0967 47.2799 58.9176 48.582 58.5596 49.8516C58.234 51.0885 57.6644 52.4883 56.8506 54.0508L52.0654 63.084C49.8193 67.3809 48.6963 71.4661 48.6963 75.3398C48.6963 75.8281 48.5335 76.235 48.208 76.5605C47.8825 76.8535 47.4593 77 46.9385 77H45.2783C44.7575 77 44.3343 76.8535 44.0088 76.5605C43.7158 76.235 43.5693 75.8281 43.5693 75.3398C43.5693 71.3359 44.9202 66.5833 47.6221 61.082L52.0166 52.293C52.6676 50.9583 53.1396 49.8678 53.4326 49.0215C53.7581 48.1426 53.9372 47.3125 53.9697 46.5312H42.251V51.2188C42.251 51.7396 42.0882 52.1628 41.7627 52.4883C41.4697 52.7812 41.0628 52.9277 40.542 52.9277H38.833C38.3447 52.9277 37.9378 52.765 37.6123 52.4395C37.2868 52.1139 37.124 51.707 37.124 51.2188V43.5527C37.124 43.0319 37.2868 42.625 37.6123 42.332C37.9378 42.0065 38.3447 41.8438 38.833 41.8438H57.4365Z"/>
</mask>
<path d="M57.4365 41.8438C57.9248 41.8438 58.3154 42.0065 58.6084 42.332C58.9339 42.625 59.0967 43.0156 59.0967 43.5039V45.9453C59.0967 47.2799 58.9176 48.582 58.5596 49.8516C58.234 51.0885 57.6644 52.4883 56.8506 54.0508L52.0654 63.084C49.8193 67.3809 48.6963 71.4661 48.6963 75.3398C48.6963 75.8281 48.5335 76.235 48.208 76.5605C47.8825 76.8535 47.4593 77 46.9385 77H45.2783C44.7575 77 44.3343 76.8535 44.0088 76.5605C43.7158 76.235 43.5693 75.8281 43.5693 75.3398C43.5693 71.3359 44.9202 66.5833 47.6221 61.082L52.0166 52.293C52.6676 50.9583 53.1396 49.8678 53.4326 49.0215C53.7581 48.1426 53.9372 47.3125 53.9697 46.5312H42.251V51.2188C42.251 51.7396 42.0882 52.1628 41.7627 52.4883C41.4697 52.7812 41.0628 52.9277 40.542 52.9277H38.833C38.3447 52.9277 37.9378 52.765 37.6123 52.4395C37.2868 52.1139 37.124 51.707 37.124 51.2188V43.5527C37.124 43.0319 37.2868 42.625 37.6123 42.332C37.9378 42.0065 38.3447 41.8438 38.833 41.8438H57.4365Z" fill="black"/>
<path d="M58.6084 42.332L57.8651 43.001L57.9003 43.0401L57.9394 43.0753L58.6084 42.332ZM58.5596 49.8516L57.5971 49.5801L57.5947 49.5886L57.5925 49.5971L58.5596 49.8516ZM56.8506 54.0508L57.7343 54.5189L57.7375 54.5127L56.8506 54.0508ZM52.0654 63.084L51.1817 62.6159L51.1792 62.6207L52.0654 63.084ZM48.208 76.5605L48.877 77.3038L48.8965 77.2862L48.9151 77.2677L48.208 76.5605ZM44.0088 76.5605L43.2655 77.2295L43.3007 77.2686L43.3398 77.3038L44.0088 76.5605ZM47.6221 61.082L46.7276 60.6348L46.7245 60.6412L47.6221 61.082ZM52.0166 52.293L52.9111 52.7402L52.9154 52.7314L52.0166 52.293ZM53.4326 49.0215L52.4949 48.6742L52.4911 48.6842L52.4876 48.6944L53.4326 49.0215ZM53.9697 46.5312L54.9689 46.5729L55.0123 45.5312H53.9697V46.5312ZM42.251 46.5312V45.5312H41.251V46.5312H42.251ZM41.7627 52.4883L42.4698 53.1954L41.7627 52.4883ZM37.6123 52.4395L36.9052 53.1466L37.6123 52.4395ZM37.6123 42.332L38.2813 43.0753L38.3008 43.0577L38.3194 43.0391L37.6123 42.332ZM57.4365 42.8438C57.6776 42.8438 57.7848 42.9117 57.8651 43.001L59.3517 41.6631C58.8461 41.1013 58.172 40.8438 57.4365 40.8438V42.8438ZM57.9394 43.0753C58.0287 43.1557 58.0967 43.2628 58.0967 43.5039H60.0967C60.0967 42.7684 59.8391 42.0943 59.2774 41.5887L57.9394 43.0753ZM58.0967 43.5039V45.9453H60.0967V43.5039H58.0967ZM58.0967 45.9453C58.0967 47.1893 57.93 48.4 57.5971 49.5801L59.522 50.123C59.9053 48.7641 60.0967 47.3706 60.0967 45.9453H58.0967ZM57.5925 49.5971C57.2915 50.7409 56.755 52.0695 55.9637 53.5888L57.7375 54.5127C58.5738 52.9071 59.1766 51.4362 59.5266 50.1061L57.5925 49.5971ZM55.9669 53.5827L51.1818 62.6159L52.9491 63.5521L57.7343 54.5189L55.9669 53.5827ZM51.1792 62.6207C48.8768 67.0253 47.6963 71.2692 47.6963 75.3398H49.6963C49.6963 71.663 50.7619 67.7364 52.9517 63.5472L51.1792 62.6207ZM47.6963 75.3398C47.6963 75.5808 47.6266 75.7277 47.5009 75.8534L48.9151 77.2677C49.4404 76.7423 49.6963 76.0755 49.6963 75.3398H47.6963ZM47.539 75.8173C47.4308 75.9147 47.2617 76 46.9385 76V78C47.657 78 48.3342 77.7924 48.877 77.3038L47.539 75.8173ZM46.9385 76H45.2783V78H46.9385V76ZM45.2783 76C44.9551 76 44.786 75.9147 44.6778 75.8173L43.3398 77.3038C43.8826 77.7924 44.5598 78 45.2783 78V76ZM44.7521 75.8916C44.6438 75.7712 44.5693 75.6117 44.5693 75.3398H42.5693C42.5693 76.0446 42.7879 76.6988 43.2655 77.2295L44.7521 75.8916ZM44.5693 75.3398C44.5693 71.5484 45.8528 66.953 48.5197 61.5229L46.7245 60.6412C43.9877 66.2136 42.5693 71.1235 42.5693 75.3398H44.5693ZM48.5165 61.5292L52.911 52.7402L51.1222 51.8458L46.7276 60.6348L48.5165 61.5292ZM52.9154 52.7314C53.5742 51.3808 54.0658 50.2495 54.3776 49.3486L52.4876 48.6944C52.2135 49.4862 51.7611 50.5359 51.1178 51.8545L52.9154 52.7314ZM54.3704 49.3688C54.7252 48.4107 54.9312 47.477 54.9689 46.5729L52.9706 46.4896C52.9432 47.148 52.7911 47.8745 52.4949 48.6742L54.3704 49.3688ZM53.9697 45.5312H42.251V47.5312H53.9697V45.5312ZM41.251 46.5312V51.2188H43.251V46.5312H41.251ZM41.251 51.2188C41.251 51.5123 41.1683 51.6684 41.0556 51.7812L42.4698 53.1954C43.0081 52.6571 43.251 51.9668 43.251 51.2188H41.251ZM41.0556 51.7812C40.9955 51.8413 40.8695 51.9277 40.542 51.9277V53.9277C41.2562 53.9277 41.9439 53.7212 42.4698 53.1954L41.0556 51.7812ZM40.542 51.9277H38.833V53.9277H40.542V51.9277ZM38.833 51.9277C38.5921 51.9277 38.4451 51.8581 38.3194 51.7323L36.9052 53.1466C37.4305 53.6719 38.0974 53.9277 38.833 53.9277V51.9277ZM38.3194 51.7323C38.1937 51.6066 38.124 51.4597 38.124 51.2188H36.124C36.124 51.9544 36.3799 52.6212 36.9052 53.1466L38.3194 51.7323ZM38.124 51.2188V43.5527H36.124V51.2188H38.124ZM38.124 43.5527C38.124 43.2568 38.2064 43.1427 38.2813 43.0753L36.9433 41.5887C36.3672 42.1073 36.124 42.807 36.124 43.5527H38.124ZM38.3194 43.0391C38.4451 42.9134 38.5921 42.8438 38.833 42.8438V40.8438C38.0974 40.8438 37.4305 41.0996 36.9052 41.6249L38.3194 43.0391ZM38.833 42.8438H57.4365V40.8438H38.833V42.8438Z" fill="black" mask="url(#path-1-inside-1_2929_5612)"/>
<path d="M5.2032 76.1394C6.35823 86.6297 14.734 94.9584 25.0913 95.4662C32.2502 95.8173 39.5632 95.9998 47.5001 95.9998C55.4371 95.9998 62.75 95.8173 69.9089 95.4662C80.2663 94.9584 88.6421 86.6297 89.7968 76.1394C91.4011 61.5698 91.4011 49.1624 89.7968 34.5926C88.6421 24.1026 80.2663 15.7737 69.9089 15.2659C62.7501 14.9149 55.4371 14.7324 47.5001 14.7324C39.5632 14.7324 32.2502 14.9149 25.0913 15.2659C14.734 15.7737 6.35823 24.1026 5.2032 34.5926C3.59893 49.1624 3.59894 61.5698 5.2032 76.1394Z" stroke="black" stroke-width="6.5" stroke-linecap="round" stroke-linejoin="round"/>
<path d="M28.3477 4V24.2403" stroke="black" stroke-width="6.5" stroke-linecap="round" stroke-linejoin="round"/>
<path d="M66.6445 4V24.2403" stroke="black" stroke-width="6.5" stroke-linecap="round" stroke-linejoin="round"/>
</svg>
