<svg width="95" height="100" viewBox="0 0 95 100" fill="none" xmlns="http://www.w3.org/2000/svg">
<mask id="path-1-inside-1_2932_5614" fill="white">
<path d="M28.6406 45.75C28.6146 45.6458 28.6016 45.5026 28.6016 45.3203C28.6016 44.6172 28.9401 44.1875 29.6172 44.0312C31.1276 43.6667 32.6641 43.4844 34.2266 43.4844C37.1693 43.4844 39.474 44.1484 41.1406 45.4766C42.8333 46.7786 43.6797 48.5755 43.6797 50.8672C43.6797 52.2474 43.3542 53.4714 42.7031 54.5391C42.0521 55.5807 41.0365 56.5182 39.6562 57.3516C41.0365 58.1328 42.1172 59.1745 42.8984 60.4766C43.6797 61.7526 44.0703 63.1589 44.0703 64.6953C44.0703 66.2578 43.6536 67.625 42.8203 68.7969C42.013 69.9427 40.8411 70.8281 39.3047 71.4531C37.7943 72.0781 36.0365 72.3906 34.0312 72.3906C32.3646 72.3906 30.763 72.2083 29.2266 71.8438C28.5495 71.6875 28.2109 71.2578 28.2109 70.5547C28.2109 70.3724 28.224 70.2292 28.25 70.125L28.5625 69.0312C28.7708 68.4062 29.1745 68.0938 29.7734 68.0938C29.9818 68.0938 30.138 68.1068 30.2422 68.1328C31.5182 68.4193 32.7812 68.5625 34.0312 68.5625C37.9635 68.5625 39.9297 67.1172 39.9297 64.2266C39.9297 62.7943 39.4089 61.6224 38.3672 60.7109C37.3255 59.7995 35.9714 59.3438 34.3047 59.3438H32.3125C31.8958 59.3438 31.5573 59.2266 31.2969 58.9922C31.0625 58.7318 30.9453 58.3932 30.9453 57.9766V56.9219C30.9453 56.5052 31.0625 56.1797 31.2969 55.9453C31.5573 55.6849 31.8958 55.5547 32.3125 55.5547H34.3047C35.9974 55.5547 37.2865 55.1641 38.1719 54.3828C39.0833 53.6016 39.5391 52.4948 39.5391 51.0625C39.5391 49.7604 39.1094 48.8099 38.25 48.2109C37.4167 47.612 36.0755 47.3125 34.2266 47.3125C33.1068 47.3125 31.9089 47.4557 30.6328 47.7422C30.5286 47.7682 30.3724 47.7812 30.1641 47.7812C29.5651 47.7812 29.1615 47.4688 28.9531 46.8438L28.6406 45.75ZM58.25 43.4844C60.1771 43.4844 61.8438 44.0703 63.25 45.2422C64.6823 46.4141 65.776 48.0938 66.5312 50.2812C67.3125 52.4427 67.7031 54.9948 67.7031 57.9375C67.7031 60.8802 67.3125 63.4453 66.5312 65.6328C65.776 67.7943 64.6823 69.4609 63.25 70.6328C61.8438 71.8047 60.1771 72.3906 58.25 72.3906C56.3229 72.3906 54.6432 71.8047 53.2109 70.6328C51.7786 69.4609 50.6719 67.7943 49.8906 65.6328C49.1354 63.4453 48.7578 60.8802 48.7578 57.9375C48.7578 54.9948 49.1354 52.4427 49.8906 50.2812C50.6719 48.0938 51.7786 46.4141 53.2109 45.2422C54.6432 44.0703 56.3229 43.4844 58.25 43.4844ZM58.25 47.2344C56.6094 47.2344 55.2943 48.1979 54.3047 50.125C53.3411 52.0521 52.8594 54.6562 52.8594 57.9375C52.8594 59.1094 52.9115 60.112 53.0156 60.9453L62.6641 51.2969C62.2214 49.9948 61.6094 48.9922 60.8281 48.2891C60.0729 47.5859 59.2135 47.2344 58.25 47.2344ZM58.25 68.6016C59.8906 68.6016 61.1927 67.651 62.1562 65.75C63.1198 63.8229 63.6016 61.2188 63.6016 57.9375C63.6016 56.7396 63.5495 55.724 63.4453 54.8906L53.7969 64.5391C54.2656 65.8411 54.8776 66.8438 55.6328 67.5469C56.4141 68.25 57.2865 68.6016 58.25 68.6016Z"/>
</mask>
<path d="M28.6406 45.75C28.6146 45.6458 28.6016 45.5026 28.6016 45.3203C28.6016 44.6172 28.9401 44.1875 29.6172 44.0312C31.1276 43.6667 32.6641 43.4844 34.2266 43.4844C37.1693 43.4844 39.474 44.1484 41.1406 45.4766C42.8333 46.7786 43.6797 48.5755 43.6797 50.8672C43.6797 52.2474 43.3542 53.4714 42.7031 54.5391C42.0521 55.5807 41.0365 56.5182 39.6562 57.3516C41.0365 58.1328 42.1172 59.1745 42.8984 60.4766C43.6797 61.7526 44.0703 63.1589 44.0703 64.6953C44.0703 66.2578 43.6536 67.625 42.8203 68.7969C42.013 69.9427 40.8411 70.8281 39.3047 71.4531C37.7943 72.0781 36.0365 72.3906 34.0312 72.3906C32.3646 72.3906 30.763 72.2083 29.2266 71.8438C28.5495 71.6875 28.2109 71.2578 28.2109 70.5547C28.2109 70.3724 28.224 70.2292 28.25 70.125L28.5625 69.0312C28.7708 68.4062 29.1745 68.0938 29.7734 68.0938C29.9818 68.0938 30.138 68.1068 30.2422 68.1328C31.5182 68.4193 32.7812 68.5625 34.0312 68.5625C37.9635 68.5625 39.9297 67.1172 39.9297 64.2266C39.9297 62.7943 39.4089 61.6224 38.3672 60.7109C37.3255 59.7995 35.9714 59.3438 34.3047 59.3438H32.3125C31.8958 59.3438 31.5573 59.2266 31.2969 58.9922C31.0625 58.7318 30.9453 58.3932 30.9453 57.9766V56.9219C30.9453 56.5052 31.0625 56.1797 31.2969 55.9453C31.5573 55.6849 31.8958 55.5547 32.3125 55.5547H34.3047C35.9974 55.5547 37.2865 55.1641 38.1719 54.3828C39.0833 53.6016 39.5391 52.4948 39.5391 51.0625C39.5391 49.7604 39.1094 48.8099 38.25 48.2109C37.4167 47.612 36.0755 47.3125 34.2266 47.3125C33.1068 47.3125 31.9089 47.4557 30.6328 47.7422C30.5286 47.7682 30.3724 47.7812 30.1641 47.7812C29.5651 47.7812 29.1615 47.4688 28.9531 46.8438L28.6406 45.75ZM58.25 43.4844C60.1771 43.4844 61.8438 44.0703 63.25 45.2422C64.6823 46.4141 65.776 48.0938 66.5312 50.2812C67.3125 52.4427 67.7031 54.9948 67.7031 57.9375C67.7031 60.8802 67.3125 63.4453 66.5312 65.6328C65.776 67.7943 64.6823 69.4609 63.25 70.6328C61.8438 71.8047 60.1771 72.3906 58.25 72.3906C56.3229 72.3906 54.6432 71.8047 53.2109 70.6328C51.7786 69.4609 50.6719 67.7943 49.8906 65.6328C49.1354 63.4453 48.7578 60.8802 48.7578 57.9375C48.7578 54.9948 49.1354 52.4427 49.8906 50.2812C50.6719 48.0938 51.7786 46.4141 53.2109 45.2422C54.6432 44.0703 56.3229 43.4844 58.25 43.4844ZM58.25 47.2344C56.6094 47.2344 55.2943 48.1979 54.3047 50.125C53.3411 52.0521 52.8594 54.6562 52.8594 57.9375C52.8594 59.1094 52.9115 60.112 53.0156 60.9453L62.6641 51.2969C62.2214 49.9948 61.6094 48.9922 60.8281 48.2891C60.0729 47.5859 59.2135 47.2344 58.25 47.2344ZM58.25 68.6016C59.8906 68.6016 61.1927 67.651 62.1562 65.75C63.1198 63.8229 63.6016 61.2188 63.6016 57.9375C63.6016 56.7396 63.5495 55.724 63.4453 54.8906L53.7969 64.5391C54.2656 65.8411 54.8776 66.8438 55.6328 67.5469C56.4141 68.25 57.2865 68.6016 58.25 68.6016Z" fill="black"/>
<path d="M28.6406 45.75L27.6705 45.9925L27.6745 46.0087L27.6791 46.0247L28.6406 45.75ZM29.6172 44.0312L29.8421 45.0057L29.8518 45.0033L29.6172 44.0312ZM41.1406 45.4766L40.5174 46.2586L40.5241 46.264L40.5309 46.2692L41.1406 45.4766ZM42.7031 54.5391L43.5512 55.0691L43.5569 55.0597L42.7031 54.5391ZM39.6562 57.3516L39.1394 56.4955L37.6754 57.3794L39.1637 58.2218L39.6562 57.3516ZM42.8984 60.4766L42.0409 60.9911L42.0456 60.9987L42.8984 60.4766ZM42.8203 68.7969L42.0053 68.2173L42.0028 68.2209L42.8203 68.7969ZM39.3047 71.4531L38.9279 70.5268L38.9223 70.5291L39.3047 71.4531ZM29.2266 71.8438L29.4574 70.8707L29.4514 70.8694L29.2266 71.8438ZM28.25 70.125L27.2885 69.8503L27.2839 69.8663L27.2799 69.8825L28.25 70.125ZM28.5625 69.0312L27.6138 68.715L27.6069 68.7356L27.601 68.7565L28.5625 69.0312ZM30.2422 68.1328L29.9997 69.103L30.0114 69.1059L30.0231 69.1085L30.2422 68.1328ZM31.2969 58.9922L30.5536 59.6612L30.5888 59.7003L30.6279 59.7355L31.2969 58.9922ZM31.2969 55.9453L32.004 56.6524L31.2969 55.9453ZM38.1719 54.3828L37.5211 53.6236L37.5156 53.6282L37.5103 53.633L38.1719 54.3828ZM38.25 48.2109L37.6664 49.023L37.6723 49.0272L37.6782 49.0313L38.25 48.2109ZM30.6328 47.7422L30.4138 46.7665L30.402 46.7691L30.3903 46.772L30.6328 47.7422ZM28.9531 46.8438L27.9916 47.1185L27.9976 47.1394L28.0044 47.16L28.9531 46.8438ZM29.6108 45.5075C29.6136 45.5188 29.6105 45.5103 29.6072 45.4739C29.6041 45.4391 29.6016 45.3888 29.6016 45.3203H27.6016C27.6016 45.5361 27.6156 45.7729 27.6705 45.9925L29.6108 45.5075ZM29.6016 45.3203C29.6016 45.2237 29.6133 45.1636 29.6232 45.1306C29.6323 45.0999 29.6404 45.0903 29.641 45.0896C29.6414 45.089 29.6478 45.0802 29.6726 45.0659C29.6996 45.0503 29.7519 45.0264 29.842 45.0056L29.3923 43.0569C28.893 43.1721 28.4146 43.4144 28.07 43.8518C27.7264 44.288 27.6016 44.8091 27.6016 45.3203H29.6016ZM29.8518 45.0033C31.285 44.6574 32.7427 44.4844 34.2266 44.4844V42.4844C32.5855 42.4844 30.9702 42.6759 29.3825 43.0592L29.8518 45.0033ZM34.2266 44.4844C37.028 44.4844 39.0846 45.1168 40.5174 46.2586L41.7638 44.6945C39.8633 43.18 37.3105 42.4844 34.2266 42.4844V44.4844ZM40.5309 46.2692C41.9575 47.3665 42.6797 48.8597 42.6797 50.8672H44.6797C44.6797 48.2913 43.7092 46.1908 41.7503 44.6839L40.5309 46.2692ZM42.6797 50.8672C42.6797 52.0834 42.395 53.1235 41.8493 54.0185L43.5569 55.0597C44.3133 53.8192 44.6797 52.4114 44.6797 50.8672H42.6797ZM41.8551 54.0091C41.3092 54.8826 40.4256 55.7189 39.1394 56.4955L40.1731 58.2076C41.6474 57.3175 42.795 56.2789 43.5511 55.0691L41.8551 54.0091ZM39.1637 58.2218C40.4005 58.9219 41.3526 59.8438 42.0409 60.9911L43.7559 59.9621C42.8818 58.5052 41.6724 57.3437 40.1488 56.4813L39.1637 58.2218ZM42.0456 60.9987C42.7279 62.1132 43.0703 63.3379 43.0703 64.6953H45.0703C45.0703 62.9798 44.6315 61.392 43.7513 59.9544L42.0456 60.9987ZM43.0703 64.6953C43.0703 66.069 42.7078 67.2295 42.0054 68.2174L43.6353 69.3764C44.5995 68.0205 45.0703 66.4466 45.0703 64.6953H43.0703ZM42.0028 68.2209C41.3247 69.1834 40.32 69.9606 38.9279 70.5268L39.6815 72.3794C41.3623 71.6957 42.7013 70.702 43.6378 69.3728L42.0028 68.2209ZM38.9223 70.5291C37.5573 71.094 35.9342 71.3906 34.0312 71.3906V73.3906C36.1388 73.3906 38.0313 73.0623 39.687 72.3771L38.9223 70.5291ZM34.0312 71.3906C32.438 71.3906 30.9142 71.2164 29.4574 70.8708L28.9957 72.8167C30.6119 73.2002 32.2911 73.3906 34.0312 73.3906V71.3906ZM29.4514 70.8694C29.3613 70.8486 29.309 70.8247 29.2819 70.8091C29.2571 70.7948 29.2508 70.786 29.2503 70.7854C29.2498 70.7847 29.2417 70.7751 29.2325 70.7444C29.2227 70.7114 29.2109 70.6513 29.2109 70.5547H27.2109C27.2109 71.0659 27.3357 71.587 27.6794 72.0232C28.024 72.4606 28.5023 72.7029 29.0017 72.8181L29.4514 70.8694ZM29.2109 70.5547C29.2109 70.4862 29.2134 70.4359 29.2166 70.4011C29.2199 70.3647 29.223 70.3562 29.2201 70.3675L27.2799 69.8825C27.225 70.1021 27.2109 70.3389 27.2109 70.5547H29.2109ZM29.2115 70.3997L29.524 69.306L27.601 68.7565L27.2885 69.8503L29.2115 70.3997ZM29.5112 69.3475C29.5707 69.1688 29.6283 69.123 29.6337 69.1188C29.6376 69.1158 29.6436 69.1117 29.6584 69.107C29.6749 69.1019 29.7107 69.0938 29.7734 69.0938V67.0938C29.2923 67.0938 28.8155 67.2229 28.4093 67.5374C28.011 67.8458 27.7626 68.2687 27.6138 68.715L29.5112 69.3475ZM29.7734 69.0938C29.8583 69.0938 29.9206 69.0965 29.9638 69.1001C30.0103 69.1039 30.0178 69.1075 29.9997 69.103L30.4847 67.1627C30.2582 67.106 30.0022 67.0938 29.7734 67.0938V69.0938ZM30.0231 69.1085C31.3678 69.4104 32.7042 69.5625 34.0312 69.5625V67.5625C32.8583 67.5625 31.6687 67.4282 30.4612 67.1571L30.0231 69.1085ZM34.0312 69.5625C36.0905 69.5625 37.8161 69.1893 39.0474 68.2842C40.336 67.3369 40.9297 65.9235 40.9297 64.2266H38.9297C38.9297 65.4203 38.5403 66.1748 37.8628 66.6728C37.1279 67.213 35.9043 67.5625 34.0312 67.5625V69.5625ZM40.9297 64.2266C40.9297 62.5174 40.2929 61.0671 39.0257 59.9584L37.7087 61.4635C38.5249 62.1777 38.9297 63.0712 38.9297 64.2266H40.9297ZM39.0257 59.9584C37.7662 58.8563 36.1618 58.3438 34.3047 58.3438V60.3438C35.781 60.3438 36.8849 60.7427 37.7087 61.4635L39.0257 59.9584ZM34.3047 58.3438H32.3125V60.3438H34.3047V58.3438ZM32.3125 58.3438C32.0935 58.3438 32.009 58.2877 31.9658 58.2489L30.6279 59.7355C31.1056 60.1654 31.6982 60.3438 32.3125 60.3438V58.3438ZM32.0402 58.3232C32.0014 58.2801 31.9453 58.1956 31.9453 57.9766H29.9453C29.9453 58.5909 30.1236 59.1834 30.5536 59.6612L32.0402 58.3232ZM31.9453 57.9766V56.9219H29.9453V57.9766H31.9453ZM31.9453 56.9219C31.9453 56.6985 32.0025 56.6539 32.004 56.6524L30.5898 55.2382C30.1225 55.7055 29.9453 56.3119 29.9453 56.9219H31.9453ZM32.004 56.6524C32.0516 56.6048 32.1231 56.5547 32.3125 56.5547V54.5547C31.6686 54.5547 31.063 54.765 30.5898 55.2382L32.004 56.6524ZM32.3125 56.5547H34.3047V54.5547H32.3125V56.5547ZM34.3047 56.5547C36.1367 56.5547 37.6999 56.1328 38.8335 55.1327L37.5103 53.633C36.873 54.1953 35.8581 54.5547 34.3047 54.5547V56.5547ZM38.8227 55.1421C39.9989 54.1339 40.5391 52.7247 40.5391 51.0625H38.5391C38.5391 52.2649 38.1678 53.0692 37.5211 53.6236L38.8227 55.1421ZM40.5391 51.0625C40.5391 49.5229 40.0154 48.2224 38.8218 47.3905L37.6782 49.0313C38.2034 49.3974 38.5391 49.9979 38.5391 51.0625H40.5391ZM38.8336 47.3989C37.7408 46.6134 36.138 46.3125 34.2266 46.3125V48.3125C36.013 48.3125 37.0926 48.6105 37.6664 49.023L38.8336 47.3989ZM34.2266 46.3125C33.022 46.3125 31.75 46.4665 30.4138 46.7665L30.8519 48.7179C32.0677 48.445 33.1915 48.3125 34.2266 48.3125V46.3125ZM30.3903 46.772C30.4084 46.7675 30.4009 46.7711 30.3545 46.7749C30.3112 46.7785 30.2489 46.7812 30.1641 46.7812V48.7812C30.3929 48.7812 30.6488 48.769 30.8753 48.7123L30.3903 46.772ZM30.1641 46.7812C30.1013 46.7812 30.0656 46.7731 30.049 46.768C30.0342 46.7633 30.0282 46.7592 30.0243 46.7562C30.0189 46.752 29.9614 46.7062 29.9018 46.5275L28.0044 47.16C28.1532 47.6063 28.4016 48.0292 28.7999 48.3376C29.2061 48.6521 29.6829 48.7812 30.1641 48.7812V46.7812ZM29.9146 46.569L29.6021 45.4753L27.6791 46.0247L27.9916 47.1185L29.9146 46.569ZM63.25 45.2422L62.6098 46.0104L62.6168 46.0161L63.25 45.2422ZM66.5312 50.2812L65.586 50.6076L65.5883 50.6144L65.5908 50.6212L66.5312 50.2812ZM66.5312 65.6328L65.5895 65.2965L65.5872 65.303L66.5312 65.6328ZM63.25 70.6328L62.6167 69.8588L62.6098 69.8646L63.25 70.6328ZM49.8906 65.6328L48.9454 65.9591L48.9477 65.966L48.9502 65.9727L49.8906 65.6328ZM49.8906 50.2812L48.9489 49.9449L48.9466 49.9514L49.8906 50.2812ZM54.3047 50.125L53.4151 49.6682L53.4103 49.6778L54.3047 50.125ZM53.0156 60.9453L52.0233 61.0693L52.277 63.0982L53.7227 61.6524L53.0156 60.9453ZM62.6641 51.2969L63.3712 52.004L63.8111 51.564L63.6108 50.975L62.6641 51.2969ZM60.8281 48.2891L60.1467 49.021L60.1529 49.0267L60.1592 49.0324L60.8281 48.2891ZM62.1562 65.75L63.0482 66.2021L63.0507 66.1972L62.1562 65.75ZM63.4453 54.8906L64.4376 54.7666L64.184 52.7377L62.7382 54.1835L63.4453 54.8906ZM53.7969 64.5391L53.0898 63.832L52.641 64.2807L52.856 64.8778L53.7969 64.5391ZM55.6328 67.5469L54.9514 68.2788L54.9576 68.2845L54.9638 68.2902L55.6328 67.5469ZM58.25 44.4844C59.9565 44.4844 61.3933 44.9966 62.6098 46.0104L63.8902 44.474C62.2942 43.144 60.3977 42.4844 58.25 42.4844V44.4844ZM62.6168 46.0161C63.8736 47.0445 64.8762 48.5517 65.586 50.6076L67.4765 49.9549C66.6759 47.6358 65.491 45.7837 63.8832 44.4682L62.6168 46.0161ZM65.5908 50.6212C66.3233 52.6479 66.7031 55.0798 66.7031 57.9375H68.7031C68.7031 54.9098 68.3017 52.2375 67.4717 49.9413L65.5908 50.6212ZM66.7031 57.9375C66.7031 60.7948 66.3235 63.2414 65.5895 65.2965L67.473 65.9691C68.3015 63.6493 68.7031 60.9656 68.7031 57.9375H66.7031ZM65.5872 65.303C64.8784 67.3317 63.8762 68.8284 62.6168 69.8589L63.8832 71.4068C65.4883 70.0935 66.6737 68.2569 67.4753 65.9627L65.5872 65.303ZM62.6098 69.8646C61.3933 70.8784 59.9565 71.3906 58.25 71.3906V73.3906C60.3977 73.3906 62.2942 72.731 63.8902 71.401L62.6098 69.8646ZM58.25 71.3906C56.5434 71.3906 55.09 70.8781 53.8442 69.8589L52.5777 71.4068C54.1965 72.7312 56.1024 73.3906 58.25 73.3906V71.3906ZM53.8442 69.8589C52.5817 68.8259 51.5657 67.3254 50.8311 65.2929L48.9502 65.9727C49.778 68.2632 50.9756 70.0959 52.5777 71.4068L53.8442 69.8589ZM50.8359 65.3065C50.1252 63.2481 49.7578 60.7979 49.7578 57.9375H47.7578C47.7578 60.9625 48.1456 63.6426 48.9454 65.9591L50.8359 65.3065ZM49.7578 57.9375C49.7578 55.0767 50.1254 52.6412 50.8347 50.6111L48.9466 49.9514C48.1455 52.2442 47.7578 54.9129 47.7578 57.9375H49.7578ZM50.8324 50.6176C51.5679 48.558 52.5843 47.0469 53.8442 46.0161L52.5777 44.4682C50.973 45.7812 49.7758 47.6295 48.9489 49.9449L50.8324 50.6176ZM53.8442 46.0161C55.09 44.9969 56.5434 44.4844 58.25 44.4844V42.4844C56.1024 42.4844 54.1965 43.1438 52.5777 44.4682L53.8442 46.0161ZM58.25 46.2344C56.1123 46.2344 54.5119 47.5324 53.4151 49.6682L55.1943 50.5818C56.0767 48.8634 57.1065 48.2344 58.25 48.2344V46.2344ZM53.4103 49.6778C52.3504 51.7974 51.8594 54.5749 51.8594 57.9375H53.8594C53.8594 54.7376 54.3318 52.3068 55.1991 50.5722L53.4103 49.6778ZM51.8594 57.9375C51.8594 59.136 51.9125 60.1824 52.0233 61.0693L54.0079 60.8213C53.9104 60.0416 53.8594 59.0828 53.8594 57.9375H51.8594ZM53.7227 61.6524L63.3712 52.004L61.957 50.5898L52.3085 60.2382L53.7227 61.6524ZM63.6108 50.975C63.1296 49.5595 62.4387 48.3933 61.4971 47.5458L60.1592 49.0324C60.78 49.5911 61.3131 50.4301 61.7173 51.6188L63.6108 50.975ZM61.5095 47.5572C60.5836 46.6951 59.4854 46.2344 58.25 46.2344V48.2344C58.9417 48.2344 59.5622 48.4768 60.1467 49.021L61.5095 47.5572ZM58.25 69.6016C60.384 69.6016 61.9743 68.3208 63.0482 66.2021L61.2643 65.2979C60.4111 66.9812 59.3973 67.6016 58.25 67.6016V69.6016ZM63.0507 66.1972C64.1105 64.0776 64.6016 61.3001 64.6016 57.9375H62.6016C62.6016 61.1374 62.1291 63.5682 61.2618 65.3028L63.0507 66.1972ZM64.6016 57.9375C64.6016 56.714 64.5486 55.6543 64.4376 54.7666L62.453 55.0147C62.5504 55.7936 62.6016 56.7651 62.6016 57.9375H64.6016ZM62.7382 54.1835L53.0898 63.832L54.504 65.2462L64.1524 55.5977L62.7382 54.1835ZM52.856 64.8778C53.3611 66.2808 54.0468 67.4365 54.9514 68.2788L56.3142 66.815C55.7084 66.251 55.1702 65.4015 54.7378 64.2003L52.856 64.8778ZM54.9638 68.2902C55.9106 69.1423 57.0161 69.6016 58.25 69.6016V67.6016C57.5568 67.6016 56.9175 67.3577 56.3018 66.8036L54.9638 68.2902Z" fill="black" mask="url(#path-1-inside-1_2932_5614)"/>
<path d="M5.2032 76.1394C6.35823 86.6297 14.734 94.9584 25.0913 95.4662C32.2502 95.8173 39.5632 95.9998 47.5001 95.9998C55.4371 95.9998 62.75 95.8173 69.9089 95.4662C80.2663 94.9584 88.6421 86.6297 89.7968 76.1394C91.4011 61.5698 91.4011 49.1624 89.7968 34.5926C88.6421 24.1026 80.2663 15.7737 69.9089 15.2659C62.7501 14.9149 55.4371 14.7324 47.5001 14.7324C39.5632 14.7324 32.2502 14.9149 25.0913 15.2659C14.734 15.7737 6.35823 24.1026 5.2032 34.5926C3.59893 49.1624 3.59894 61.5698 5.2032 76.1394Z" stroke="black" stroke-width="6.5" stroke-linecap="round" stroke-linejoin="round"/>
<path d="M28.3477 4V24.2403" stroke="black" stroke-width="6.5" stroke-linecap="round" stroke-linejoin="round"/>
<path d="M66.6445 4V24.2403" stroke="black" stroke-width="6.5" stroke-linecap="round" stroke-linejoin="round"/>
</svg>
