<svg width="24" height="24" viewBox="0 0 24 24" fill="none" xmlns="http://www.w3.org/2000/svg">
<path d="M9.23936 4.13281C7.74793 4.20138 6.28736 4.36253 4.86279 4.5271C4.05984 4.62179 3.31237 4.98477 2.74145 5.55725C2.17052 6.12973 1.80958 6.87818 1.71707 7.68138C1.51136 9.52938 1.3125 11.4408 1.3125 13.3951C1.3125 15.3511 1.51136 17.2625 1.71707 19.1122C1.90221 20.758 3.21707 22.0728 4.86279 22.2631C6.72107 22.4774 8.64107 22.6917 10.6056 22.6917C12.5719 22.6917 14.4919 22.4774 16.3502 22.2631C17.1523 22.1682 17.899 21.8056 18.4695 21.2338C19.04 20.662 19.4011 19.9146 19.4942 19.1122C19.657 17.7563 19.7782 16.3956 19.8576 15.0322" stroke="black" stroke-width="1.5" stroke-linecap="round" stroke-linejoin="round"/>
<path d="M17.3286 2.23461L11.0115 9.40033L10.1475 13.4718C10.0069 14.1266 10.6909 14.7472 11.3303 14.5449L15.3795 13.2729L21.904 6.40718C22.9892 5.26718 22.7989 3.35918 21.4875 2.19861C20.2069 1.06718 18.3452 1.0809 17.3286 2.2329V2.23461Z" stroke="black" stroke-width="1.5" stroke-linecap="round" stroke-linejoin="round"/>
</svg>
