<svg width="24" height="24" viewBox="0 0 24 24" fill="none" xmlns="http://www.w3.org/2000/svg">
<path opacity="0.5" d="M3 8C3 5.172 3 3.757 3.879 2.879C4.757 2 6.172 2 9 2H15C17.828 2 19.243 2 20.121 2.879C21 3.757 21 5.172 21 8V16C21 18.828 21 20.243 20.121 21.121C19.243 22 17.828 22 15 22H9C6.172 22 4.757 22 3.879 21.121C3 20.243 3 18.828 3 16V8Z" fill="#EDE4FF"/>
<path fill-rule="evenodd" clip-rule="evenodd" d="M8.75 2.01172V22.0117H7.25V2.01172H8.75ZM1.25 7.99972C1.25 7.80081 1.32902 7.61004 1.46967 7.46939C1.61032 7.32874 1.80109 7.24972 2 7.24972H4C4.19891 7.24972 4.38968 7.32874 4.53033 7.46939C4.67098 7.61004 4.75 7.80081 4.75 7.99972C4.75 8.19863 4.67098 8.3894 4.53033 8.53005C4.38968 8.6707 4.19891 8.74972 4 8.74972H2C1.80109 8.74972 1.61032 8.6707 1.46967 8.53005C1.32902 8.3894 1.25 8.19863 1.25 7.99972ZM1.25 11.9997C1.25 11.8008 1.32902 11.61 1.46967 11.4694C1.61032 11.3287 1.80109 11.2497 2 11.2497H4C4.19891 11.2497 4.38968 11.3287 4.53033 11.4694C4.67098 11.61 4.75 11.8008 4.75 11.9997C4.75 12.1986 4.67098 12.3894 4.53033 12.53C4.38968 12.6707 4.19891 12.7497 4 12.7497H2C1.80109 12.7497 1.61032 12.6707 1.46967 12.53C1.32902 12.3894 1.25 12.1986 1.25 11.9997ZM1.25 15.9997C1.25 15.8008 1.32902 15.61 1.46967 15.4694C1.61032 15.3287 1.80109 15.2497 2 15.2497H4C4.19891 15.2497 4.38968 15.3287 4.53033 15.4694C4.67098 15.61 4.75 15.8008 4.75 15.9997C4.75 16.1986 4.67098 16.3894 4.53033 16.53C4.38968 16.6707 4.19891 16.7497 4 16.7497H2C1.80109 16.7497 1.61032 16.6707 1.46967 16.53C1.32902 16.3894 1.25 16.1986 1.25 15.9997Z" fill="#9260F4"/>
<path d="M10.75 6.5C10.75 6.30109 10.829 6.11032 10.9697 5.96967C11.1103 5.82902 11.3011 5.75 11.5 5.75H16.5C16.6989 5.75 16.8897 5.82902 17.0303 5.96967C17.171 6.11032 17.25 6.30109 17.25 6.5C17.25 6.69891 17.171 6.88968 17.0303 7.03033C16.8897 7.17098 16.6989 7.25 16.5 7.25H11.5C11.3011 7.25 11.1103 7.17098 10.9697 7.03033C10.829 6.88968 10.75 6.69891 10.75 6.5ZM10.75 10C10.75 9.80109 10.829 9.61032 10.9697 9.46967C11.1103 9.32902 11.3011 9.25 11.5 9.25H16.5C16.6989 9.25 16.8897 9.32902 17.0303 9.46967C17.171 9.61032 17.25 9.80109 17.25 10C17.25 10.1989 17.171 10.3897 17.0303 10.5303C16.8897 10.671 16.6989 10.75 16.5 10.75H11.5C11.3011 10.75 11.1103 10.671 10.9697 10.5303C10.829 10.3897 10.75 10.1989 10.75 10Z" fill="#9260F4"/>
</svg>
