<svg width="13" height="13" viewBox="0 0 13 13" fill="none" xmlns="http://www.w3.org/2000/svg">
<path fill-rule="evenodd" clip-rule="evenodd" d="M3.52647 4.26758C3.4396 4.2677 3.35426 4.29044 3.27886 4.33358C3.20346 4.37672 3.1406 4.43875 3.09647 4.51358L2.41647 5.66558L2.25347 5.67858L2.19647 5.68258C1.31147 5.75458 0.546469 6.39758 0.408469 7.27758C0.318469 7.85158 0.230469 8.47258 0.230469 9.11558C0.230469 9.75758 0.317469 10.3786 0.408469 10.9526C0.546469 11.8326 1.31147 12.4766 2.19647 12.5476L2.25347 12.5526H2.26247C3.18247 12.6276 4.15847 12.7066 5.16047 12.7066C6.16247 12.7066 7.13847 12.6266 8.05847 12.5536L8.12347 12.5476C9.00847 12.4766 9.77347 11.8336 9.91347 10.9526C10.0035 10.3786 10.0895 9.75758 10.0895 9.11558C10.0895 8.47258 10.0035 7.85158 9.91247 7.27758C9.77347 6.39758 9.00847 5.75458 8.12347 5.68258L8.06747 5.67858L7.90347 5.66558L7.22447 4.51358C7.18034 4.43875 7.11748 4.37672 7.04208 4.33358C6.96668 4.29044 6.88134 4.2677 6.79447 4.26758H3.52647Z" fill="#EDE4FF"/>
<path d="M5.17116 10.6187C6.21916 10.6187 6.80816 10.0287 6.80816 8.9817C6.80816 7.9347 6.21816 7.3457 5.17116 7.3457C4.12416 7.3457 3.53516 7.9347 3.53516 8.9817C3.53516 10.0297 4.12416 10.6187 5.17116 10.6187Z" fill="#A87CFE"/>
<path d="M10.5234 1V4.20785Z" fill="#A87CFE"/>
<path d="M10.5234 1V4.20785" stroke="#A87CFE" stroke-linecap="round" stroke-linejoin="round"/>
<path d="M12.0494 2.60352H9Z" fill="#A87CFE"/>
<path d="M12.0494 2.60352H9" stroke="#A87CFE" stroke-linecap="round" stroke-linejoin="round"/>
</svg>
