<svg xmlns="http://www.w3.org/2000/svg" fill="none" viewBox="0 0 14 14" id="Repeat-Single--Streamline-Flex.svg"><desc>Repeat Single Streamline Icon: https://streamlinehq.com</desc><g id="repeat-single--repeat-single-track-media-playlist-music-video-entertainment-arrow-one"><path id="Vector 2" stroke="#000000" stroke-linecap="round" stroke-linejoin="round" d="M11.3991 0.9861V6.8922" stroke-width="1"></path><path id="Vector 3" stroke="#000000" stroke-linecap="round" stroke-linejoin="round" d="M9.4304 2.4626H9.9225C10.738 2.4626 11.3991 1.8016 11.3991 0.9861H11.3991" stroke-width="1"></path><path id="Vector 1" stroke="#000000" stroke-linecap="round" stroke-linejoin="round" d="M13.3678 6.8923H9.4304" stroke-width="1"></path><path id="Vector 1215" stroke="#000000" stroke-linecap="round" stroke-linejoin="round" d="M6.9695 3.4816H2.6009C1.5136 3.4816 0.6322 4.363 0.6322 5.4503V5.6196V7.2306" stroke-width="1"></path><path id="Vector" stroke="#000000" stroke-linecap="round" stroke-linejoin="round" d="M5.366 5.0855C6.1678 4.8183 6.7023 4.2838 6.9695 3.482C6.7023 2.6802 6.1678 2.1457 5.366 1.8785" stroke-width="1"></path><path id="Vector 3213" stroke="#000000" stroke-linecap="round" stroke-linejoin="round" d="M2.6629 11.4103H9.4923C10.5796 11.4103 11.461 10.5289 11.461 9.4416V9.2723" stroke-width="1"></path><path id="Vector_2" stroke="#000000" stroke-linecap="round" stroke-linejoin="round" d="M4.2663 9.8069C3.4645 10.0742 2.93 10.6086 2.6628 11.4104C2.93 12.2122 3.4645 12.7467 4.2663 13.0139" stroke-width="1"></path></g></svg>