<svg width="96" height="96" viewBox="0 0 96 96" fill="none" xmlns="http://www.w3.org/2000/svg">
<path d="M13.5 44.1667C13.5 48.1939 14.2932 52.1816 15.8344 55.9023C17.3755 59.6229 19.6344 63.0036 22.4821 65.8513C25.3297 68.6989 28.7104 70.9578 32.431 72.499C36.1517 74.0401 40.1395 74.8333 44.1667 74.8333C48.1939 74.8333 52.1816 74.0401 55.9023 72.499C59.6229 70.9578 63.0036 68.6989 65.8513 65.8513C68.6989 63.0036 70.9578 59.6229 72.499 55.9023C74.0401 52.1816 74.8333 48.1939 74.8333 44.1667C74.8333 36.0334 71.6024 28.2332 65.8513 22.4821C60.1002 16.7309 52.3 13.5 44.1667 13.5C36.0334 13.5 28.2332 16.7309 22.4821 22.4821C16.7309 28.2332 13.5 36.0334 13.5 44.1667Z" stroke="black" stroke-width="7" stroke-linecap="round" stroke-linejoin="round"/>
<path d="M86 86L66 66" stroke="black" stroke-width="7" stroke-linecap="round" stroke-linejoin="round"/>
</svg>
