<svg width="63" height="68" viewBox="0 0 63 68" fill="none" xmlns="http://www.w3.org/2000/svg">
<path fill-rule="evenodd" clip-rule="evenodd" d="M29.2282 0H33.1482C34.6149 0.00299858 36.0467 0.447103 37.2576 1.27459C38.4685 2.10208 39.4025 3.27469 39.9382 4.64L41.7332 9.2L47.1832 12.345L52.0132 11.61C53.466 11.3912 54.9511 11.6153 56.2746 12.253C57.5982 12.8907 58.6989 13.9125 59.4332 15.185L61.3882 18.565C62.1247 19.837 62.46 21.3018 62.3502 22.7675C62.2405 24.2333 61.6909 25.6318 60.7732 26.78L57.7232 30.595V36.905L60.7532 40.72C61.6683 41.8694 62.2164 43.2677 62.326 44.7328C62.4357 46.1979 62.102 47.6621 61.3682 48.935L59.4182 52.315C58.6834 53.5871 57.5826 54.6084 56.2592 55.246C54.9357 55.8837 53.451 56.1081 51.9982 55.89L47.1632 55.155L41.7082 58.305L39.9232 62.855C39.3883 64.2213 38.4547 65.3949 37.2437 66.2233C36.0327 67.0518 34.6004 67.4966 33.1332 67.5H29.2182C27.751 67.4966 26.3187 67.0518 25.1078 66.2233C23.8968 65.3949 22.9631 64.2213 22.4282 62.855L20.6432 58.305L15.1882 55.155L10.3532 55.89C8.90093 56.1092 7.41627 55.8859 6.09275 55.2491C4.76922 54.6123 3.66822 53.5916 2.93322 52.32L0.983219 48.935C0.246769 47.6629 -0.0885286 46.1982 0.021202 44.7325C0.130933 43.2667 0.68058 41.8682 1.59822 40.72L4.64822 36.905V30.595L1.59822 26.78C0.681072 25.6317 0.131335 24.2336 0.0207347 22.7682C-0.0898651 21.3027 0.243809 19.838 0.978219 18.565L2.92822 15.185C3.66284 13.9116 4.76435 12.8893 6.08894 12.2515C7.41352 11.6137 8.89962 11.3902 10.3532 11.61L15.1732 12.345L20.6432 9.175L22.4382 4.64C22.9728 3.27389 23.9065 2.10052 25.1176 1.27286C26.3288 0.445193 27.7613 0.00163157 29.2282 0ZM41.1632 33.75C41.1632 40.135 37.5682 43.73 31.1832 43.73C24.7982 43.73 21.2032 40.135 21.2032 33.75C21.2032 27.365 24.7982 23.77 31.1832 23.77C37.5682 23.77 41.1632 27.365 41.1632 33.75Z" fill="#D3D3D3"/>
</svg>
