<svg width="74" height="80" viewBox="0 0 74 80" fill="none" xmlns="http://www.w3.org/2000/svg">
<path d="M65.029 44.043C65.029 44.3372 65.129 44.6313 65.3114 44.8666L69.2351 49.808C69.9456 50.6954 70.3717 51.7766 70.4578 52.9101C70.5439 54.0436 70.2858 55.1767 69.7174 56.1612L67.4115 60.1379C66.8444 61.1221 65.9937 61.9124 64.9705 62.4057C63.9473 62.8989 62.7991 63.0721 61.6759 62.9027L55.4227 61.9615C55.1286 61.9194 54.8289 61.9752 54.5697 62.1203L47.1576 66.397C46.9015 66.548 46.7029 66.7797 46.5929 67.0559L44.2869 72.9385C43.8741 73.9963 43.152 74.905 42.2149 75.5462C41.2778 76.1874 40.1692 76.5312 39.0337 76.5328H34.4335C33.2987 76.5317 32.1906 76.1887 31.2535 75.5486C30.3165 74.9086 29.594 74.001 29.1803 72.9444L26.8743 67.0617C26.7654 66.7834 26.5666 66.5495 26.3096 66.397L18.9034 62.1203C18.6449 61.9732 18.3451 61.9153 18.0504 61.9556L11.7972 62.9086C10.6731 63.0793 9.52361 62.9067 8.49922 62.4134C7.47482 61.9201 6.62318 61.129 6.05572 60.1438L3.7615 56.1612C3.19149 55.1779 2.93147 54.0454 3.01543 52.9119C3.0994 51.7784 3.52344 50.6966 4.23211 49.808L8.17347 44.8666C8.36282 44.6338 8.46664 44.3431 8.4676 44.043V35.4897C8.4676 35.1956 8.36171 34.9014 8.17347 34.6661L4.23211 29.7247C3.52344 28.8361 3.0994 27.7543 3.01543 26.6208C2.93147 25.4873 3.19149 24.3549 3.7615 23.3715L6.05572 19.3949C6.62318 18.4096 7.47482 17.6186 8.49922 17.1253C9.52361 16.632 10.6731 16.4594 11.7972 16.63L18.0327 17.5713C18.3268 17.6134 18.6265 17.5576 18.8857 17.4124L26.3096 13.1181C26.5663 12.9653 26.765 12.7314 26.8743 12.4534L29.1921 6.59428C29.6052 5.53557 30.3282 4.62614 31.2665 3.98488C32.2047 3.34362 33.3147 3.00037 34.4511 3H39.0631C40.1979 3.00109 41.306 3.34403 42.2431 3.98411C43.1801 4.62419 43.9026 5.53172 44.3163 6.5884L46.6223 12.4534C46.7282 12.7416 46.9282 12.9828 47.187 13.1358L54.5991 17.4124C54.8576 17.5596 55.1574 17.6175 55.4521 17.5771L61.6994 16.6241C62.8235 16.4535 63.973 16.6261 64.9974 17.1194C66.0218 17.6127 66.8734 18.4037 67.4409 19.389L69.741 23.3715C70.3102 24.3554 70.5692 25.4882 70.4842 26.6217C70.3992 27.7553 69.9741 28.8367 69.2645 29.7247L65.3231 34.6661C65.1359 34.8997 65.0342 35.1903 65.0349 35.4897V44.043H65.029Z" stroke="white" stroke-width="6" stroke-linecap="round" stroke-linejoin="round"/>
<path d="M36.7453 51.5081C44.2574 51.5081 48.4871 47.2785 48.4871 39.7664C48.4871 32.2543 44.2574 28.0247 36.7453 28.0247C29.2332 28.0247 25.0036 32.2543 25.0036 39.7664C25.0036 47.2785 29.2332 51.5081 36.7453 51.5081Z" stroke="white" stroke-width="6" stroke-linecap="round" stroke-linejoin="round"/>
</svg>
