<svg width="14" height="14" viewBox="0 0 14 14" fill="none" xmlns="http://www.w3.org/2000/svg">
<g clip-path="url(#clip0_2769_2228)">
<path d="M11.8081 7.727C11.8081 7.777 11.8251 7.827 11.8561 7.867L12.5231 8.707C12.6439 8.85785 12.7163 9.04164 12.731 9.23433C12.7456 9.42702 12.7017 9.61964 12.6051 9.787L12.2131 10.463C12.1167 10.6303 11.9721 10.7647 11.7982 10.8485C11.6242 10.9324 11.4291 10.9618 11.2381 10.933L10.1751 10.773C10.1251 10.7658 10.0742 10.7753 10.0301 10.8L8.77012 11.527C8.7266 11.5527 8.69283 11.5921 8.67412 11.639L8.28212 12.639C8.21195 12.8188 8.0892 12.9733 7.9299 13.0823C7.7706 13.1913 7.58214 13.2497 7.38912 13.25H6.60712C6.41422 13.2498 6.22584 13.1915 6.06655 13.0827C5.90727 12.9739 5.78445 12.8196 5.71412 12.64L5.32212 11.64C5.30361 11.5927 5.26982 11.5529 5.22612 11.527L3.96712 10.8C3.92318 10.775 3.87222 10.7651 3.82212 10.772L2.75912 10.934C2.56803 10.963 2.37264 10.9337 2.1985 10.8498C2.02436 10.766 1.87958 10.6315 1.78312 10.464L1.39312 9.787C1.29622 9.61984 1.25202 9.42733 1.2663 9.23464C1.28057 9.04196 1.35265 8.85806 1.47312 8.707L2.14312 7.867C2.17531 7.82743 2.19296 7.77801 2.19312 7.727V6.273C2.19312 6.223 2.17512 6.173 2.14312 6.133L1.47312 5.293C1.35265 5.14194 1.28057 4.95804 1.2663 4.76536C1.25202 4.57267 1.29622 4.38016 1.39312 4.213L1.78312 3.537C1.87958 3.36951 2.02436 3.23504 2.1985 3.15119C2.37264 3.06733 2.56803 3.03799 2.75912 3.067L3.81912 3.227C3.86911 3.23416 3.92006 3.22467 3.96412 3.2L5.22612 2.47C5.26977 2.44402 5.30354 2.40427 5.32212 2.357L5.71612 1.361C5.78635 1.18103 5.90925 1.02643 6.06875 0.917422C6.22825 0.808413 6.41693 0.750063 6.61012 0.75H7.39412C7.58703 0.750186 7.7754 0.808482 7.93469 0.917291C8.09398 1.0261 8.21679 1.18037 8.28712 1.36L8.67912 2.357C8.69712 2.406 8.73112 2.447 8.77512 2.473L10.0351 3.2C10.0791 3.22502 10.13 3.23486 10.1801 3.228L11.2421 3.066C11.4332 3.03699 11.6286 3.06633 11.8027 3.15019C11.9769 3.23404 12.1217 3.36851 12.2181 3.536L12.6091 4.213C12.7059 4.38026 12.7499 4.57282 12.7355 4.76551C12.721 4.9582 12.6487 5.14205 12.5281 5.293L11.8581 6.133C11.8263 6.17271 11.809 6.22211 11.8091 6.273V7.727H11.8081Z" stroke="#B0B9C2" stroke-width="1.1" stroke-linecap="round" stroke-linejoin="round"/>
<path d="M6.99991 8.99591C8.27691 8.99591 8.99591 8.27691 8.99591 6.99991C8.99591 5.72291 8.27691 5.00391 6.99991 5.00391C5.72291 5.00391 5.00391 5.72291 5.00391 6.99991C5.00391 8.27691 5.72291 8.99591 6.99991 8.99591Z" stroke="#B0B9C2" stroke-width="1.1" stroke-linecap="round" stroke-linejoin="round"/>
</g>
<defs>
<clipPath id="clip0_2769_2228">
<rect width="14" height="14" fill="white"/>
</clipPath>
</defs>
</svg>
