<svg width="14" height="14" viewBox="0 0 14 14" fill="none" xmlns="http://www.w3.org/2000/svg">
<path d="M4.08789 2.37305C3.73656 2.41681 3.38912 2.46232 3.04594 2.50448C2.56686 2.56334 2.18824 2.94735 2.15435 3.42884C1.94855 6.35218 1.94855 9.11405 2.15435 12.0373C2.18825 12.5188 2.56695 12.904 3.04794 12.9444C5.69568 13.1663 8.11682 13.1663 10.7646 12.9444C11.2456 12.904 11.6243 12.5188 11.6582 12.0373C11.8639 9.11405 11.8639 6.35218 11.6582 3.42884C11.6243 2.94735 11.2456 2.56334 10.7666 2.50448C10.4234 2.46232 10.0759 2.41681 9.72461 2.37305" stroke="black" stroke-linecap="round" stroke-linejoin="round"/>
<path d="M5.56212 0.75H8.25012C8.25012 0.75 9.73413 0.75 9.73413 2.234C9.73413 2.234 9.73412 3.719 8.25012 3.719H5.56212C5.56212 3.719 4.07812 3.719 4.07812 2.235C4.07812 2.235 4.07812 0.75 5.56212 0.75Z" stroke="black" stroke-linecap="round" stroke-linejoin="round"/>
<path d="M6.97656 6V9.951" stroke="black" stroke-linecap="round" stroke-linejoin="round"/>
<path d="M5 7.97656H8.951" stroke="black" stroke-linecap="round" stroke-linejoin="round"/>
</svg>
