<svg width="26" height="26" viewBox="0 0 26 26" fill="none" xmlns="http://www.w3.org/2000/svg">
<path d="M20.7349 7.41797H13.4805" stroke="black" stroke-width="2" stroke-linecap="round" stroke-linejoin="round"/>
<path d="M17.106 13H9.85156" stroke="black" stroke-width="2" stroke-linecap="round" stroke-linejoin="round"/>
<path d="M13.4771 18.8203H6.22266" stroke="black" stroke-width="2" stroke-linecap="round" stroke-linejoin="round"/>
<path d="M1.40294 19.2755C1.69888 22.0417 3.92358 24.2664 6.68831 24.5745C8.74184 24.8034 10.8503 25 13 25C15.1497 25 17.2582 24.8034 19.3116 24.5745C22.0764 24.2664 24.3011 22.0417 24.597 19.2755C24.8155 17.2336 25 15.1372 25 13C25 10.8627 24.8155 8.76636 24.597 6.72442C24.3011 3.95837 22.0764 1.73365 19.3116 1.42549C17.2582 1.19659 15.1497 1 13 1C10.8503 1 8.74184 1.19659 6.68831 1.42549C3.92358 1.73365 1.69888 3.95837 1.40294 6.72442C1.18448 8.76636 1 10.8627 1 13C1 15.1372 1.18448 17.2336 1.40294 19.2755Z" stroke="black" stroke-width="2" stroke-linecap="round" stroke-linejoin="round"/>
</svg>
