<svg width="182" height="169" viewBox="0 0 182 169" fill="none" xmlns="http://www.w3.org/2000/svg">
<path d="M37.1308 69.2121C57.6946 69.2121 69.2617 57.6539 69.2617 37.1061C69.2617 16.5582 57.6946 5 37.1308 5C16.5671 5 5 16.5582 5 37.1061C5 57.6539 16.5671 69.2121 37.1308 69.2121Z" stroke="#80CBC4" stroke-width="10" stroke-linecap="round" stroke-linejoin="round"/>
<path d="M172.318 69.2747C151.491 51.1242 132.163 31.8111 113.998 11" stroke="#EF9A9A" stroke-width="10" stroke-linecap="round" stroke-linejoin="round"/>
<path d="M113 69.2747C133.827 51.1242 153.155 31.8111 171.32 11" stroke="#EF9A9A" stroke-width="10" stroke-linecap="round" stroke-linejoin="round"/>
<path d="M5.1992 152.069C11.3145 131.802 25.4043 113.559 34.1061 105.228C35.8166 103.591 38.445 103.591 40.1556 105.228C48.8574 113.559 62.9472 131.802 69.0625 152.069C69.7061 154.202 68.7555 156.472 66.7184 157.378C60.8701 159.98 50.2093 163.273 37.1308 163.273C24.0523 163.273 13.3918 159.98 7.54308 157.378C5.50614 156.472 4.55579 154.202 5.1992 152.069Z" stroke="#FFCC80" stroke-width="10" stroke-linecap="round" stroke-linejoin="round"/>
<path d="M176.19 137.34H107" stroke="#CE93D8" stroke-width="10" stroke-linecap="round" stroke-linejoin="round"/>
<path d="M153.574 116C162.622 120.266 171.669 128.799 176.193 137.332C171.669 145.865 162.622 154.398 153.574 158.664" stroke="#CE93D8" stroke-width="10" stroke-linecap="round" stroke-linejoin="round"/>
</svg>
