<svg width="16" height="17" viewBox="0 0 16 17" fill="none" xmlns="http://www.w3.org/2000/svg">
<path d="M1.1972 12.7621C1.38651 14.4724 2.75928 15.8304 4.45681 15.9132C5.63012 15.9704 6.82871 16.0002 8.12954 16.0002C9.43039 16.0002 10.629 15.9704 11.8023 15.9132C13.4998 15.8304 14.8726 14.4724 15.0618 12.7621C15.3248 10.3866 15.3248 8.36362 15.0618 5.98809C14.8726 4.27775 13.4998 2.91977 11.8023 2.83698C10.629 2.77975 9.43039 2.75 8.12954 2.75C6.82871 2.75 5.63012 2.77975 4.45681 2.83698C2.75928 2.91977 1.38651 4.27775 1.1972 5.98809C0.934266 8.36362 0.934267 10.3866 1.1972 12.7621Z" stroke="black" stroke-linecap="round" stroke-linejoin="round"/>
<path d="M4.99023 1V4.30006" stroke="black" stroke-linecap="round" stroke-linejoin="round"/>
<path d="M11.2676 1V4.30006" stroke="black" stroke-linecap="round" stroke-linejoin="round"/>
<path d="M9.78857 6.84766C9.9292 6.84766 9.99951 6.91797 9.99951 7.05859V7.49805C9.99951 7.73828 9.97021 7.9668 9.91162 8.18359C9.85303 8.39453 9.75049 8.6377 9.604 8.91309L8.74268 10.5391C8.33252 11.3301 8.12744 12.0801 8.12744 12.7891C8.12744 12.9297 8.05127 13 7.89893 13H7.6001C7.45361 13 7.38037 12.9297 7.38037 12.7891C7.38037 12.0801 7.62061 11.2363 8.10107 10.2578L8.89209 8.67578C9.02686 8.41211 9.12061 8.19531 9.17334 8.02539C9.22607 7.84961 9.25244 7.67969 9.25244 7.51562H6.96729V8.44727C6.96729 8.59375 6.89404 8.66699 6.74756 8.66699H6.43994C6.29346 8.66699 6.22021 8.59375 6.22021 8.44727V7.06738C6.22021 6.9209 6.29346 6.84766 6.43994 6.84766H9.78857Z" fill="black"/>
</svg>
