<svg width="24" height="24" viewBox="0 0 24 24" fill="none" xmlns="http://www.w3.org/2000/svg">
<path d="M21.8251 5.06464H2.17487" stroke="black" stroke-width="1.5" stroke-linecap="round"/>
<path d="M19.8988 7.95441L19.367 15.929C19.1625 18.9979 19.0601 20.5322 18.0603 21.4677C17.0605 22.4031 15.5226 22.4031 12.4471 22.4031H11.553C8.47745 22.4031 6.93971 22.4031 5.93978 21.4676C4.93995 20.5322 4.8377 18.9979 4.63309 15.929L4.10141 7.95441" stroke="black" stroke-width="1.5" stroke-linecap="round"/>
<path d="M9.11035 10.8441L9.68823 16.6236" stroke="black" stroke-width="1.5" stroke-linecap="round"/>
<path d="M14.8898 10.8441L14.3118 16.6236" stroke="black" stroke-width="1.5" stroke-linecap="round"/>
<path d="M5.64261 5.06462C5.7072 5.06462 5.7395 5.06462 5.76873 5.06386C6.72054 5.03971 7.56023 4.43452 7.88415 3.53915C7.89412 3.51164 7.90428 3.48098 7.92478 3.41974L8.037 3.08308C8.13274 2.79567 8.18066 2.65192 8.2442 2.52993C8.49768 2.04319 8.96668 1.70518 9.50862 1.61855C9.64451 1.59689 9.79593 1.59689 10.099 1.59689H13.9011C14.2041 1.59689 14.3557 1.59689 14.4915 1.61865C15.0334 1.70518 15.5024 2.04319 15.7559 2.52993C15.8194 2.65192 15.8674 2.79567 15.9631 3.08308L16.0754 3.41974C16.0957 3.48098 16.106 3.51164 16.1159 3.53915C16.4399 4.43452 17.2795 5.03971 18.2314 5.06386C18.2606 5.06462 18.2929 5.06462 18.3575 5.06462" stroke="black" stroke-width="1.5"/>
</svg>
