<svg width="95" height="100" viewBox="0 0 95 100" fill="none" xmlns="http://www.w3.org/2000/svg">
<mask id="path-1-inside-1_2932_5606" fill="white">
<path d="M42.7031 67.2109C43.1198 67.2109 43.4453 67.3411 43.6797 67.6016C43.9401 67.862 44.0703 68.1875 44.0703 68.5781V69.6328C44.0703 70.0234 43.9401 70.349 43.6797 70.6094C43.4453 70.8698 43.1198 71 42.7031 71H28.8359C28.4453 71 28.1198 70.8698 27.8594 70.6094C27.599 70.349 27.4688 70.0234 27.4688 69.6328V68.5781C27.4688 68.1875 27.599 67.862 27.8594 67.6016C28.1198 67.3411 28.4453 67.2109 28.8359 67.2109H34.9688V50.6875H28.8359C28.4453 50.6875 28.1198 50.5573 27.8594 50.2969C27.599 50.0365 27.4688 49.7109 27.4688 49.3203V48.2656C27.4688 47.875 27.599 47.5495 27.8594 47.2891C28.1198 47.0286 28.4453 46.8984 28.8359 46.8984C30.737 46.8984 32.1953 46.6771 33.2109 46.2344C34.2266 45.7917 34.9818 45.0104 35.4766 43.8906C35.763 43.2135 36.2578 42.875 36.9609 42.875H37.7031C38.0938 42.875 38.4193 43.0052 38.6797 43.2656C38.9401 43.526 39.0703 43.8516 39.0703 44.2422V67.2109H42.7031ZM65.9453 61.5859C66.362 61.5859 66.6875 61.7161 66.9219 61.9766C67.1823 62.237 67.3125 62.5625 67.3125 62.9531V63.9688C67.3125 64.3594 67.1823 64.6849 66.9219 64.9453C66.6875 65.2057 66.362 65.3359 65.9453 65.3359H64.1875V69.6328C64.1875 70.0234 64.0573 70.349 63.7969 70.6094C63.5625 70.8698 63.237 71 62.8203 71H61.4531C61.0625 71 60.737 70.8698 60.4766 70.6094C60.2422 70.349 60.125 70.0234 60.125 69.6328V65.3359H50.7891C50.3984 65.3359 50.0729 65.2188 49.8125 64.9844C49.5781 64.724 49.4609 64.3984 49.4609 64.0078V62.4453C49.4609 62.0026 49.5651 61.5469 49.7734 61.0781L58.2891 44.0078C58.6276 43.2526 59.2266 42.875 60.0859 42.875H61.4922C61.8568 42.875 62.1562 42.9792 62.3906 43.1875C62.625 43.3958 62.7422 43.6562 62.7422 43.9688C62.7422 44.1771 62.6901 44.3854 62.5859 44.5938L54.0703 61.5859H60.125V55.2969C60.125 54.9062 60.2552 54.5807 60.5156 54.3203C60.776 54.0599 61.1016 53.9297 61.4922 53.9297H62.8594C63.25 53.9297 63.5755 54.0599 63.8359 54.3203C64.0964 54.5807 64.2266 54.9062 64.2266 55.2969V61.5859H65.9453Z"/>
</mask>
<path d="M42.7031 67.2109C43.1198 67.2109 43.4453 67.3411 43.6797 67.6016C43.9401 67.862 44.0703 68.1875 44.0703 68.5781V69.6328C44.0703 70.0234 43.9401 70.349 43.6797 70.6094C43.4453 70.8698 43.1198 71 42.7031 71H28.8359C28.4453 71 28.1198 70.8698 27.8594 70.6094C27.599 70.349 27.4688 70.0234 27.4688 69.6328V68.5781C27.4688 68.1875 27.599 67.862 27.8594 67.6016C28.1198 67.3411 28.4453 67.2109 28.8359 67.2109H34.9688V50.6875H28.8359C28.4453 50.6875 28.1198 50.5573 27.8594 50.2969C27.599 50.0365 27.4688 49.7109 27.4688 49.3203V48.2656C27.4688 47.875 27.599 47.5495 27.8594 47.2891C28.1198 47.0286 28.4453 46.8984 28.8359 46.8984C30.737 46.8984 32.1953 46.6771 33.2109 46.2344C34.2266 45.7917 34.9818 45.0104 35.4766 43.8906C35.763 43.2135 36.2578 42.875 36.9609 42.875H37.7031C38.0938 42.875 38.4193 43.0052 38.6797 43.2656C38.9401 43.526 39.0703 43.8516 39.0703 44.2422V67.2109H42.7031ZM65.9453 61.5859C66.362 61.5859 66.6875 61.7161 66.9219 61.9766C67.1823 62.237 67.3125 62.5625 67.3125 62.9531V63.9688C67.3125 64.3594 67.1823 64.6849 66.9219 64.9453C66.6875 65.2057 66.362 65.3359 65.9453 65.3359H64.1875V69.6328C64.1875 70.0234 64.0573 70.349 63.7969 70.6094C63.5625 70.8698 63.237 71 62.8203 71H61.4531C61.0625 71 60.737 70.8698 60.4766 70.6094C60.2422 70.349 60.125 70.0234 60.125 69.6328V65.3359H50.7891C50.3984 65.3359 50.0729 65.2188 49.8125 64.9844C49.5781 64.724 49.4609 64.3984 49.4609 64.0078V62.4453C49.4609 62.0026 49.5651 61.5469 49.7734 61.0781L58.2891 44.0078C58.6276 43.2526 59.2266 42.875 60.0859 42.875H61.4922C61.8568 42.875 62.1562 42.9792 62.3906 43.1875C62.625 43.3958 62.7422 43.6562 62.7422 43.9688C62.7422 44.1771 62.6901 44.3854 62.5859 44.5938L54.0703 61.5859H60.125V55.2969C60.125 54.9062 60.2552 54.5807 60.5156 54.3203C60.776 54.0599 61.1016 53.9297 61.4922 53.9297H62.8594C63.25 53.9297 63.5755 54.0599 63.8359 54.3203C64.0964 54.5807 64.2266 54.9062 64.2266 55.2969V61.5859H65.9453Z" fill="black"/>
<path d="M43.6797 67.6016L42.9364 68.2705L42.954 68.2901L42.9726 68.3087L43.6797 67.6016ZM43.6797 70.6094L42.9726 69.9023L42.954 69.9209L42.9364 69.9404L43.6797 70.6094ZM27.8594 70.6094L27.1523 71.3165L27.8594 70.6094ZM34.9688 67.2109V68.2109H35.9688V67.2109H34.9688ZM34.9688 50.6875H35.9688V49.6875H34.9688V50.6875ZM35.4766 43.8906L36.3912 44.2948L36.3944 44.2876L36.3975 44.2803L35.4766 43.8906ZM39.0703 67.2109H38.0703V68.2109H39.0703V67.2109ZM42.7031 68.2109C42.8949 68.2109 42.9276 68.2608 42.9364 68.2705L44.423 66.9326C43.963 66.4215 43.3447 66.2109 42.7031 66.2109V68.2109ZM42.9726 68.3087C43.0332 68.3693 43.0703 68.4349 43.0703 68.5781H45.0703C45.0703 67.9401 44.847 67.3547 44.3868 66.8945L42.9726 68.3087ZM43.0703 68.5781V69.6328H45.0703V68.5781H43.0703ZM43.0703 69.6328C43.0703 69.7761 43.0332 69.8416 42.9726 69.9023L44.3868 71.3165C44.847 70.8563 45.0703 70.2708 45.0703 69.6328H43.0703ZM42.9364 69.9404C42.9276 69.9502 42.8949 70 42.7031 70V72C43.3447 72 43.963 71.7894 44.423 71.2783L42.9364 69.9404ZM42.7031 70H28.8359V72H42.7031V70ZM28.8359 70C28.6927 70 28.6271 69.9629 28.5665 69.9023L27.1523 71.3165C27.6125 71.7767 28.198 72 28.8359 72V70ZM28.5665 69.9023C28.5059 69.8416 28.4688 69.7761 28.4688 69.6328H26.4688C26.4688 70.2708 26.6921 70.8563 27.1523 71.3165L28.5665 69.9023ZM28.4688 69.6328V68.5781H26.4688V69.6328H28.4688ZM28.4688 68.5781C28.4688 68.4349 28.5059 68.3693 28.5665 68.3087L27.1523 66.8945C26.6921 67.3547 26.4688 67.9401 26.4688 68.5781H28.4688ZM28.5665 68.3087C28.6271 68.248 28.6927 68.2109 28.8359 68.2109V66.2109C28.198 66.2109 27.6125 66.4342 27.1523 66.8945L28.5665 68.3087ZM28.8359 68.2109H34.9688V66.2109H28.8359V68.2109ZM35.9688 67.2109V50.6875H33.9688V67.2109H35.9688ZM34.9688 49.6875H28.8359V51.6875H34.9688V49.6875ZM28.8359 49.6875C28.6927 49.6875 28.6271 49.6504 28.5665 49.5898L27.1523 51.004C27.6125 51.4642 28.198 51.6875 28.8359 51.6875V49.6875ZM28.5665 49.5898C28.5059 49.5291 28.4688 49.4636 28.4688 49.3203H26.4688C26.4688 49.9583 26.6921 50.5438 27.1523 51.004L28.5665 49.5898ZM28.4688 49.3203V48.2656H26.4688V49.3203H28.4688ZM28.4688 48.2656C28.4688 48.1224 28.5059 48.0568 28.5665 47.9962L27.1523 46.582C26.6921 47.0422 26.4688 47.6276 26.4688 48.2656H28.4688ZM28.5665 47.9962C28.6271 47.9355 28.6927 47.8984 28.8359 47.8984V45.8984C28.198 45.8984 27.6125 46.1217 27.1523 46.582L28.5665 47.9962ZM28.8359 47.8984C30.7899 47.8984 32.4094 47.6747 33.6105 47.1511L32.8114 45.3177C31.9813 45.6795 30.684 45.8984 28.8359 45.8984V47.8984ZM33.6105 47.1511C34.8809 46.5973 35.8066 45.6179 36.3912 44.2948L34.5619 43.4865C34.1569 44.403 33.5722 44.986 32.8114 45.3177L33.6105 47.1511ZM36.3975 44.2803C36.4831 44.078 36.5702 43.9932 36.6272 43.9542C36.681 43.9174 36.7752 43.875 36.9609 43.875V41.875C36.4435 41.875 35.9387 42.0019 35.4978 42.3036C35.06 42.6032 34.7565 43.0262 34.5556 43.501L36.3975 44.2803ZM36.9609 43.875H37.7031V41.875H36.9609V43.875ZM37.7031 43.875C37.8464 43.875 37.912 43.9121 37.9726 43.9727L39.3868 42.5585C38.9266 42.0983 38.3411 41.875 37.7031 41.875V43.875ZM37.9726 43.9727C38.0332 44.0334 38.0703 44.0989 38.0703 44.2422H40.0703C40.0703 43.6042 39.847 43.0187 39.3868 42.5585L37.9726 43.9727ZM38.0703 44.2422V67.2109H40.0703V44.2422H38.0703ZM39.0703 68.2109H42.7031V66.2109H39.0703V68.2109ZM66.9219 61.9766L66.1786 62.6455L66.1962 62.6651L66.2148 62.6837L66.9219 61.9766ZM66.9219 64.9453L66.2148 64.2382L66.1962 64.2568L66.1786 64.2763L66.9219 64.9453ZM64.1875 65.3359V64.3359H63.1875V65.3359H64.1875ZM63.7969 70.6094L63.0898 69.9023L63.0712 69.9209L63.0536 69.9404L63.7969 70.6094ZM60.4766 70.6094L59.7333 71.2783L59.7509 71.2979L59.7695 71.3165L60.4766 70.6094ZM60.125 65.3359H61.125V64.3359H60.125V65.3359ZM49.8125 64.9844L49.0692 65.6533L49.1044 65.6925L49.1435 65.7277L49.8125 64.9844ZM49.7734 61.0781L48.8786 60.6317L48.8687 60.6516L48.8596 60.672L49.7734 61.0781ZM58.2891 44.0078L59.1839 44.4542L59.1931 44.4357L59.2016 44.4169L58.2891 44.0078ZM62.5859 44.5938L63.48 45.0418L63.4804 45.041L62.5859 44.5938ZM54.0703 61.5859L53.1763 61.1379L52.4506 62.5859H54.0703V61.5859ZM60.125 61.5859V62.5859H61.125V61.5859H60.125ZM64.2266 61.5859H63.2266V62.5859H64.2266V61.5859ZM65.9453 62.5859C66.1371 62.5859 66.1698 62.6358 66.1786 62.6455L67.6652 61.3076C67.2052 60.7965 66.5869 60.5859 65.9453 60.5859V62.5859ZM66.2148 62.6837C66.2754 62.7443 66.3125 62.8099 66.3125 62.9531H68.3125C68.3125 62.3151 68.0892 61.7297 67.629 61.2695L66.2148 62.6837ZM66.3125 62.9531V63.9688H68.3125V62.9531H66.3125ZM66.3125 63.9688C66.3125 64.112 66.2754 64.1776 66.2148 64.2382L67.629 65.6524C68.0892 65.1922 68.3125 64.6067 68.3125 63.9688H66.3125ZM66.1786 64.2763C66.1698 64.2861 66.1371 64.3359 65.9453 64.3359V66.3359C66.5869 66.3359 67.2052 66.1253 67.6652 65.6143L66.1786 64.2763ZM65.9453 64.3359H64.1875V66.3359H65.9453V64.3359ZM63.1875 65.3359V69.6328H65.1875V65.3359H63.1875ZM63.1875 69.6328C63.1875 69.7761 63.1504 69.8416 63.0898 69.9023L64.504 71.3165C64.9642 70.8563 65.1875 70.2708 65.1875 69.6328H63.1875ZM63.0536 69.9404C63.0448 69.9502 63.0121 70 62.8203 70V72C63.4619 72 64.0802 71.7894 64.5402 71.2783L63.0536 69.9404ZM62.8203 70H61.4531V72H62.8203V70ZM61.4531 70C61.3099 70 61.2443 69.9629 61.1837 69.9023L59.7695 71.3165C60.2297 71.7767 60.8151 72 61.4531 72V70ZM61.2199 69.9404C61.1701 69.8852 61.125 69.807 61.125 69.6328H59.125C59.125 70.2399 59.3143 70.8128 59.7333 71.2783L61.2199 69.9404ZM61.125 69.6328V65.3359H59.125V69.6328H61.125ZM60.125 64.3359H50.7891V66.3359H60.125V64.3359ZM50.7891 64.3359C50.6149 64.3359 50.5367 64.2908 50.4815 64.2411L49.1435 65.7277C49.6091 66.1467 50.182 66.3359 50.7891 66.3359V64.3359ZM50.5558 64.3154C50.5061 64.2602 50.4609 64.182 50.4609 64.0078H48.4609C48.4609 64.6149 48.6502 65.1878 49.0692 65.6533L50.5558 64.3154ZM50.4609 64.0078V62.4453H48.4609V64.0078H50.4609ZM50.4609 62.4453C50.4609 62.163 50.5268 61.8453 50.6872 61.4843L48.8596 60.672C48.6034 61.2485 48.4609 61.8422 48.4609 62.4453H50.4609ZM50.6683 61.5245L59.1839 44.4542L57.3942 43.5614L48.8786 60.6317L50.6683 61.5245ZM59.2016 44.4169C59.3042 44.188 59.4193 44.0711 59.5255 44.0041C59.6341 43.9356 59.8044 43.875 60.0859 43.875V41.875C59.5081 41.875 58.9492 42.0032 58.4589 42.3123C57.9661 42.623 57.6125 43.0724 57.3766 43.5988L59.2016 44.4169ZM60.0859 43.875H61.4922V41.875H60.0859V43.875ZM61.4922 43.875C61.6542 43.875 61.7043 43.9154 61.7263 43.9349L63.055 42.4401C62.6082 42.043 62.0594 41.875 61.4922 41.875V43.875ZM61.7263 43.9349C61.7383 43.9456 61.7434 43.9521 61.7444 43.9535C61.7454 43.9547 61.7441 43.9532 61.7424 43.9494C61.7407 43.9457 61.7403 43.9435 61.7405 43.9445C61.7408 43.9459 61.7422 43.9534 61.7422 43.9688H63.7422C63.7422 43.3695 63.502 42.8374 63.055 42.4401L61.7263 43.9349ZM61.7422 43.9688C61.7422 44.0043 61.7345 44.0605 61.6915 44.1465L63.4804 45.041C63.6457 44.7103 63.7422 44.3498 63.7422 43.9688H61.7422ZM61.6919 44.1457L53.1763 61.1379L54.9643 62.034L63.48 45.0418L61.6919 44.1457ZM54.0703 62.5859H60.125V60.5859H54.0703V62.5859ZM61.125 61.5859V55.2969H59.125V61.5859H61.125ZM61.125 55.2969C61.125 55.1536 61.1621 55.088 61.2227 55.0274L59.8085 53.6132C59.3483 54.0734 59.125 54.6589 59.125 55.2969H61.125ZM61.2227 55.0274C61.2834 54.9668 61.3489 54.9297 61.4922 54.9297V52.9297C60.8542 52.9297 60.2687 53.153 59.8085 53.6132L61.2227 55.0274ZM61.4922 54.9297H62.8594V52.9297H61.4922V54.9297ZM62.8594 54.9297C63.0026 54.9297 63.0682 54.9668 63.1288 55.0274L64.543 53.6132C64.0828 53.153 63.4974 52.9297 62.8594 52.9297V54.9297ZM63.1288 55.0274C63.1895 55.088 63.2266 55.1536 63.2266 55.2969H65.2266C65.2266 54.6589 65.0033 54.0734 64.543 53.6132L63.1288 55.0274ZM63.2266 55.2969V61.5859H65.2266V55.2969H63.2266ZM64.2266 62.5859H65.9453V60.5859H64.2266V62.5859Z" fill="black" mask="url(#path-1-inside-1_2932_5606)"/>
<path d="M5.2032 76.1394C6.35823 86.6297 14.734 94.9584 25.0913 95.4662C32.2502 95.8173 39.5632 95.9998 47.5001 95.9998C55.4371 95.9998 62.75 95.8173 69.9089 95.4662C80.2663 94.9584 88.6421 86.6297 89.7968 76.1394C91.4011 61.5698 91.4011 49.1624 89.7968 34.5926C88.6421 24.1026 80.2663 15.7737 69.9089 15.2659C62.7501 14.9149 55.4371 14.7324 47.5001 14.7324C39.5632 14.7324 32.2502 14.9149 25.0913 15.2659C14.734 15.7737 6.35823 24.1026 5.2032 34.5926C3.59893 49.1624 3.59894 61.5698 5.2032 76.1394Z" stroke="black" stroke-width="6.5" stroke-linecap="round" stroke-linejoin="round"/>
<path d="M28.3477 4V24.2403" stroke="black" stroke-width="6.5" stroke-linecap="round" stroke-linejoin="round"/>
<path d="M66.6445 4V24.2403" stroke="black" stroke-width="6.5" stroke-linecap="round" stroke-linejoin="round"/>
</svg>
