<svg width="68" height="68" viewBox="0 0 68 68" fill="none" xmlns="http://www.w3.org/2000/svg">
<path fill-rule="evenodd" clip-rule="evenodd" d="M33.7495 7.29185C28.0105 7.29185 22.7184 7.41666 17.5358 7.65691C8.88925 8.05781 1.85456 14.6343 0.88113 22.9945C-0.29371 33.0845 -0.29371 41.7074 0.88113 51.7975C1.85456 60.1575 8.88925 66.734 17.5358 67.135C22.7184 67.375 28.0105 67.5 33.7495 67.5C39.4885 67.5 44.7806 67.375 49.963 67.135C58.61 66.734 65.6445 60.1575 66.618 51.7975C67.7925 41.7074 67.7925 33.0845 66.618 22.9945C65.6445 14.6343 58.61 8.05781 49.9635 7.65691C44.7806 7.41666 39.4885 7.29185 33.7495 7.29185Z" fill="#9FA8DA"/>
<path fill-rule="evenodd" clip-rule="evenodd" d="M23.7598 3.75C23.7598 1.67893 22.0809 0 20.0098 0C17.9387 0 16.2598 1.67893 16.2598 3.75V15C16.2598 17.0711 17.9387 18.75 20.0098 18.75C22.0809 18.75 23.7598 17.0711 23.7598 15V3.75ZM51.24 3.75C51.24 1.67893 49.5615 0 47.4903 0C45.4192 0 43.7403 1.67893 43.7403 3.75V15C43.7403 17.0711 45.4192 18.75 47.4903 18.75C49.5615 18.75 51.24 17.0711 51.24 15V3.75Z" fill="#9FA8DA"/>
<mask id="path-3-outside-1_1144_18" maskUnits="userSpaceOnUse" x="16" y="24" width="37" height="26" fill="black">
<rect fill="white" x="16" y="24" width="37" height="26"/>
<path d="M30.2402 46.3682C30.8099 46.3682 31.0947 46.653 31.0947 47.2227V48.1455C31.0947 48.7152 30.8099 49 30.2402 49H18.1064C17.5368 49 17.252 48.7152 17.252 48.1455V47.2227C17.252 46.653 17.5368 46.3682 18.1064 46.3682H23.8145V31.2266H18.1064C17.5368 31.2266 17.252 30.9417 17.252 30.3721V29.4492C17.252 28.8796 17.5368 28.5947 18.1064 28.5947C19.8154 28.5947 21.1484 28.3896 22.1055 27.9795C23.0625 27.5465 23.7689 26.806 24.2246 25.7578C24.4297 25.3021 24.7601 25.0742 25.2158 25.0742H25.8652C26.4349 25.0742 26.7197 25.359 26.7197 25.9287V46.3682H30.2402ZM50.5771 41.4463C51.1468 41.4463 51.4316 41.7311 51.4316 42.3008V43.1895C51.4316 43.7591 51.1468 44.0439 50.5771 44.0439H48.6973V48.1455C48.6973 48.7152 48.4124 49 47.8428 49H46.6465C46.0996 49 45.8262 48.7152 45.8262 48.1455V44.0439H37.3154C36.7686 44.0439 36.4951 43.7705 36.4951 43.2236V41.8564C36.4951 41.4691 36.5749 41.1159 36.7344 40.7969L44.1855 25.8604C44.3223 25.5641 44.4818 25.359 44.6641 25.2451C44.8464 25.1312 45.1084 25.0742 45.4502 25.0742H46.6807C46.9313 25.0742 47.125 25.1312 47.2617 25.2451C47.3984 25.3363 47.4668 25.473 47.4668 25.6553C47.4668 25.7236 47.4212 25.8717 47.3301 26.0996L39.6396 41.4463H45.8262V35.6016C45.8262 35.0319 46.111 34.7471 46.6807 34.7471H47.877C48.4466 34.7471 48.7314 35.0319 48.7314 35.6016V41.4463H50.5771Z"/>
</mask>
<path d="M30.2402 46.3682C30.8099 46.3682 31.0947 46.653 31.0947 47.2227V48.1455C31.0947 48.7152 30.8099 49 30.2402 49H18.1064C17.5368 49 17.252 48.7152 17.252 48.1455V47.2227C17.252 46.653 17.5368 46.3682 18.1064 46.3682H23.8145V31.2266H18.1064C17.5368 31.2266 17.252 30.9417 17.252 30.3721V29.4492C17.252 28.8796 17.5368 28.5947 18.1064 28.5947C19.8154 28.5947 21.1484 28.3896 22.1055 27.9795C23.0625 27.5465 23.7689 26.806 24.2246 25.7578C24.4297 25.3021 24.7601 25.0742 25.2158 25.0742H25.8652C26.4349 25.0742 26.7197 25.359 26.7197 25.9287V46.3682H30.2402ZM50.5771 41.4463C51.1468 41.4463 51.4316 41.7311 51.4316 42.3008V43.1895C51.4316 43.7591 51.1468 44.0439 50.5771 44.0439H48.6973V48.1455C48.6973 48.7152 48.4124 49 47.8428 49H46.6465C46.0996 49 45.8262 48.7152 45.8262 48.1455V44.0439H37.3154C36.7686 44.0439 36.4951 43.7705 36.4951 43.2236V41.8564C36.4951 41.4691 36.5749 41.1159 36.7344 40.7969L44.1855 25.8604C44.3223 25.5641 44.4818 25.359 44.6641 25.2451C44.8464 25.1312 45.1084 25.0742 45.4502 25.0742H46.6807C46.9313 25.0742 47.125 25.1312 47.2617 25.2451C47.3984 25.3363 47.4668 25.473 47.4668 25.6553C47.4668 25.7236 47.4212 25.8717 47.3301 26.0996L39.6396 41.4463H45.8262V35.6016C45.8262 35.0319 46.111 34.7471 46.6807 34.7471H47.877C48.4466 34.7471 48.7314 35.0319 48.7314 35.6016V41.4463H50.5771Z" fill="white"/>
<path d="M23.8145 46.3682V47.3682H24.8145V46.3682H23.8145ZM23.8145 31.2266H24.8145V30.2266H23.8145V31.2266ZM22.1055 27.9795L22.4994 28.8986L22.5086 28.8947L22.5176 28.8906L22.1055 27.9795ZM24.2246 25.7578L23.3126 25.3474L23.3075 25.3591L24.2246 25.7578ZM26.7197 46.3682H25.7197V47.3682H26.7197V46.3682ZM30.2402 47.3682C30.3023 47.3682 30.3159 47.3763 30.2978 47.3703C30.275 47.3626 30.225 47.3398 30.174 47.2889C30.123 47.2379 30.1003 47.1879 30.0926 47.165C30.0866 47.147 30.0947 47.1606 30.0947 47.2227H32.0947C32.0947 46.7837 31.9843 46.2708 31.5882 45.8747C31.1921 45.4786 30.6792 45.3682 30.2402 45.3682V47.3682ZM30.0947 47.2227V48.1455H32.0947V47.2227H30.0947ZM30.0947 48.1455C30.0947 48.2076 30.0866 48.2212 30.0926 48.2031C30.1003 48.1802 30.123 48.1302 30.174 48.0793C30.225 48.0283 30.275 48.0055 30.2978 47.9979C30.3159 47.9919 30.3023 48 30.2402 48V50C30.6792 50 31.1921 49.8896 31.5882 49.4935C31.9843 49.0974 32.0947 48.5845 32.0947 48.1455H30.0947ZM30.2402 48H18.1064V50H30.2402V48ZM18.1064 48C18.0444 48 18.0308 47.9919 18.0488 47.9979C18.0717 48.0055 18.1217 48.0283 18.1727 48.0793C18.2236 48.1302 18.2464 48.1802 18.254 48.2031C18.2601 48.2212 18.252 48.2076 18.252 48.1455H16.252C16.252 48.5845 16.3624 49.0974 16.7585 49.4935C17.1546 49.8896 17.6675 50 18.1064 50V48ZM18.252 48.1455V47.2227H16.252V48.1455H18.252ZM18.252 47.2227C18.252 47.1606 18.2601 47.147 18.254 47.165C18.2464 47.1879 18.2236 47.2379 18.1727 47.2889C18.1217 47.3398 18.0717 47.3626 18.0488 47.3703C18.0308 47.3763 18.0444 47.3682 18.1064 47.3682V45.3682C17.6675 45.3682 17.1546 45.4786 16.7585 45.8747C16.3624 46.2708 16.252 46.7837 16.252 47.2227H18.252ZM18.1064 47.3682H23.8145V45.3682H18.1064V47.3682ZM24.8145 46.3682V31.2266H22.8145V46.3682H24.8145ZM23.8145 30.2266H18.1064V32.2266H23.8145V30.2266ZM18.1064 30.2266C18.0444 30.2266 18.0308 30.2185 18.0488 30.2245C18.0717 30.2321 18.1217 30.2549 18.1727 30.3058C18.2236 30.3568 18.2464 30.4068 18.254 30.4297C18.2601 30.4477 18.252 30.4341 18.252 30.3721H16.252C16.252 30.811 16.3624 31.324 16.7585 31.72C17.1546 32.1161 17.6675 32.2266 18.1064 32.2266V30.2266ZM18.252 30.3721V29.4492H16.252V30.3721H18.252ZM18.252 29.4492C18.252 29.3872 18.2601 29.3736 18.254 29.3916C18.2464 29.4145 18.2236 29.4645 18.1727 29.5155C18.1217 29.5664 18.0717 29.5892 18.0488 29.5968C18.0308 29.6028 18.0444 29.5947 18.1064 29.5947V27.5947C17.6675 27.5947 17.1546 27.7051 16.7585 28.1012C16.3624 28.4973 16.252 29.0102 16.252 29.4492H18.252ZM18.1064 29.5947C19.8749 29.5947 21.3632 29.3856 22.4994 28.8986L21.7115 27.0603C20.9337 27.3937 19.756 27.5947 18.1064 27.5947V29.5947ZM22.5176 28.8906C23.7214 28.346 24.5965 27.4105 25.1417 26.1565L23.3075 25.3591C22.9413 26.2015 22.4036 26.7471 21.6933 27.0684L22.5176 28.8906ZM25.1365 26.1682C25.1824 26.0662 25.2118 26.056 25.194 26.0683C25.1864 26.0736 25.1788 26.0766 25.1759 26.0774C25.1741 26.0779 25.1855 26.0742 25.2158 26.0742V24.0742C24.8136 24.0742 24.4126 24.1777 24.0585 24.4219C23.7102 24.6621 23.4719 24.9937 23.3127 25.3474L25.1365 26.1682ZM25.2158 26.0742H25.8652V24.0742H25.2158V26.0742ZM25.8652 26.0742C25.9273 26.0742 25.9409 26.0823 25.9228 26.0763C25.9 26.0687 25.85 26.0459 25.799 25.9949C25.748 25.944 25.7253 25.894 25.7176 25.8711C25.7116 25.853 25.7197 25.8666 25.7197 25.9287H27.7197C27.7197 25.4897 27.6093 24.9768 27.2132 24.5807C26.8171 24.1846 26.3042 24.0742 25.8652 24.0742V26.0742ZM25.7197 25.9287V46.3682H27.7197V25.9287H25.7197ZM26.7197 47.3682H30.2402V45.3682H26.7197V47.3682ZM48.6973 44.0439V43.0439H47.6973V44.0439H48.6973ZM45.8262 44.0439H46.8262V43.0439H45.8262V44.0439ZM36.7344 40.7969L37.6288 41.2441L37.6292 41.2433L36.7344 40.7969ZM44.1855 25.8604L45.0804 26.3067L45.0872 26.2932L45.0935 26.2794L44.1855 25.8604ZM47.2617 25.2451L46.6215 26.0133L46.6626 26.0475L46.707 26.0772L47.2617 25.2451ZM47.3301 26.0996L48.2241 26.5476L48.2429 26.51L48.2586 26.471L47.3301 26.0996ZM39.6396 41.4463L38.7456 40.9983L38.02 42.4463H39.6396V41.4463ZM45.8262 41.4463V42.4463H46.8262V41.4463H45.8262ZM48.7314 41.4463H47.7314V42.4463H48.7314V41.4463ZM50.5771 42.4463C50.6392 42.4463 50.6528 42.4544 50.6348 42.4484C50.6119 42.4407 50.5619 42.418 50.5109 42.367C50.46 42.3161 50.4372 42.2661 50.4296 42.2432C50.4235 42.2251 50.4316 42.2387 50.4316 42.3008H52.4316C52.4316 41.8618 52.3212 41.3489 51.9251 40.9528C51.529 40.5567 51.0161 40.4463 50.5771 40.4463V42.4463ZM50.4316 42.3008V43.1895H52.4316V42.3008H50.4316ZM50.4316 43.1895C50.4316 43.2515 50.4235 43.2651 50.4296 43.2471C50.4372 43.2242 50.46 43.1742 50.5109 43.1232C50.5619 43.0723 50.6119 43.0495 50.6348 43.0419C50.6528 43.0358 50.6392 43.0439 50.5771 43.0439V45.0439C51.0161 45.0439 51.529 44.9335 51.9251 44.5374C52.3212 44.1413 52.4316 43.6284 52.4316 43.1895H50.4316ZM50.5771 43.0439H48.6973V45.0439H50.5771V43.0439ZM47.6973 44.0439V48.1455H49.6973V44.0439H47.6973ZM47.6973 48.1455C47.6973 48.2076 47.6892 48.2212 47.6952 48.2031C47.7028 48.1802 47.7256 48.1302 47.7765 48.0793C47.8275 48.0283 47.8775 48.0055 47.9004 47.9979C47.9184 47.9919 47.9048 48 47.8428 48V50C48.2817 50 48.7947 49.8896 49.1908 49.4935C49.5868 49.0974 49.6973 48.5845 49.6973 48.1455H47.6973ZM47.8428 48H46.6465V50H47.8428V48ZM46.6465 48C46.5937 48 46.5893 47.9928 46.6156 48.0019C46.6471 48.0129 46.7011 48.0401 46.7526 48.0938C46.8034 48.1467 46.8239 48.1961 46.8299 48.2146C46.8344 48.2287 46.8262 48.211 46.8262 48.1455H44.8262C44.8262 48.5745 44.9285 49.0817 45.3099 49.4789C45.6985 49.8837 46.2083 50 46.6465 50V48ZM46.8262 48.1455V44.0439H44.8262V48.1455H46.8262ZM45.8262 43.0439H37.3154V45.0439H45.8262V43.0439ZM37.3154 43.0439C37.2591 43.0439 37.2504 43.0366 37.2728 43.044C37.2999 43.053 37.3535 43.078 37.4073 43.1318C37.4611 43.1856 37.486 43.2391 37.4951 43.2663C37.5025 43.2886 37.4951 43.28 37.4951 43.2236H35.4951C35.4951 43.6512 35.6027 44.1556 35.9931 44.546C36.3835 44.9364 36.8878 45.0439 37.3154 45.0439V43.0439ZM37.4951 43.2236V41.8564H35.4951V43.2236H37.4951ZM37.4951 41.8564C37.4951 41.6107 37.5446 41.4126 37.6288 41.2441L35.8399 40.3497C35.6052 40.8192 35.4951 41.3275 35.4951 41.8564H37.4951ZM37.6292 41.2433L45.0804 26.3067L43.2907 25.414L35.8395 40.3505L37.6292 41.2433ZM45.0935 26.2794C45.1376 26.1838 45.1743 26.1276 45.1971 26.0983C45.2194 26.0697 45.2208 26.0764 45.1941 26.0931L44.1341 24.3971C43.7219 24.6547 43.4565 25.0536 43.2776 25.4413L45.0935 26.2794ZM45.1941 26.0931C45.1668 26.1102 45.1645 26.104 45.2097 26.0941C45.255 26.0843 45.3323 26.0742 45.4502 26.0742V24.0742C45.0217 24.0742 44.5432 24.1414 44.1341 24.3971L45.1941 26.0931ZM45.4502 26.0742H46.6807V24.0742H45.4502V26.0742ZM46.6807 26.0742C46.7325 26.0742 46.7455 26.0804 46.7318 26.0763C46.715 26.0714 46.6714 26.0549 46.6215 26.0133L47.9019 24.4769C47.5244 24.1623 47.071 24.0742 46.6807 24.0742V26.0742ZM46.707 26.0772C46.6418 26.0337 46.5706 25.9621 46.5211 25.8632C46.4737 25.7684 46.4668 25.6897 46.4668 25.6553H48.4668C48.4668 25.1817 48.2653 24.7123 47.8164 24.4131L46.707 26.0772ZM46.4668 25.6553C46.4668 25.6105 46.4704 25.5762 46.4729 25.5567C46.4755 25.5362 46.4784 25.5219 46.4797 25.5155C46.4822 25.5038 46.4825 25.505 46.4768 25.5235C46.4715 25.5407 46.463 25.5664 46.4501 25.6019C46.4373 25.6371 46.4213 25.679 46.4016 25.7282L48.2586 26.471C48.3092 26.3445 48.3543 26.2224 48.3884 26.1117C48.4129 26.0319 48.4668 25.8524 48.4668 25.6553H46.4668ZM46.4361 25.6516L38.7456 40.9983L40.5337 41.8943L48.2241 26.5476L46.4361 25.6516ZM39.6396 42.4463H45.8262V40.4463H39.6396V42.4463ZM46.8262 41.4463V35.6016H44.8262V41.4463H46.8262ZM46.8262 35.6016C46.8262 35.5395 46.8343 35.5259 46.8283 35.5439C46.8206 35.5668 46.7979 35.6168 46.7469 35.6678C46.6959 35.7188 46.6459 35.7415 46.6231 35.7492C46.605 35.7552 46.6186 35.7471 46.6807 35.7471V33.7471C46.2417 33.7471 45.7288 33.8575 45.3327 34.2536C44.9366 34.6497 44.8262 35.1626 44.8262 35.6016H46.8262ZM46.6807 35.7471H47.877V33.7471H46.6807V35.7471ZM47.877 35.7471C47.939 35.7471 47.9526 35.7552 47.9346 35.7492C47.9117 35.7415 47.8617 35.7188 47.8107 35.6678C47.7598 35.6168 47.737 35.5668 47.7294 35.5439C47.7233 35.5259 47.7314 35.5395 47.7314 35.6016H49.7314C49.7314 35.1626 49.621 34.6497 49.2249 34.2536C48.8288 33.8575 48.3159 33.7471 47.877 33.7471V35.7471ZM47.7314 35.6016V41.4463H49.7314V35.6016H47.7314ZM48.7314 42.4463H50.5771V40.4463H48.7314V42.4463Z" fill="white" mask="url(#path-3-outside-1_1144_18)"/>
</svg>
