<svg viewBox="0 0 48 48" xmlns="http://www.w3.org/2000/svg" id="United-States--Streamline-Emoji.svg"><desc>United States Streamline Emoji: https://streamlinehq.com</desc><path d="M24 7.1281H24C19.063 5.4742 13.8893 4.6367 8.6826 4.6487H2.0578C1.5324 4.5843 1.0508 4.9487 0.97 5.4719V32.6669C1.046 33.194 1.5291 33.5639 2.0578 33.4999H8.6826C13.8909 33.4974 19.0647 34.3448 24 36.0087H24C28.9387 37.6526 34.1124 38.4802 39.3174 38.4587H45.9422C46.54 38.4587 47.03 38.0961 47.03 37.6355V10.4405C46.9492 9.9173 46.4676 9.5529 45.9422 9.6173H39.3174C34.1098 9.6309 28.9353 8.79 24 7.1281Z" fill="#ffffff" stroke="#45413c" stroke-linecap="round" stroke-linejoin="round" stroke-width="1"></path><path d="M47.03 13.7529H39.3174C34.1107 13.7649 28.937 12.9274 24 11.2735H24C19.0635 9.6162 13.8898 8.7755 8.6826 8.7843H0.97V5.4719C1.0508 4.9487 1.5324 4.5843 2.0578 4.6487H8.6826C13.8893 4.6367 19.063 5.4742 24 7.1281H24C28.9353 8.79 34.1098 9.6309 39.3174 9.6173H45.9422C46.4676 9.5529 46.9492 9.9173 47.03 10.4405Z" fill="#ff6242" stroke="#45413c" stroke-linecap="round" stroke-linejoin="round" stroke-width="1"></path><path d="M47.03 17.8983H39.3174C34.1113 17.9134 28.9376 17.0793 24 15.4287H24C19.0641 13.7681 13.8904 12.924 8.6826 12.9297H0.97V17.0653H8.6826C13.8898 17.0565 19.0635 17.8972 24 19.5545H24C28.937 21.2084 34.1107 22.0459 39.3174 22.0339H47.03Z" fill="#ff6242" stroke="#45413c" stroke-linecap="round" stroke-linejoin="round" stroke-width="1"></path><path d="M47.03 26.0421H39.3174C34.1107 26.0541 28.937 25.2166 24 23.5627H24C19.0635 21.9054 13.8898 21.0647 8.6826 21.0735H0.97V25.2287H8.6826C13.8887 25.2135 19.0624 26.0477 24 27.6983H24C28.9365 29.3555 34.1102 30.1963 39.3174 30.1875H47.03Z" fill="#ff6242" stroke="#45413c" stroke-linecap="round" stroke-linejoin="round" stroke-width="1"></path><path d="M45.9422 38.4587C46.54 38.4587 47.03 38.0961 47.03 37.6355V34.3231H39.3174C34.1107 34.3351 28.937 33.4976 24 31.8437H24C19.0647 30.1818 13.8902 29.3409 8.6826 29.3545H0.97V32.6669C1.046 33.194 1.5291 33.5639 2.0578 33.4999H8.6826C13.8909 33.4974 19.0647 34.3448 24 36.0087H24C28.9387 37.6526 34.1124 38.4802 39.3174 38.4587Z" fill="#ff6242" stroke="#45413c" stroke-linecap="round" stroke-linejoin="round" stroke-width="1"></path><path d="M19.394 5.8443C15.8788 5.0506 12.2863 4.6497 8.6826 4.6487H2.0578C1.5324 4.5843 1.0508 4.9487 0.97 5.4719V17.0653H8.6826C12.2863 17.0663 15.8788 17.4672 19.394 18.2609Z" fill="#00b8f0" stroke="#45413c" stroke-linecap="round" stroke-linejoin="round" stroke-width="1"></path><path d="M5.1056 7.0595L5.3898 7.6377C5.4119 7.6848 5.456 7.7178 5.5074 7.7259L6.1542 7.8239C6.2735 7.8423 6.3281 7.9829 6.2526 8.077C6.2494 8.081 6.246 8.0848 6.2424 8.0885L5.772 8.5687C5.7529 8.6158 5.7529 8.6685 5.772 8.7157L5.8798 9.3527C5.8914 9.4801 5.761 9.5725 5.6446 9.5193L5.0762 9.2155C5.0293 9.1953 4.9761 9.1953 4.9292 9.2155L4.351 9.5193C4.2433 9.5739 4.117 9.4914 4.1235 9.3709C4.1239 9.3648 4.1246 9.3587 4.1256 9.3527L4.2334 8.7157C4.2562 8.6693 4.2562 8.615 4.2334 8.5687L3.7728 8.1179C3.6884 8.0316 3.7291 7.8863 3.846 7.8564C3.851 7.8551 3.856 7.8541 3.861 7.8533L4.498 7.7553C4.5518 7.7471 4.5988 7.7146 4.6254 7.6671L4.9096 7.0889C4.9597 7.0338 5.0416 7.0215 5.1056 7.0595Z" fill="#ffffff" stroke-width="1"></path><path d="M9.8096 7.0595L10.0938 7.6377C10.1183 7.6828 10.1612 7.715 10.2114 7.7259L10.8582 7.8239C10.9775 7.8423 11.0321 7.9829 10.9566 8.077C10.9534 8.081 10.95 8.0848 10.9464 8.0885L10.476 8.5687C10.4569 8.6158 10.4569 8.6685 10.476 8.7157L10.5838 9.3527C10.6044 9.4716 10.4885 9.5682 10.3752 9.5266C10.3695 9.5245 10.3639 9.5221 10.3584 9.5193L9.7802 9.2155C9.7333 9.1953 9.6801 9.1953 9.6332 9.2155L9.055 9.5193C8.9473 9.5739 8.821 9.4914 8.8275 9.3709C8.8279 9.3648 8.8286 9.3587 8.8296 9.3527L8.9374 8.7157C8.9565 8.6685 8.9565 8.6158 8.9374 8.5687L8.467 8.1179C8.3826 8.0316 8.4233 7.8863 8.5402 7.8564C8.5452 7.8551 8.5502 7.8541 8.5552 7.8533L9.202 7.7553C9.2522 7.7444 9.2951 7.7122 9.3196 7.6671L9.6038 7.0889C9.6551 7.0285 9.7434 7.0159 9.8096 7.0595Z" fill="#ffffff" stroke-width="1"></path><path d="M14.4842 8.0297L14.7684 8.6079C14.7905 8.655 14.8346 8.688 14.886 8.6961L15.523 8.7843C15.6432 8.7956 15.706 8.9328 15.6361 9.0312C15.6289 9.0413 15.6206 9.0505 15.6112 9.0587L15.18 9.5487C15.1421 9.5836 15.1238 9.6349 15.131 9.6859L15.2486 10.3327C15.2602 10.4601 15.1298 10.5525 15.0134 10.4993L14.445 10.1955C14.4001 10.167 14.3429 10.167 14.298 10.1955L13.7198 10.4993C13.6121 10.5539 13.4858 10.4714 13.4923 10.3509C13.4927 10.3448 13.4934 10.3387 13.4944 10.3327L13.6022 9.6859C13.6233 9.6426 13.6233 9.592 13.6022 9.5487L13.1416 9.0979C13.0505 9.0187 13.0794 8.8706 13.1935 8.8313C13.2053 8.8273 13.2174 8.8247 13.2298 8.8235L13.8668 8.7353C13.9117 8.6924 13.9271 8.6271 13.906 8.5687L14.2 7.9905C14.2634 7.8878 14.4142 7.8922 14.4715 7.9984C14.4768 8.0083 14.4811 8.0188 14.4842 8.0297Z" fill="#ffffff" stroke-width="1"></path><path d="M5.1056 11.6949L5.3898 12.2731C5.4119 12.3202 5.456 12.3532 5.5074 12.3613L6.1542 12.4495C6.2792 12.4767 6.3281 12.6289 6.2424 12.7239L5.772 13.1747C5.7535 13.2185 5.7535 13.268 5.772 13.3119L5.8798 13.9489C5.9051 14.0669 5.7932 14.1681 5.6783 14.131C5.6665 14.1272 5.6552 14.122 5.6446 14.1155L5.0762 13.8215C5.0313 13.793 4.9741 13.793 4.9292 13.8215L4.351 14.1155C4.2433 14.1701 4.117 14.0876 4.1235 13.9671C4.1239 13.961 4.1246 13.9549 4.1256 13.9489L4.2334 13.3119C4.2545 13.2686 4.2545 13.218 4.2334 13.1747L3.7728 12.7239C3.708 12.6589 3.708 12.5537 3.7728 12.4887L4.4 12.3613C4.4538 12.3531 4.5008 12.3206 4.5274 12.2731L4.8116 11.6949C4.8536 11.5817 5.0024 11.5565 5.0794 11.6494C5.0906 11.663 5.0995 11.6784 5.1056 11.6949Z" fill="#ffffff" stroke-width="1"></path><path d="M9.8096 11.6949L10.0938 12.2731C10.1183 12.3182 10.1612 12.3504 10.2114 12.3613L10.8582 12.4495C10.9832 12.4767 11.0321 12.6289 10.9464 12.7239L10.476 13.1747C10.4575 13.2185 10.4575 13.268 10.476 13.3119L10.5838 13.9489C10.6044 14.0678 10.4885 14.1644 10.3752 14.1228C10.3695 14.1207 10.3639 14.1183 10.3584 14.1155L9.7802 13.8215C9.7353 13.793 9.6781 13.793 9.6332 13.8215L9.055 14.1155C8.9473 14.1701 8.821 14.0876 8.8275 13.9671C8.8279 13.961 8.8286 13.9549 8.8296 13.9489L8.9374 13.3119C8.9559 13.268 8.9559 13.2185 8.9374 13.1747L8.467 12.7239C8.4048 12.6562 8.4092 12.551 8.4768 12.4887L9.1236 12.4005C9.1738 12.3896 9.2167 12.3574 9.2412 12.3123L9.5254 11.7341C9.5586 11.618 9.705 11.5814 9.7889 11.6682C9.7967 11.6763 9.8037 11.6853 9.8096 11.6949Z" fill="#ffffff" stroke-width="1"></path><path d="M14.4842 12.6553L14.7684 13.2433C14.7916 13.2878 14.836 13.3174 14.886 13.3217L15.523 13.4197C15.6362 13.4197 15.7069 13.5422 15.6503 13.6402C15.6404 13.6574 15.6271 13.6724 15.6112 13.6843L15.1506 14.1449C15.1112 14.1787 15.0925 14.2309 15.1016 14.2821L15.2192 14.9191C15.2308 15.0465 15.1004 15.1389 14.984 15.0857L14.4156 14.7819C14.3687 14.7617 14.3155 14.7617 14.2686 14.7819L13.6904 15.0857C13.5827 15.1403 13.4564 15.0578 13.4629 14.9373C13.4633 14.9312 13.464 14.9251 13.465 14.9191L13.5728 14.2821C13.5955 14.2392 13.5955 14.1878 13.5728 14.1449L13.1122 13.6843C13.0217 13.6164 13.0386 13.476 13.1427 13.4315C13.1609 13.4237 13.1805 13.4197 13.2004 13.4197L13.8374 13.3217C13.8874 13.3174 13.9318 13.2878 13.955 13.2433L14.249 12.6553C14.3114 12.5845 14.4218 12.5845 14.4842 12.6553Z" fill="#ffffff" stroke-width="1"></path><path d="M11.26 42.3787C11.26 43.5103 20.6517 44.2175 28.165 43.6517C31.652 43.3892 33.8 42.9039 33.8 42.3787C33.8 41.2471 24.4083 40.5398 16.895 41.1056C13.408 41.3682 11.26 41.8535 11.26 42.3787Z" fill="#45413c" opacity=".15" stroke-width="1"></path></svg>