<svg width="68" height="68" viewBox="0 0 68 68" fill="none" xmlns="http://www.w3.org/2000/svg">
<path fill-rule="evenodd" clip-rule="evenodd" d="M33.7495 7.29184C28.0105 7.29184 22.7184 7.41664 17.5358 7.65689C8.88925 8.05779 1.85456 14.6343 0.88113 22.9945C-0.29371 33.0845 -0.29371 41.7074 0.88113 51.7975C1.85456 60.1575 8.88925 66.734 17.5358 67.135C22.7184 67.375 28.0105 67.5 33.7495 67.5C39.4885 67.5 44.7806 67.375 49.963 67.135C58.61 66.734 65.6445 60.1575 66.618 51.7975C67.7925 41.7074 67.7925 33.0845 66.618 22.9945C65.6445 14.6343 58.61 8.05779 49.9635 7.65689C44.7806 7.41664 39.4885 7.29184 33.7495 7.29184Z" fill="#9FA8DA"/>
<path fill-rule="evenodd" clip-rule="evenodd" d="M23.7598 3.75C23.7598 1.67893 22.0809 0 20.0098 0C17.9387 0 16.2598 1.67893 16.2598 3.75V15C16.2598 17.071 17.9387 18.75 20.0098 18.75C22.0809 18.75 23.7598 17.071 23.7598 15V3.75ZM51.24 3.75C51.24 1.67893 49.5615 0 47.4903 0C45.4192 0 43.7403 1.67893 43.7403 3.75V15C43.7403 17.071 45.4192 18.75 47.4903 18.75C49.5615 18.75 51.24 17.071 51.24 15V3.75Z" fill="#9FA8DA"/>
<mask id="path-3-outside-1_1144_17" maskUnits="userSpaceOnUse" x="25" y="23" width="19" height="30" fill="black">
<rect fill="white" x="25" y="23" width="19" height="30"/>
<path d="M41.9492 24.6562C42.5742 24.6562 42.8867 24.9688 42.8867 25.5938V27.5469C42.8867 28.6146 42.7565 29.6302 42.4961 30.5938C42.2357 31.5312 41.7799 32.612 41.1289 33.8359L37.3008 41.0625C35.4779 44.5781 34.5664 47.9115 34.5664 51.0625C34.5664 51.6875 34.2279 52 33.5508 52H32.2227C31.5716 52 31.2461 51.6875 31.2461 51.0625C31.2461 47.9115 32.3138 44.1615 34.4492 39.8125L37.9648 32.7812C38.5638 31.6094 38.9805 30.6458 39.2148 29.8906C39.4492 29.1094 39.5664 28.3542 39.5664 27.625H29.4102V31.7656C29.4102 32.4167 29.0846 32.7422 28.4336 32.7422H27.0664C26.4154 32.7422 26.0898 32.4167 26.0898 31.7656V25.6328C26.0898 24.9818 26.4154 24.6562 27.0664 24.6562H41.9492Z"/>
</mask>
<path d="M41.9492 24.6562C42.5742 24.6562 42.8867 24.9688 42.8867 25.5938V27.5469C42.8867 28.6146 42.7565 29.6302 42.4961 30.5938C42.2357 31.5312 41.7799 32.612 41.1289 33.8359L37.3008 41.0625C35.4779 44.5781 34.5664 47.9115 34.5664 51.0625C34.5664 51.6875 34.2279 52 33.5508 52H32.2227C31.5716 52 31.2461 51.6875 31.2461 51.0625C31.2461 47.9115 32.3138 44.1615 34.4492 39.8125L37.9648 32.7812C38.5638 31.6094 38.9805 30.6458 39.2148 29.8906C39.4492 29.1094 39.5664 28.3542 39.5664 27.625H29.4102V31.7656C29.4102 32.4167 29.0846 32.7422 28.4336 32.7422H27.0664C26.4154 32.7422 26.0898 32.4167 26.0898 31.7656V25.6328C26.0898 24.9818 26.4154 24.6562 27.0664 24.6562H41.9492Z" fill="white"/>
<path d="M42.4961 30.5938L43.4596 30.8614L43.4615 30.8547L42.4961 30.5938ZM41.1289 33.8359L40.246 33.3663L40.2452 33.3678L41.1289 33.8359ZM37.3008 41.0625L36.4171 40.5944L36.413 40.6022L37.3008 41.0625ZM34.4492 39.8125L33.5548 39.3653L33.5516 39.3717L34.4492 39.8125ZM37.9648 32.7812L37.0744 32.3261L37.0704 32.334L37.9648 32.7812ZM39.2148 29.8906L40.17 30.187L40.1727 30.178L39.2148 29.8906ZM39.5664 27.625H40.5664V26.625H39.5664V27.625ZM29.4102 27.625V26.625H28.4102V27.625H29.4102ZM41.9492 25.6562C42.0251 25.6562 42.0508 25.6661 42.0431 25.6635C42.0383 25.6619 42.0248 25.6568 42.006 25.6456C41.9869 25.6341 41.9657 25.6182 41.9452 25.5977C41.9247 25.5772 41.9089 25.5561 41.8974 25.537C41.8861 25.5182 41.8811 25.5047 41.8794 25.4998C41.8769 25.4921 41.8867 25.5178 41.8867 25.5938H43.8867C43.8867 25.1271 43.7694 24.5934 43.3595 24.1835C42.9495 23.7736 42.4159 23.6562 41.9492 23.6562V25.6562ZM41.8867 25.5938V27.5469H43.8867V25.5938H41.8867ZM41.8867 27.5469C41.8867 28.5326 41.7666 29.4601 41.5307 30.3328L43.4615 30.8547C43.7464 29.8003 43.8867 28.6966 43.8867 27.5469H41.8867ZM41.5326 30.3261C41.2979 31.171 40.8761 32.1819 40.246 33.3663L42.0118 34.3056C42.6838 33.0421 43.1735 31.8915 43.4596 30.8614L41.5326 30.3261ZM40.2452 33.3678L36.4171 40.5944L38.1845 41.5306L42.0126 34.304L40.2452 33.3678ZM36.413 40.6022C34.5349 44.2243 33.5664 47.7153 33.5664 51.0625H35.5664C35.5664 48.1076 36.4209 44.9319 38.1885 41.5228L36.413 40.6022ZM33.5664 51.0625C33.5664 51.1312 33.5568 51.1484 33.5624 51.133C33.5655 51.1245 33.5723 51.1086 33.5851 51.0888C33.5982 51.0687 33.6148 51.0488 33.6342 51.0308C33.6535 51.013 33.6716 51.0009 33.6852 50.9934C33.6984 50.9861 33.7048 50.9845 33.701 50.9856C33.697 50.9869 33.6835 50.9906 33.6581 50.9939C33.6326 50.9973 33.5973 51 33.5508 51V53C34.0245 53 34.5662 52.8924 34.9908 52.5004C35.4305 52.0945 35.5664 51.5506 35.5664 51.0625H33.5664ZM33.5508 51H32.2227V53H33.5508V51ZM32.2227 51C32.1809 51 32.1504 50.9975 32.1296 50.9946C32.1089 50.9918 32.1 50.9889 32.1002 50.989C32.1007 50.9891 32.1107 50.9924 32.1267 51.0016C32.1431 51.0111 32.1628 51.025 32.1828 51.0442C32.2028 51.0635 32.2191 51.0841 32.2314 51.1038C32.2435 51.1231 32.2495 51.1379 32.2518 51.1446C32.2558 51.1563 32.2461 51.1348 32.2461 51.0625H30.2461C30.2461 51.5398 30.3725 52.0788 30.7977 52.487C31.2153 52.8879 31.753 53 32.2227 53V51ZM32.2461 51.0625C32.2461 48.1244 33.246 44.5318 35.3468 40.2533L33.5516 39.3717C31.3816 43.7911 30.2461 47.6985 30.2461 51.0625H32.2461ZM35.3436 40.2597L38.8593 33.2285L37.0704 32.334L33.5548 39.3653L35.3436 40.2597ZM38.8553 33.2364C39.4656 32.0423 39.9111 31.0209 40.1699 30.187L38.2598 29.5942C38.0498 30.2708 37.662 31.1765 37.0744 32.3261L38.8553 33.2364ZM40.1727 30.178C40.4317 29.3144 40.5664 28.4623 40.5664 27.625H38.5664C38.5664 28.2461 38.4667 28.9043 38.257 29.6033L40.1727 30.178ZM39.5664 26.625H29.4102V28.625H39.5664V26.625ZM28.4102 27.625V31.7656H30.4102V27.625H28.4102ZM28.4102 31.7656C28.4102 31.8057 28.4076 31.8343 28.4049 31.8531C28.4023 31.8717 28.3997 31.8787 28.4004 31.8766C28.4012 31.8742 28.4053 31.8629 28.4153 31.8462C28.4256 31.8291 28.44 31.8098 28.4589 31.7909C28.4778 31.7721 28.4971 31.7576 28.5142 31.7474C28.5309 31.7373 28.5422 31.7333 28.5446 31.7325C28.5467 31.7318 28.5397 31.7343 28.5211 31.737C28.5023 31.7397 28.4737 31.7422 28.4336 31.7422V33.7422C28.9133 33.7422 29.4567 33.6216 29.8731 33.2052C30.2896 32.7887 30.4102 32.2453 30.4102 31.7656H28.4102ZM28.4336 31.7422H27.0664V33.7422H28.4336V31.7422ZM27.0664 31.7422C27.0263 31.7422 26.9977 31.7397 26.9789 31.737C26.9603 31.7343 26.9533 31.7318 26.9554 31.7325C26.9578 31.7333 26.9691 31.7373 26.9858 31.7474C27.0029 31.7576 27.0222 31.7721 27.0411 31.7909C27.06 31.8098 27.0744 31.8291 27.0847 31.8462C27.0947 31.8629 27.0988 31.8742 27.0996 31.8766C27.1003 31.8787 27.0977 31.8717 27.0951 31.8531C27.0924 31.8343 27.0898 31.8057 27.0898 31.7656H25.0898C25.0898 32.2453 25.2104 32.7887 25.6269 33.2052C26.0433 33.6216 26.5867 33.7422 27.0664 33.7422V31.7422ZM27.0898 31.7656V25.6328H25.0898V31.7656H27.0898ZM27.0898 25.6328C27.0898 25.5927 27.0924 25.5641 27.0951 25.5454C27.0977 25.5267 27.1003 25.5197 27.0996 25.5218C27.0988 25.5242 27.0947 25.5355 27.0847 25.5522C27.0744 25.5693 27.06 25.5886 27.0411 25.6075C27.0222 25.6264 27.0029 25.6408 26.9858 25.6511C26.9691 25.6611 26.9578 25.6652 26.9554 25.666C26.9533 25.6667 26.9603 25.6641 26.9789 25.6615C26.9977 25.6588 27.0263 25.6562 27.0664 25.6562V23.6562C26.5867 23.6562 26.0433 23.7768 25.6269 24.1933C25.2104 24.6097 25.0898 25.1531 25.0898 25.6328H27.0898ZM27.0664 25.6562H41.9492V23.6562H27.0664V25.6562Z" fill="white" mask="url(#path-3-outside-1_1144_17)"/>
</svg>
