<svg width="73" height="73" viewBox="0 0 73 73" fill="none" xmlns="http://www.w3.org/2000/svg">
<mask id="path-1-outside-1_1174_18" maskUnits="userSpaceOnUse" x="28" y="26" width="19" height="30" fill="black">
<rect fill="white" x="28" y="26" width="19" height="30"/>
<path d="M44.9492 27.6562C45.5742 27.6562 45.8867 27.9688 45.8867 28.5938V30.5469C45.8867 31.6146 45.7565 32.6302 45.4961 33.5938C45.2357 34.5312 44.7799 35.612 44.1289 36.8359L40.3008 44.0625C38.4779 47.5781 37.5664 50.9115 37.5664 54.0625C37.5664 54.6875 37.2279 55 36.5508 55H35.2227C34.5716 55 34.2461 54.6875 34.2461 54.0625C34.2461 50.9115 35.3138 47.1615 37.4492 42.8125L40.9648 35.7812C41.5638 34.6094 41.9805 33.6458 42.2148 32.8906C42.4492 32.1094 42.5664 31.3542 42.5664 30.625H32.4102V34.7656C32.4102 35.4167 32.0846 35.7422 31.4336 35.7422H30.0664C29.4154 35.7422 29.0898 35.4167 29.0898 34.7656V28.6328C29.0898 27.9818 29.4154 27.6562 30.0664 27.6562H44.9492Z"/>
</mask>
<path d="M44.9492 27.6562C45.5742 27.6562 45.8867 27.9688 45.8867 28.5938V30.5469C45.8867 31.6146 45.7565 32.6302 45.4961 33.5938C45.2357 34.5312 44.7799 35.612 44.1289 36.8359L40.3008 44.0625C38.4779 47.5781 37.5664 50.9115 37.5664 54.0625C37.5664 54.6875 37.2279 55 36.5508 55H35.2227C34.5716 55 34.2461 54.6875 34.2461 54.0625C34.2461 50.9115 35.3138 47.1615 37.4492 42.8125L40.9648 35.7812C41.5638 34.6094 41.9805 33.6458 42.2148 32.8906C42.4492 32.1094 42.5664 31.3542 42.5664 30.625H32.4102V34.7656C32.4102 35.4167 32.0846 35.7422 31.4336 35.7422H30.0664C29.4154 35.7422 29.0898 35.4167 29.0898 34.7656V28.6328C29.0898 27.9818 29.4154 27.6562 30.0664 27.6562H44.9492Z" fill="white"/>
<path d="M45.4961 33.5938L46.4596 33.8614L46.4615 33.8547L45.4961 33.5938ZM44.1289 36.8359L43.246 36.3663L43.2452 36.3678L44.1289 36.8359ZM40.3008 44.0625L39.4171 43.5944L39.413 43.6022L40.3008 44.0625ZM37.4492 42.8125L36.5548 42.3653L36.5516 42.3717L37.4492 42.8125ZM40.9648 35.7812L40.0744 35.3261L40.0704 35.334L40.9648 35.7812ZM42.2148 32.8906L43.17 33.187L43.1727 33.178L42.2148 32.8906ZM42.5664 30.625H43.5664V29.625H42.5664V30.625ZM32.4102 30.625V29.625H31.4102V30.625H32.4102ZM44.9492 28.6562C45.0251 28.6562 45.0508 28.6661 45.0431 28.6635C45.0383 28.6619 45.0248 28.6568 45.006 28.6456C44.9869 28.6341 44.9657 28.6182 44.9452 28.5977C44.9247 28.5772 44.9089 28.5561 44.8974 28.537C44.8861 28.5182 44.8811 28.5047 44.8794 28.4998C44.8769 28.4921 44.8867 28.5178 44.8867 28.5938H46.8867C46.8867 28.1271 46.7694 27.5934 46.3595 27.1835C45.9495 26.7736 45.4159 26.6562 44.9492 26.6562V28.6562ZM44.8867 28.5938V30.5469H46.8867V28.5938H44.8867ZM44.8867 30.5469C44.8867 31.5326 44.7666 32.4601 44.5307 33.3328L46.4615 33.8547C46.7464 32.8003 46.8867 31.6966 46.8867 30.5469H44.8867ZM44.5326 33.3261C44.2979 34.171 43.8761 35.1819 43.246 36.3663L45.0118 37.3056C45.6838 36.0421 46.1735 34.8915 46.4596 33.8614L44.5326 33.3261ZM43.2452 36.3678L39.4171 43.5944L41.1845 44.5306L45.0126 37.304L43.2452 36.3678ZM39.413 43.6022C37.5349 47.2243 36.5664 50.7153 36.5664 54.0625H38.5664C38.5664 51.1076 39.4209 47.9319 41.1885 44.5228L39.413 43.6022ZM36.5664 54.0625C36.5664 54.1312 36.5568 54.1484 36.5624 54.133C36.5655 54.1245 36.5723 54.1086 36.5851 54.0888C36.5982 54.0687 36.6148 54.0488 36.6342 54.0308C36.6535 54.013 36.6716 54.0009 36.6852 53.9934C36.6984 53.9861 36.7048 53.9845 36.701 53.9856C36.697 53.9869 36.6835 53.9906 36.6581 53.9939C36.6326 53.9973 36.5973 54 36.5508 54V56C37.0245 56 37.5662 55.8924 37.9908 55.5004C38.4305 55.0945 38.5664 54.5506 38.5664 54.0625H36.5664ZM36.5508 54H35.2227V56H36.5508V54ZM35.2227 54C35.1809 54 35.1504 53.9975 35.1296 53.9946C35.1089 53.9918 35.1 53.9889 35.1002 53.989C35.1007 53.9891 35.1107 53.9924 35.1267 54.0016C35.1431 54.0111 35.1628 54.025 35.1828 54.0442C35.2028 54.0635 35.2191 54.0841 35.2314 54.1038C35.2435 54.1231 35.2495 54.1379 35.2518 54.1446C35.2558 54.1563 35.2461 54.1348 35.2461 54.0625H33.2461C33.2461 54.5398 33.3725 55.0788 33.7977 55.487C34.2153 55.8879 34.753 56 35.2227 56V54ZM35.2461 54.0625C35.2461 51.1244 36.246 47.5318 38.3468 43.2533L36.5516 42.3717C34.3816 46.7911 33.2461 50.6985 33.2461 54.0625H35.2461ZM38.3436 43.2597L41.8593 36.2285L40.0704 35.334L36.5548 42.3653L38.3436 43.2597ZM41.8553 36.2364C42.4656 35.0423 42.9111 34.0209 43.1699 33.187L41.2598 32.5942C41.0498 33.2708 40.662 34.1765 40.0744 35.3261L41.8553 36.2364ZM43.1727 33.178C43.4317 32.3144 43.5664 31.4623 43.5664 30.625H41.5664C41.5664 31.2461 41.4667 31.9043 41.257 32.6033L43.1727 33.178ZM42.5664 29.625H32.4102V31.625H42.5664V29.625ZM31.4102 30.625V34.7656H33.4102V30.625H31.4102ZM31.4102 34.7656C31.4102 34.8057 31.4076 34.8343 31.4049 34.8531C31.4023 34.8717 31.3997 34.8787 31.4004 34.8766C31.4012 34.8742 31.4053 34.8629 31.4153 34.8462C31.4256 34.8291 31.44 34.8098 31.4589 34.7909C31.4778 34.7721 31.4971 34.7576 31.5142 34.7474C31.5309 34.7373 31.5422 34.7333 31.5446 34.7325C31.5467 34.7318 31.5397 34.7343 31.5211 34.737C31.5023 34.7397 31.4737 34.7422 31.4336 34.7422V36.7422C31.9133 36.7422 32.4567 36.6216 32.8731 36.2052C33.2896 35.7887 33.4102 35.2453 33.4102 34.7656H31.4102ZM31.4336 34.7422H30.0664V36.7422H31.4336V34.7422ZM30.0664 34.7422C30.0263 34.7422 29.9977 34.7397 29.9789 34.737C29.9603 34.7343 29.9533 34.7318 29.9554 34.7325C29.9578 34.7333 29.9691 34.7373 29.9858 34.7474C30.0029 34.7576 30.0222 34.7721 30.0411 34.7909C30.06 34.8098 30.0744 34.8291 30.0847 34.8462C30.0947 34.8629 30.0988 34.8742 30.0996 34.8766C30.1003 34.8787 30.0977 34.8717 30.0951 34.8531C30.0924 34.8343 30.0898 34.8057 30.0898 34.7656H28.0898C28.0898 35.2453 28.2104 35.7887 28.6269 36.2052C29.0433 36.6216 29.5867 36.7422 30.0664 36.7422V34.7422ZM30.0898 34.7656V28.6328H28.0898V34.7656H30.0898ZM30.0898 28.6328C30.0898 28.5927 30.0924 28.5641 30.0951 28.5454C30.0977 28.5267 30.1003 28.5197 30.0996 28.5218C30.0988 28.5242 30.0947 28.5355 30.0847 28.5522C30.0744 28.5693 30.06 28.5886 30.0411 28.6075C30.0222 28.6264 30.0029 28.6408 29.9858 28.6511C29.9691 28.6611 29.9578 28.6652 29.9554 28.666C29.9533 28.6667 29.9603 28.6641 29.9789 28.6615C29.9977 28.6588 30.0263 28.6562 30.0664 28.6562V26.6562C29.5867 26.6562 29.0433 26.7768 28.6269 27.1933C28.2104 27.6097 28.0898 28.1531 28.0898 28.6328H30.0898ZM30.0664 28.6562H44.9492V26.6562H30.0664V28.6562Z" fill="white" mask="url(#path-1-outside-1_1174_18)"/>
<path d="M4.07708 55.0027C4.95568 62.6602 11.3266 68.7398 19.205 69.1106C24.6503 69.367 30.2128 69.5 36.2501 69.5C42.2873 69.5 47.8499 69.367 53.295 69.1106C61.1737 68.7398 67.5445 62.6602 68.4229 55.0027C69.0148 49.846 69.5 44.5592 69.5 39.1736C69.5 33.788 69.0148 28.5012 68.4229 23.3445C67.5445 15.6871 61.1737 9.60729 53.295 9.23659C47.8499 8.98039 42.2873 8.84723 36.2501 8.84723C30.2128 8.84723 24.6503 8.98039 19.205 9.23659C11.3267 9.60729 4.95568 15.6871 4.07708 23.3445C3.48542 28.5012 3 33.788 3 39.1736C3 44.5592 3.48542 49.846 4.07708 55.0027Z" stroke="white" stroke-width="6" stroke-linecap="round" stroke-linejoin="round"/>
<path d="M20.7168 3V16.2998" stroke="white" stroke-width="6" stroke-linecap="round" stroke-linejoin="round"/>
<path d="M50.649 3V16.2998" stroke="white" stroke-width="6" stroke-linecap="round" stroke-linejoin="round"/>
</svg>
