<svg width="14" height="14" viewBox="0 0 14 14" fill="none" xmlns="http://www.w3.org/2000/svg">
<path d="M6.75 0C5.602 0 4.481 0.105 3.407 0.225C2.59083 0.318948 1.83062 0.686831 1.25051 1.26858C0.670393 1.85033 0.304651 2.61157 0.213 3.428C0.098 4.497 0 5.61 0 6.75C0 7.89 0.098 9.003 0.213 10.072C0.304651 10.8884 0.670393 11.6497 1.25051 12.2314C1.83062 12.8132 2.59083 13.1811 3.407 13.275C4.481 13.395 5.602 13.5 6.75 13.5C7.898 13.5 9.019 13.395 10.093 13.275C10.9092 13.1811 11.6694 12.8132 12.2495 12.2314C12.8296 11.6497 13.1953 10.8884 13.287 10.072C13.402 9.003 13.5 7.89 13.5 6.75C13.5 5.61 13.402 4.497 13.287 3.428C13.1953 2.61157 12.8296 1.85033 12.2495 1.26858C11.6694 0.686831 10.9092 0.318948 10.093 0.225C9.019 0.105 7.898 0 6.75 0Z" fill="#CDE4E4"/>
<path fill-rule="evenodd" clip-rule="evenodd" d="M9.4385 2.875C9.60426 2.875 9.76323 2.94085 9.88044 3.05806C9.99765 3.17527 10.0635 3.33424 10.0635 3.5C10.0635 3.66576 9.99765 3.82473 9.88044 3.94194C9.76323 4.05915 9.60426 4.125 9.4385 4.125H4.0625C3.89674 4.125 3.73777 4.05915 3.62056 3.94194C3.50335 3.82473 3.4375 3.66576 3.4375 3.5C3.4375 3.33424 3.50335 3.17527 3.62056 3.05806C3.73777 2.94085 3.89674 2.875 4.0625 2.875H9.4385ZM9.4385 5.625C9.60426 5.625 9.76323 5.69085 9.88044 5.80806C9.99765 5.92527 10.0635 6.08424 10.0635 6.25C10.0635 6.41576 9.99765 6.57473 9.88044 6.69194C9.76323 6.80915 9.60426 6.875 9.4385 6.875H4.0625C3.89674 6.875 3.73777 6.80915 3.62056 6.69194C3.50335 6.57473 3.4375 6.41576 3.4375 6.25C3.4375 6.08424 3.50335 5.92527 3.62056 5.80806C3.73777 5.69085 3.89674 5.625 4.0625 5.625H9.4385Z" fill="#469595"/>
</svg>
