<svg width="24" height="24" viewBox="0 0 24 24" fill="none" xmlns="http://www.w3.org/2000/svg">
<path d="M13.6577 4.33384C13.4893 4.04339 13.2474 3.8023 12.9565 3.63471C12.6655 3.46712 12.3356 3.37891 11.9998 3.37891C11.664 3.37891 11.3342 3.46712 11.0432 3.63471C10.7522 3.8023 10.5104 4.04339 10.3419 4.33384L2.67524 17.7505C2.5071 18.0417 2.41854 18.3721 2.41846 18.7084C2.41837 19.0446 2.50676 19.375 2.67475 19.6663C2.84274 19.9576 3.08442 20.1996 3.37551 20.368C3.66661 20.5364 3.99688 20.6252 4.33316 20.6255H19.6665C20.0028 20.6252 20.333 20.5364 20.6241 20.368C20.9152 20.1996 21.1569 19.9576 21.3249 19.6663C21.4929 19.375 21.5813 19.0446 21.5812 18.7084C21.5811 18.3721 21.4925 18.0417 21.3244 17.7505L13.6577 4.33384Z" stroke="black" stroke-width="2" stroke-linecap="round" stroke-linejoin="round"/>
</svg>
